SplineFontDB: 3.0
FontName: Asap-Regular
FullName: Asap-Regular
FamilyName: Asap
Weight: Regular
Copyright: Copyright (c) 2011-2013, Omnibus-Type (www.omnibus-type.com omnibus.type@gmail.com) with Reserved Font Name 'Asap'

StartChar: .notdef
Encoding: 65536 -1 0
Width: 514
Flags: MW
HStem: 0 50<87 427 87 507> 650 50<86 426 86 86>
VStem: 7 49<95 95 95 605> 456 51<95 605 605 605>
LayerCount: 2
Fore
SplineSet
7 700 m 1
 507 700 l 1
 507 0 l 1
 7 0 l 1
 7 700 l 1
426 650 m 1
 86 650 l 1
 257 395 l 1
 426 650 l 1
56 95 m 1
 227 350 l 1
 56 605 l 1
 56 95 l 1
456 95 m 1
 456 605 l 1
 287 350 l 1
 456 95 l 1
427 50 m 1
 256 305 l 1
 87 50 l 1
 427 50 l 1
EndSplineSet
EndChar

StartChar: A
Encoding: 65 65 1
Width: 613
Flags: MW
HStem: -2 21G<40 55 55 60 540 550 550 558> 178 76<185 424 185 451 157 424> 610 92<305 305 305 307> 682 20G<292 321 321 331>
VStem: 12 589<10 17 10 17>
LayerCount: 2
Fore
SplineSet
321 702 m 2xd8
 341 702 357 698 361 686 c 2
 598 28 l 2
 600 23 601 19 601 15 c 0
 601 5 588 -2 558 -2 c 2
 550 -2 l 2
 530 -2 514 2 510 14 c 2
 451 178 l 1
 157 178 l 1
 100 14 l 2
 96 2 80 -2 60 -2 c 2
 55 -2 l 2
 25 -2 12 4 12 15 c 0
 12 19 13 23 15 29 c 2
 252 686 l 2
 256 698 272 702 292 702 c 2
 321 702 l 2xd8
305 610 m 1xe8
 301 591 297 571 290 552 c 2
 185 254 l 1
 424 254 l 1
 319 552 l 2
 313 570 310 591 307 610 c 1
 305 610 l 1xe8
EndSplineSet
Substitution2: "Single Substitution lookup 21 subtable" ordfeminine
Substitution2: "'aalt' Access All Alternates lookup 0 subtable" ordfeminine
Position2: "'cpsp' Capital Spacing lookup 3 subtable" dx=5 dy=0 dh=10 dv=0
EndChar

StartChar: Aacute
Encoding: 193 193 2
Width: 613
Flags: MW
HStem: -2 21G<40 55 55 60 540 550 550 558> 178 76<185 424 185 451 157 424> 610 92<305 305 305 307> 682 20G<292 321 321 331>
VStem: 12 589<10 17 10 17>
LayerCount: 2
Fore
SplineSet
387 909 m 0xd8
 419 909 435 906 435 896 c 0
 435 885 425 876 341 780 c 0
 330 768 311 762 290 762 c 0
 274 762 267 765 267 772 c 0
 267 782 279 803 325 883 c 0
 336 902 355 909 387 909 c 0xd8
321 702 m 2
 341 702 357 698 361 686 c 2
 598 28 l 2
 600 23 601 19 601 15 c 0
 601 5 588 -2 558 -2 c 2
 550 -2 l 2
 530 -2 514 2 510 14 c 2
 451 178 l 1
 157 178 l 1
 100 14 l 2
 96 2 80 -2 60 -2 c 2
 55 -2 l 2
 25 -2 12 4 12 15 c 0
 12 19 13 23 15 29 c 2
 252 686 l 2
 256 698 272 702 292 702 c 2
 321 702 l 2
305 610 m 1xe8
 301 591 297 571 290 552 c 2
 185 254 l 1
 424 254 l 1
 319 552 l 2
 313 570 310 591 307 610 c 1
 305 610 l 1xe8
EndSplineSet
Position2: "'cpsp' Capital Spacing lookup 3 subtable" dx=5 dy=0 dh=10 dv=0
EndChar

StartChar: Abreve
Encoding: 258 258 3
Width: 613
Flags: MW
HStem: -2 21G<40 55 55 60 540 550 550 558> 178 76<185 424 185 451 157 424> 610 92<305 305 305 307> 682 20G<292 321 321 331> 762 66<283.5 332.5 283.5 343.5>
VStem: 12 589<10 17 10 17>
LayerCount: 2
Fore
SplineSet
437 892 m 0xdc
 448 892 452 887 452 877 c 0
 452 800 379 762 308 762 c 0
 236 762 163 800 163 877 c 0
 163 887 167 892 178 892 c 0
 195 892 192 883 200 867 c 0
 215 839 259 828 308 828 c 0
 357 828 400 839 415 867 c 0
 423 883 420 892 437 892 c 0xdc
321 702 m 2
 341 702 357 698 361 686 c 2
 598 28 l 2
 600 23 601 19 601 15 c 0
 601 5 588 -2 558 -2 c 2
 550 -2 l 2
 530 -2 514 2 510 14 c 2
 451 178 l 1
 157 178 l 1
 100 14 l 2
 96 2 80 -2 60 -2 c 2
 55 -2 l 2
 25 -2 12 4 12 15 c 0
 12 19 13 23 15 29 c 2
 252 686 l 2
 256 698 272 702 292 702 c 2
 321 702 l 2
305 610 m 1xec
 301 591 297 571 290 552 c 2
 185 254 l 1
 424 254 l 1
 319 552 l 2
 313 570 310 591 307 610 c 1
 305 610 l 1xec
EndSplineSet
Position2: "'cpsp' Capital Spacing lookup 3 subtable" dx=5 dy=0 dh=10 dv=0
EndChar

StartChar: Abreveacute
Encoding: 7854 7854 4
Width: 613
Flags: MW
HStem: -2 21G<40 55 55 60 540 550 550 558> 178 76<185 424 185 451 157 424> 610 92<305 305 305 307> 682 20G<292 321 321 331> 762 52<283.5 332.5 283.5 343.5>
VStem: 12 589<10 17 10 17>
LayerCount: 2
Fore
SplineSet
321 702 m 2xdc
 341 702 357 698 361 686 c 2
 598 28 l 2
 600 23 601 19 601 15 c 0
 601 5 588 -2 558 -2 c 2
 550 -2 l 2
 530 -2 514 2 510 14 c 2
 451 178 l 1
 157 178 l 1
 100 14 l 2
 96 2 80 -2 60 -2 c 2
 55 -2 l 2
 25 -2 12 4 12 15 c 0
 12 19 13 23 15 29 c 2
 252 686 l 2
 256 698 272 702 292 702 c 2
 321 702 l 2xdc
305 610 m 1xec
 301 591 297 571 290 552 c 2
 185 254 l 1
 424 254 l 1
 319 552 l 2
 313 570 310 591 307 610 c 1
 305 610 l 1xec
377 989 m 0
 399 989 408 986 408 976 c 0
 408 966 400 958 334 870 c 0
 325 858 315 852 298 852 c 0
 282 852 275 855 275 862 c 0
 275 871 285 890 323 963 c 0
 334 982 353 989 377 989 c 0
437 881 m 0
 448 881 452 876 452 866 c 0
 452 799 379 762 308 762 c 0
 236 762 163 799 163 866 c 0
 163 876 167 881 178 881 c 0
 195 881 188 870 200 856 c 0
 215 838 259 814 308 814 c 0
 357 814 400 836 415 856 c 0
 425 870 420 881 437 881 c 0
EndSplineSet
Position2: "'cpsp' Capital Spacing lookup 3 subtable" dx=5 dy=0 dh=10 dv=0
EndChar

StartChar: Abrevedotbelow
Encoding: 7862 7862 5
Width: 613
Flags: MW
HStem: -175 95<298 326> -2 21G<40 55 55 60 540 550 550 558> 178 76<185 424 185 451 157 424> 610 92<305 305 305 307> 682 20G<292 321 321 331> 762 66<283.5 332.5 283.5 343.5>
VStem: 270 84<-153 -102 -159.5 -95.5>
LayerCount: 2
Fore
SplineSet
321 702 m 2xee
 341 702 357 698 361 686 c 2
 598 28 l 2
 600 23 601 19 601 15 c 0
 601 5 588 -2 558 -2 c 2
 550 -2 l 2
 530 -2 514 2 510 14 c 2
 451 178 l 1
 157 178 l 1
 100 14 l 2
 96 2 80 -2 60 -2 c 2
 55 -2 l 2
 25 -2 12 4 12 15 c 0
 12 19 13 23 15 29 c 2
 252 686 l 2
 256 698 272 702 292 702 c 2
 321 702 l 2xee
305 610 m 1xf6
 301 591 297 571 290 552 c 2
 185 254 l 1
 424 254 l 1
 319 552 l 2
 313 570 310 591 307 610 c 1
 305 610 l 1xf6
437 892 m 0
 448 892 452 887 452 877 c 0
 452 800 379 762 308 762 c 0
 236 762 163 800 163 877 c 0
 163 887 167 892 178 892 c 0
 195 892 192 883 200 867 c 0
 215 839 259 828 308 828 c 0
 357 828 400 839 415 867 c 0
 423 883 420 892 437 892 c 0
270 -102 m 2
 270 -89 282 -80 314 -80 c 0
 342 -80 354 -88 354 -102 c 2
 354 -153 l 2
 354 -166 342 -175 310 -175 c 0
 282 -175 270 -167 270 -153 c 2
 270 -102 l 2
EndSplineSet
Position2: "'cpsp' Capital Spacing lookup 3 subtable" dx=5 dy=0 dh=10 dv=0
EndChar

StartChar: Abrevegrave
Encoding: 7856 7856 6
Width: 613
Flags: MW
HStem: -2 21G<40 55 55 60 540 550 550 558> 178 76<185 424 185 451 157 424> 610 92<305 305 305 307> 682 20G<292 321 321 331> 762 52<283.5 332.5 283.5 343.5>
VStem: 12 589<10 17 10 17>
LayerCount: 2
Fore
SplineSet
321 702 m 2xdc
 341 702 357 698 361 686 c 2
 598 28 l 2
 600 23 601 19 601 15 c 0
 601 5 588 -2 558 -2 c 2
 550 -2 l 2
 530 -2 514 2 510 14 c 2
 451 178 l 1
 157 178 l 1
 100 14 l 2
 96 2 80 -2 60 -2 c 2
 55 -2 l 2
 25 -2 12 4 12 15 c 0
 12 19 13 23 15 29 c 2
 252 686 l 2
 256 698 272 702 292 702 c 2
 321 702 l 2xdc
305 610 m 1xec
 301 591 297 571 290 552 c 2
 185 254 l 1
 424 254 l 1
 319 552 l 2
 313 570 310 591 307 610 c 1
 305 610 l 1xec
263 989 m 0
 283 989 305 982 313 963 c 0
 344 890 351 871 351 862 c 0
 351 855 344 852 328 852 c 0
 315 852 300 858 292 870 c 0
 236 958 228 966 228 976 c 0
 228 986 235 989 263 989 c 0
437 881 m 0
 448 881 452 876 452 866 c 0
 452 799 379 762 308 762 c 0
 236 762 163 799 163 866 c 0
 163 876 167 881 178 881 c 0
 195 881 188 870 200 856 c 0
 215 838 259 814 308 814 c 0
 357 814 400 836 415 856 c 0
 425 870 420 881 437 881 c 0
EndSplineSet
Position2: "'cpsp' Capital Spacing lookup 3 subtable" dx=5 dy=0 dh=10 dv=0
EndChar

StartChar: Abrevehookabove
Encoding: 7858 7858 7
Width: 613
Flags: MW
HStem: -2 21G<40 55 55 60 540 550 550 558> 178 76<185 424 185 451 157 424> 610 92<305 305 305 307> 682 20G<292 321 321 331> 762 52<283.5 332.5 283.5 343.5> 959 48<284.5 304>
VStem: 331 57<925 941>
LayerCount: 2
Fore
SplineSet
321 702 m 2xde
 341 702 357 698 361 686 c 2
 598 28 l 2
 600 23 601 19 601 15 c 0
 601 5 588 -2 558 -2 c 2
 550 -2 l 2
 530 -2 514 2 510 14 c 2
 451 178 l 1
 157 178 l 1
 100 14 l 2
 96 2 80 -2 60 -2 c 2
 55 -2 l 2
 25 -2 12 4 12 15 c 0
 12 19 13 23 15 29 c 2
 252 686 l 2
 256 698 272 702 292 702 c 2
 321 702 l 2xde
305 610 m 1xee
 301 591 297 571 290 552 c 2
 185 254 l 1
 424 254 l 1
 319 552 l 2
 313 570 310 591 307 610 c 1
 305 610 l 1xee
331 932 m 0
 331 950 314 959 294 959 c 0
 263 959 253 946 248 946 c 0
 240 946 224 969 224 979 c 0
 224 992 267 1007 302 1007 c 0
 336 1007 388 991 388 939 c 0
 388 908 370 889 353 875 c 0
 339 863 318 853 312 853 c 0
 291 853 275 864 275 873 c 0
 275 881 284 886 300 895 c 0
 320 906 331 918 331 932 c 0
437 881 m 0
 448 881 452 876 452 866 c 0
 452 799 379 762 308 762 c 0
 236 762 163 799 163 866 c 0
 163 876 167 881 178 881 c 0
 195 881 188 870 200 856 c 0
 215 838 259 814 308 814 c 0
 357 814 400 836 415 856 c 0
 425 870 420 881 437 881 c 0
EndSplineSet
Position2: "'cpsp' Capital Spacing lookup 3 subtable" dx=5 dy=0 dh=10 dv=0
EndChar

StartChar: Abrevetilde
Encoding: 7860 7860 8
Width: 613
Flags: MW
HStem: -2 21G<40 55 55 60 540 550 550 558> 178 76<185 424 185 451 157 424> 610 92<305 305 305 307> 682 20G<292 321 321 331> 762 52<283.5 332.5 283.5 343.5> 903 64<354 370.5> 933 64<235.5 252>
VStem: 12 589<10 17 10 17>
LayerCount: 2
Fore
SplineSet
321 702 m 2xdd
 341 702 357 698 361 686 c 2
 598 28 l 2
 600 23 601 19 601 15 c 0
 601 5 588 -2 558 -2 c 2
 550 -2 l 2
 530 -2 514 2 510 14 c 2
 451 178 l 1
 157 178 l 1
 100 14 l 2
 96 2 80 -2 60 -2 c 2
 55 -2 l 2
 25 -2 12 4 12 15 c 0
 12 19 13 23 15 29 c 2
 252 686 l 2
 256 698 272 702 292 702 c 2
 321 702 l 2xdd
305 610 m 1xed
 301 591 297 571 290 552 c 2
 185 254 l 1
 424 254 l 1
 319 552 l 2
 313 570 310 591 307 610 c 1
 305 610 l 1xed
416 990 m 0
 421 994 425 995 430 995 c 0
 437 995 443 991 447 986 c 0
 453 978 456 971 456 965 c 0
 456 957 451 950 445 944 c 0
 418 922 389 903 352 903 c 0xdd
 318 903 301 911 285 919 c 0
 270 927 261 933 243 933 c 0
 223 933 204 922 193 914 c 0
 187 910 181 907 176 907 c 0
 169 907 162 912 156 921 c 0
 152 927 150 933 150 938 c 0
 150 946 154 952 160 957 c 0
 186 977 217 997 254 997 c 0xdb
 288 997 303 986 318 978 c 0
 331 971 345 967 363 967 c 0
 383 967 400 978 416 990 c 0
437 881 m 0xdd
 448 881 452 876 452 866 c 0
 452 799 379 762 308 762 c 0
 236 762 163 799 163 866 c 0
 163 876 167 881 178 881 c 0
 195 881 188 870 200 856 c 0
 215 838 259 814 308 814 c 0
 357 814 400 836 415 856 c 0
 425 870 420 881 437 881 c 0xdd
EndSplineSet
Position2: "'cpsp' Capital Spacing lookup 3 subtable" dx=5 dy=0 dh=10 dv=0
EndChar

StartChar: Acircumflex
Encoding: 194 194 9
Width: 613
Flags: MW
HStem: -2 21G<40 55 55 60 540 550 550 558> 178 76<185 424 185 451 157 424> 610 92<305 305 305 307> 682 20G<292 321 321 331> 753 142<201.5 319 209 319 294 402 294 404>
VStem: 12 589<10 17 10 17>
LayerCount: 2
Fore
SplineSet
319 895 m 2xdc
 339 895 355 888 365 873 c 2
 422 785 l 2
 426 779 428 773 428 768 c 0
 428 759 420 753 404 753 c 2
 402 753 l 2
 389 753 379 757 369 766 c 1
 306 840 l 1
 245 766 l 1
 235 757 225 753 211 753 c 2
 209 753 l 2
 194 753 186 758 186 767 c 0
 186 772 188 778 192 785 c 2
 248 873 l 2
 258 888 274 895 294 895 c 2
 319 895 l 2xdc
321 702 m 2
 341 702 357 698 361 686 c 2
 598 28 l 2
 600 23 601 19 601 15 c 0
 601 5 588 -2 558 -2 c 2
 550 -2 l 2
 530 -2 514 2 510 14 c 2
 451 178 l 1
 157 178 l 1
 100 14 l 2
 96 2 80 -2 60 -2 c 2
 55 -2 l 2
 25 -2 12 4 12 15 c 0
 12 19 13 23 15 29 c 2
 252 686 l 2
 256 698 272 702 292 702 c 2
 321 702 l 2
305 610 m 1xec
 301 591 297 571 290 552 c 2
 185 254 l 1
 424 254 l 1
 319 552 l 2
 313 570 310 591 307 610 c 1
 305 610 l 1xec
EndSplineSet
Position2: "'cpsp' Capital Spacing lookup 3 subtable" dx=5 dy=0 dh=10 dv=0
EndChar

StartChar: Acircumflexacute
Encoding: 7844 7844 10
Width: 613
Flags: MW
HStem: -2 21G<40 55 55 60 540 550 550 558> 178 76<185 424 185 451 157 424> 610 92<305 305 305 307> 682 20G<292 321 321 331>
VStem: 12 589<10 17 10 17>
LayerCount: 2
Fore
SplineSet
321 702 m 2xd8
 341 702 357 698 361 686 c 2
 598 28 l 2
 600 23 601 19 601 15 c 0
 601 5 588 -2 558 -2 c 2
 550 -2 l 2
 530 -2 514 2 510 14 c 2
 451 178 l 1
 157 178 l 1
 100 14 l 2
 96 2 80 -2 60 -2 c 2
 55 -2 l 2
 25 -2 12 4 12 15 c 0
 12 19 13 23 15 29 c 2
 252 686 l 2
 256 698 272 702 292 702 c 2
 321 702 l 2xd8
305 610 m 1xe8
 301 591 297 571 290 552 c 2
 185 254 l 1
 424 254 l 1
 319 552 l 2
 313 570 310 591 307 610 c 1
 305 610 l 1xe8
517 961 m 0
 539 961 548 958 548 948 c 0
 548 938 540 930 474 842 c 0
 465 830 455 824 438 824 c 0
 422 824 415 827 415 834 c 0
 415 843 425 862 463 935 c 0
 474 954 493 961 517 961 c 0
323 895 m 2
 339 895 351 886 359 873 c 2
 411 785 l 2
 415 779 417 773 417 768 c 0
 417 759 409 753 393 753 c 2
 391 753 l 2
 378 753 364 757 358 766 c 2
 310 840 l 1
 249 766 l 1
 239 757 229 753 215 753 c 2
 213 753 l 2
 198 753 190 758 190 767 c 0
 190 772 192 778 196 785 c 2
 252 873 l 2
 262 888 278 895 298 895 c 2
 323 895 l 2
EndSplineSet
Position2: "'cpsp' Capital Spacing lookup 3 subtable" dx=5 dy=0 dh=10 dv=0
EndChar

StartChar: Acircumflexdotbelow
Encoding: 7852 7852 11
Width: 613
Flags: MW
HStem: -175 95<298 326> -2 21G<40 55 55 60 540 550 550 558> 178 76<185 424 185 451 157 424> 610 92<305 305 305 307> 682 20G<292 321 321 331> 753 142<201.5 319 209 319 294 402 294 404>
VStem: 270 84<-153 -102 -159.5 -95.5>
LayerCount: 2
Fore
SplineSet
321 702 m 2xee
 341 702 357 698 361 686 c 2
 598 28 l 2
 600 23 601 19 601 15 c 0
 601 5 588 -2 558 -2 c 2
 550 -2 l 2
 530 -2 514 2 510 14 c 2
 451 178 l 1
 157 178 l 1
 100 14 l 2
 96 2 80 -2 60 -2 c 2
 55 -2 l 2
 25 -2 12 4 12 15 c 0
 12 19 13 23 15 29 c 2
 252 686 l 2
 256 698 272 702 292 702 c 2
 321 702 l 2xee
305 610 m 1xf6
 301 591 297 571 290 552 c 2
 185 254 l 1
 424 254 l 1
 319 552 l 2
 313 570 310 591 307 610 c 1
 305 610 l 1xf6
319 895 m 2
 339 895 355 888 365 873 c 2
 422 785 l 2
 426 779 428 773 428 768 c 0
 428 759 420 753 404 753 c 2
 402 753 l 2
 389 753 379 757 369 766 c 1
 306 840 l 1
 245 766 l 1
 235 757 225 753 211 753 c 2
 209 753 l 2
 194 753 186 758 186 767 c 0
 186 772 188 778 192 785 c 2
 248 873 l 2
 258 888 274 895 294 895 c 2
 319 895 l 2
270 -102 m 2
 270 -89 282 -80 314 -80 c 0
 342 -80 354 -88 354 -102 c 2
 354 -153 l 2
 354 -166 342 -175 310 -175 c 0
 282 -175 270 -167 270 -153 c 2
 270 -102 l 2
EndSplineSet
Position2: "'cpsp' Capital Spacing lookup 3 subtable" dx=5 dy=0 dh=10 dv=0
EndChar

StartChar: Acircumflexgrave
Encoding: 7846 7846 12
Width: 613
Flags: MW
HStem: -2 21G<40 55 55 60 540 550 550 558> 178 76<185 424 185 451 157 424> 610 92<305 305 305 307> 682 20G<292 321 321 331>
VStem: 12 589<10 17 10 17>
LayerCount: 2
Fore
SplineSet
321 702 m 2xd8
 341 702 357 698 361 686 c 2
 598 28 l 2
 600 23 601 19 601 15 c 0
 601 5 588 -2 558 -2 c 2
 550 -2 l 2
 530 -2 514 2 510 14 c 2
 451 178 l 1
 157 178 l 1
 100 14 l 2
 96 2 80 -2 60 -2 c 2
 55 -2 l 2
 25 -2 12 4 12 15 c 0
 12 19 13 23 15 29 c 2
 252 686 l 2
 256 698 272 702 292 702 c 2
 321 702 l 2xd8
305 610 m 1xe8
 301 591 297 571 290 552 c 2
 185 254 l 1
 424 254 l 1
 319 552 l 2
 313 570 310 591 307 610 c 1
 305 610 l 1xe8
403 961 m 0
 423 961 445 954 453 935 c 0
 484 862 491 843 491 834 c 0
 491 827 484 824 468 824 c 0
 455 824 440 830 432 842 c 0
 376 930 368 938 368 948 c 0
 368 958 375 961 403 961 c 0
323 895 m 2
 339 895 351 886 359 873 c 2
 411 785 l 2
 415 779 417 773 417 768 c 0
 417 759 409 753 393 753 c 2
 391 753 l 2
 378 753 364 757 358 766 c 2
 310 840 l 1
 249 766 l 1
 239 757 229 753 215 753 c 2
 213 753 l 2
 198 753 190 758 190 767 c 0
 190 772 192 778 196 785 c 2
 252 873 l 2
 262 888 278 895 298 895 c 2
 323 895 l 2
EndSplineSet
Position2: "'cpsp' Capital Spacing lookup 3 subtable" dx=5 dy=0 dh=10 dv=0
EndChar

StartChar: Acircumflexhookabove
Encoding: 7848 7848 13
Width: 613
Flags: MW
HStem: -2 21G<40 55 55 60 540 550 550 558> 178 76<185 424 185 451 157 424> 610 92<305 305 305 307> 682 20G<292 321 321 331> 931 48<424.5 444>
VStem: 471 57<897 913>
LayerCount: 2
Fore
SplineSet
321 702 m 2xdc
 341 702 357 698 361 686 c 2
 598 28 l 2
 600 23 601 19 601 15 c 0
 601 5 588 -2 558 -2 c 2
 550 -2 l 2
 530 -2 514 2 510 14 c 2
 451 178 l 1
 157 178 l 1
 100 14 l 2
 96 2 80 -2 60 -2 c 2
 55 -2 l 2
 25 -2 12 4 12 15 c 0
 12 19 13 23 15 29 c 2
 252 686 l 2
 256 698 272 702 292 702 c 2
 321 702 l 2xdc
305 610 m 1xec
 301 591 297 571 290 552 c 2
 185 254 l 1
 424 254 l 1
 319 552 l 2
 313 570 310 591 307 610 c 1
 305 610 l 1xec
471 904 m 0
 471 922 454 931 434 931 c 0
 403 931 393 918 388 918 c 0
 380 918 364 941 364 951 c 0
 364 964 407 979 442 979 c 0
 476 979 528 963 528 911 c 0
 528 880 510 861 493 847 c 0
 479 835 458 825 452 825 c 0
 431 825 415 836 415 845 c 0
 415 853 424 858 440 867 c 0
 460 878 471 890 471 904 c 0
323 895 m 2
 339 895 351 886 359 873 c 2
 411 785 l 2
 415 779 417 773 417 768 c 0
 417 759 409 753 393 753 c 2
 391 753 l 2
 378 753 364 757 358 766 c 2
 310 840 l 1
 249 766 l 1
 239 757 229 753 215 753 c 2
 213 753 l 2
 198 753 190 758 190 767 c 0
 190 772 192 778 196 785 c 2
 252 873 l 2
 262 888 278 895 298 895 c 2
 323 895 l 2
EndSplineSet
Position2: "'cpsp' Capital Spacing lookup 3 subtable" dx=5 dy=0 dh=10 dv=0
EndChar

StartChar: Acircumflextilde
Encoding: 7850 7850 14
Width: 613
Flags: MW
HStem: -2 21G<40 55 55 60 540 550 550 558> 178 76<185 424 185 451 157 424> 610 92<305 305 305 307> 682 20G<292 321 321 331> 903 64<355 371.5> 933 64<236.5 253>
VStem: 12 589<10 17 10 17>
LayerCount: 2
Fore
SplineSet
321 702 m 2xda
 341 702 357 698 361 686 c 2
 598 28 l 2
 600 23 601 19 601 15 c 0
 601 5 588 -2 558 -2 c 2
 550 -2 l 2
 530 -2 514 2 510 14 c 2
 451 178 l 1
 157 178 l 1
 100 14 l 2
 96 2 80 -2 60 -2 c 2
 55 -2 l 2
 25 -2 12 4 12 15 c 0
 12 19 13 23 15 29 c 2
 252 686 l 2
 256 698 272 702 292 702 c 2
 321 702 l 2xda
305 610 m 1xea
 301 591 297 571 290 552 c 2
 185 254 l 1
 424 254 l 1
 319 552 l 2
 313 570 310 591 307 610 c 1
 305 610 l 1xea
417 990 m 0
 422 994 426 995 431 995 c 0
 438 995 444 991 448 986 c 0
 454 978 457 971 457 965 c 0
 457 957 452 950 446 944 c 0
 419 922 390 903 353 903 c 0xda
 319 903 302 911 286 919 c 0
 271 927 262 933 244 933 c 0
 224 933 205 922 194 914 c 0
 188 910 182 907 177 907 c 0
 170 907 163 912 157 921 c 0
 153 927 151 933 151 938 c 0
 151 946 155 952 161 957 c 0
 187 977 218 997 255 997 c 0xd6
 289 997 304 986 319 978 c 0
 332 971 346 967 364 967 c 0
 384 967 401 978 417 990 c 0
319 871 m 2
 339 871 352 862 365 849 c 1
 422 785 l 1
 426 779 428 773 428 768 c 0
 428 759 420 753 404 753 c 2
 402 753 l 2
 389 753 380 759 369 766 c 1
 306 816 l 1
 245 766 l 2
 235 759 225 753 211 753 c 2
 209 753 l 2
 194 753 186 758 186 767 c 0
 186 772 188 778 192 785 c 1
 248 849 l 1
 262 862 274 871 294 871 c 2
 319 871 l 2
EndSplineSet
Position2: "'cpsp' Capital Spacing lookup 3 subtable" dx=5 dy=0 dh=10 dv=0
EndChar

StartChar: Adieresis
Encoding: 196 196 15
Width: 613
Flags: MW
HStem: -2 21G<40 55 55 60 540 550 550 558> 178 76<185 424 185 451 157 424> 610 92<305 305 305 307> 682 20G<292 321 321 331> 784 95<221 249 365 393>
VStem: 193 84<806 857 799.5 863.5> 337 84<806 857 799.5 863.5>
LayerCount: 2
Fore
SplineSet
321 702 m 2xde
 341 702 357 698 361 686 c 2
 598 28 l 2
 600 23 601 19 601 15 c 0
 601 5 588 -2 558 -2 c 2
 550 -2 l 2
 530 -2 514 2 510 14 c 2
 451 178 l 1
 157 178 l 1
 100 14 l 2
 96 2 80 -2 60 -2 c 2
 55 -2 l 2
 25 -2 12 4 12 15 c 0
 12 19 13 23 15 29 c 2
 252 686 l 2
 256 698 272 702 292 702 c 2
 321 702 l 2xde
305 610 m 1xee
 301 591 297 571 290 552 c 2
 185 254 l 1
 424 254 l 1
 319 552 l 2
 313 570 310 591 307 610 c 1
 305 610 l 1xee
193 857 m 2
 193 870 205 879 237 879 c 0
 265 879 277 871 277 857 c 2
 277 806 l 2
 277 793 265 784 233 784 c 0
 205 784 193 792 193 806 c 2
 193 857 l 2
337 857 m 2
 337 870 349 879 381 879 c 0
 409 879 421 871 421 857 c 2
 421 806 l 2
 421 793 409 784 377 784 c 0
 349 784 337 792 337 806 c 2
 337 857 l 2
EndSplineSet
Position2: "'cpsp' Capital Spacing lookup 3 subtable" dx=5 dy=0 dh=10 dv=0
EndChar

StartChar: Adotbelow
Encoding: 7840 7840 16
Width: 613
Flags: MW
HStem: -175 95<298 326> -2 21G<40 55 55 60 540 550 550 558> 178 76<185 424 185 451 157 424> 610 92<305 305 305 307> 682 20G<292 321 321 331>
VStem: 270 84<-153 -102 -159.5 -95.5>
LayerCount: 2
Fore
SplineSet
321 702 m 2xec
 341 702 357 698 361 686 c 2
 598 28 l 2
 600 23 601 19 601 15 c 0
 601 5 588 -2 558 -2 c 2
 550 -2 l 2
 530 -2 514 2 510 14 c 2
 451 178 l 1
 157 178 l 1
 100 14 l 2
 96 2 80 -2 60 -2 c 2
 55 -2 l 2
 25 -2 12 4 12 15 c 0
 12 19 13 23 15 29 c 2
 252 686 l 2
 256 698 272 702 292 702 c 2
 321 702 l 2xec
305 610 m 1xf4
 301 591 297 571 290 552 c 2
 185 254 l 1
 424 254 l 1
 319 552 l 2
 313 570 310 591 307 610 c 1
 305 610 l 1xf4
270 -102 m 2
 270 -89 282 -80 314 -80 c 0
 342 -80 354 -88 354 -102 c 2
 354 -153 l 2
 354 -166 342 -175 310 -175 c 0
 282 -175 270 -167 270 -153 c 2
 270 -102 l 2
EndSplineSet
Position2: "'cpsp' Capital Spacing lookup 3 subtable" dx=5 dy=0 dh=10 dv=0
EndChar

StartChar: Agrave
Encoding: 192 192 17
Width: 613
Flags: MW
HStem: -2 21G<40 55 55 60 540 550 550 558> 178 76<185 424 185 451 157 424> 610 92<305 305 305 307> 682 20G<292 321 321 331>
VStem: 12 589<10 17 10 17>
LayerCount: 2
Fore
SplineSet
237 909 m 0xd8
 269 909 288 902 299 883 c 0
 345 803 357 782 357 772 c 0
 357 765 350 762 334 762 c 0
 313 762 294 768 283 780 c 0
 199 876 189 885 189 896 c 0
 189 906 205 909 237 909 c 0xd8
321 702 m 2
 341 702 357 698 361 686 c 2
 598 28 l 2
 600 23 601 19 601 15 c 0
 601 5 588 -2 558 -2 c 2
 550 -2 l 2
 530 -2 514 2 510 14 c 2
 451 178 l 1
 157 178 l 1
 100 14 l 2
 96 2 80 -2 60 -2 c 2
 55 -2 l 2
 25 -2 12 4 12 15 c 0
 12 19 13 23 15 29 c 2
 252 686 l 2
 256 698 272 702 292 702 c 2
 321 702 l 2
305 610 m 1xe8
 301 591 297 571 290 552 c 2
 185 254 l 1
 424 254 l 1
 319 552 l 2
 313 570 310 591 307 610 c 1
 305 610 l 1xe8
EndSplineSet
Position2: "'cpsp' Capital Spacing lookup 3 subtable" dx=5 dy=0 dh=10 dv=0
EndChar

StartChar: Ahookabove
Encoding: 7842 7842 18
Width: 613
Flags: MW
HStem: -2 21G<40 55 55 60 540 550 550 558> 178 76<185 424 185 451 157 424> 610 92<305 305 305 307> 682 20G<292 321 321 331> 876 51<296.5 316>
VStem: 343 62<824 858>
LayerCount: 2
Fore
SplineSet
343 849 m 0xdc
 343 867 326 876 306 876 c 0
 275 876 265 863 260 863 c 0
 252 863 236 886 236 896 c 0
 236 909 279 927 314 927 c 0
 348 927 405 911 405 856 c 0
 405 790 326 740 314 740 c 0
 305 740 281 748 281 757 c 0
 281 786 343 799 343 849 c 0xdc
321 702 m 2
 341 702 357 698 361 686 c 2
 598 28 l 2
 600 23 601 19 601 15 c 0
 601 5 588 -2 558 -2 c 2
 550 -2 l 2
 530 -2 514 2 510 14 c 2
 451 178 l 1
 157 178 l 1
 100 14 l 2
 96 2 80 -2 60 -2 c 2
 55 -2 l 2
 25 -2 12 4 12 15 c 0
 12 19 13 23 15 29 c 2
 252 686 l 2
 256 698 272 702 292 702 c 2
 321 702 l 2
305 610 m 1xec
 301 591 297 571 290 552 c 2
 185 254 l 1
 424 254 l 1
 319 552 l 2
 313 570 310 591 307 610 c 1
 305 610 l 1xec
EndSplineSet
Position2: "'cpsp' Capital Spacing lookup 3 subtable" dx=5 dy=0 dh=10 dv=0
EndChar

StartChar: Amacron
Encoding: 256 256 19
Width: 613
Flags: MW
HStem: -2 21G<40 55 55 60 540 550 550 558> 178 76<185 424 185 451 157 424> 610 92<305 305 305 307> 682 20G<292 321 321 331> 789 70<189 419 196 419>
VStem: 12 589<10 17 10 17>
LayerCount: 2
Fore
SplineSet
419 859 m 2xdc
 433 859 439 850 439 829 c 2
 439 819 l 2
 439 798 433 789 419 789 c 2
 196 789 l 2
 182 789 176 798 176 819 c 2
 176 829 l 2
 176 850 182 859 196 859 c 2
 419 859 l 2xdc
321 702 m 2
 341 702 357 698 361 686 c 2
 598 28 l 2
 600 23 601 19 601 15 c 0
 601 5 588 -2 558 -2 c 2
 550 -2 l 2
 530 -2 514 2 510 14 c 2
 451 178 l 1
 157 178 l 1
 100 14 l 2
 96 2 80 -2 60 -2 c 2
 55 -2 l 2
 25 -2 12 4 12 15 c 0
 12 19 13 23 15 29 c 2
 252 686 l 2
 256 698 272 702 292 702 c 2
 321 702 l 2
305 610 m 1xec
 301 591 297 571 290 552 c 2
 185 254 l 1
 424 254 l 1
 319 552 l 2
 313 570 310 591 307 610 c 1
 305 610 l 1xec
EndSplineSet
Position2: "'cpsp' Capital Spacing lookup 3 subtable" dx=5 dy=0 dh=10 dv=0
EndChar

StartChar: Aogonek
Encoding: 260 260 20
Width: 613
Flags: MW
HStem: -183 70<622.5 641.5 622.5 648> -2 21G<40 55 55 60> 0 21G 178 76<185 424 185 451 157 424> 610 92<305 307 305 305> 682 20G<292 321 321 331>
VStem: 505 67<-86 -71>
LayerCount: 2
Fore
SplineSet
598 28 m 2xb6
 600 23 601 19 601 15 c 0
 601 9 596 3 584 1 c 1
 584 -1 l 2
 584 -15 572 -38 572 -62 c 0
 572 -110 611 -113 634 -113 c 0
 649 -113 670 -103 686 -103 c 0
 698 -103 705 -111 705 -128 c 0
 705 -173 673 -183 623 -183 c 0
 516 -183 505 -110 505 -81 c 0
 505 -61 508 -21 530 0 c 1
 520 2 513 6 510 14 c 2xb6
 451 178 l 1
 157 178 l 1
 100 14 l 2
 96 2 80 -2 60 -2 c 2
 55 -2 l 2
 25 -2 12 4 12 15 c 0
 12 19 13 23 15 29 c 2xd6
 252 686 l 2
 256 698 272 702 292 702 c 2
 321 702 l 2
 341 702 357 698 361 686 c 2
 598 28 l 2xb6
424 254 m 1
 319 552 l 2
 313 570 310 591 307 610 c 1
 305 610 l 1
 301 591 297 571 290 552 c 2xba
 185 254 l 1
 424 254 l 1
EndSplineSet
Position2: "'cpsp' Capital Spacing lookup 3 subtable" dx=5 dy=0 dh=10 dv=0
EndChar

StartChar: Aring
Encoding: 197 197 21
Width: 613
Flags: MW
HStem: -2 21G<40 55 55 60 540 550 550 558> 178 76<185 424 185 451 157 424> 610 92<305 305 305 307> 682 20G<292 321 321 331> 741 35<293 321 293 330.5> 875 35<293 321>
VStem: 223 35<811 839 811 848.5> 357 35<811 839>
LayerCount: 2
Fore
SplineSet
307 910 m 0xdf
 354 910 392 872 392 825 c 0
 392 778 354 741 307 741 c 0
 260 741 223 778 223 825 c 0
 223 872 260 910 307 910 c 0xdf
307 875 m 0
 279 875 258 853 258 825 c 0
 258 797 279 776 307 776 c 0
 335 776 357 797 357 825 c 0
 357 853 335 875 307 875 c 0
321 702 m 2
 341 702 357 698 361 686 c 2
 598 28 l 2
 600 23 601 19 601 15 c 0
 601 5 588 -2 558 -2 c 2
 550 -2 l 2
 530 -2 514 2 510 14 c 2
 451 178 l 1
 157 178 l 1
 100 14 l 2
 96 2 80 -2 60 -2 c 2
 55 -2 l 2
 25 -2 12 4 12 15 c 0
 12 19 13 23 15 29 c 2
 252 686 l 2
 256 698 272 702 292 702 c 2
 321 702 l 2
305 610 m 1xef
 301 591 297 571 290 552 c 2
 185 254 l 1
 424 254 l 1
 319 552 l 2
 313 570 310 591 307 610 c 1
 305 610 l 1xef
EndSplineSet
Position2: "'cpsp' Capital Spacing lookup 3 subtable" dx=5 dy=0 dh=10 dv=0
EndChar

StartChar: Aringacute
Encoding: 506 506 22
Width: 613
Flags: MW
HStem: -2 21G<40 55 55 60 540 550 550 558> 178 76<185 424 185 451 157 424> 610 49<305 307 305 305> 758 35<293 321> 822 107<282 382>
VStem: 223 35<698 722 694 731.5> 357 35<697.5 722>
LayerCount: 2
Fore
SplineSet
598 28 m 2
 600 23 601 19 601 15 c 0
 601 5 588 -2 558 -2 c 2
 550 -2 l 2
 530 -2 514 2 510 14 c 2
 451 178 l 1
 157 178 l 1
 100 14 l 2
 96 2 80 -2 60 -2 c 2
 55 -2 l 2
 25 -2 12 4 12 15 c 0
 12 19 13 23 15 29 c 2
 241 656 l 1
 230 670 223 688 223 708 c 0
 223 755 260 793 307 793 c 0
 354 793 392 755 392 708 c 0
 392 687 385 669 372 654 c 1
 598 28 l 2
307 758 m 0
 279 758 258 736 258 708 c 0
 258 680 279 659 307 659 c 0
 335 659 357 680 357 708 c 0
 357 736 335 758 307 758 c 0
424 254 m 1
 319 552 l 2
 313 570 310 591 307 610 c 1
 305 610 l 1
 301 591 297 571 290 552 c 2
 185 254 l 1
 424 254 l 1
290 822 m 0xfe
 274 822 267 825 267 832 c 1
 285 868 292 881 304 903 c 0
 315 923 334 929 366 929 c 0
 398 929 414 926 414 916 c 0
 414 909 405 904 341 840 c 0
 330 828 311 822 290 822 c 0xfe
EndSplineSet
Position2: "'cpsp' Capital Spacing lookup 3 subtable" dx=5 dy=0 dh=10 dv=0
EndChar

StartChar: Atilde
Encoding: 195 195 23
Width: 613
Flags: MW
HStem: -2 21G<40 55 55 60 540 550 550 558> 178 76<185 424 185 451 157 424> 610 92<305 305 305 307> 682 20G<292 321 321 331> 762 64<364 381.5> 792 64<233.5 251.5>
VStem: 12 589<10 17 10 17>
LayerCount: 2
Fore
SplineSet
432 849 m 0xda
 437 853 442 854 447 854 c 0
 454 854 461 850 466 845 c 0
 473 837 475 830 475 824 c 0
 475 816 471 809 464 803 c 0
 434 781 402 762 361 762 c 0xda
 324 762 305 770 288 778 c 0
 271 786 261 792 242 792 c 0
 220 792 199 781 187 773 c 0
 180 769 174 766 168 766 c 0
 160 766 153 771 146 780 c 0
 141 786 139 792 139 797 c 0
 139 805 144 811 150 816 c 0
 179 836 213 856 254 856 c 0xd6
 291 856 308 845 324 837 c 0
 338 830 354 826 374 826 c 0
 396 826 414 837 432 849 c 0xda
321 702 m 2
 341 702 357 698 361 686 c 2
 598 28 l 2
 600 23 601 19 601 15 c 0
 601 5 588 -2 558 -2 c 2
 550 -2 l 2
 530 -2 514 2 510 14 c 2
 451 178 l 1
 157 178 l 1
 100 14 l 2
 96 2 80 -2 60 -2 c 2
 55 -2 l 2
 25 -2 12 4 12 15 c 0
 12 19 13 23 15 29 c 2
 252 686 l 2
 256 698 272 702 292 702 c 2
 321 702 l 2
305 610 m 1xea
 301 591 297 571 290 552 c 2
 185 254 l 1
 424 254 l 1
 319 552 l 2
 313 570 310 591 307 610 c 1
 305 610 l 1xea
EndSplineSet
Position2: "'cpsp' Capital Spacing lookup 3 subtable" dx=5 dy=0 dh=10 dv=0
EndChar

StartChar: AE
Encoding: 198 198 24
Width: 915
Flags: MW
HStem: 0 76<505.5 803 559 803 559 803> 178 75<192 431 192 448 153 431> 320 76<506 772 506 506> 624 76<440 802 440 440>
VStem: -11 834<9.5 30>
LayerCount: 2
Fore
SplineSet
802 700 m 2
 816 700 822 691 822 670 c 2
 822 654 l 2
 822 633 816 624 802 624 c 2
 440 624 l 1
 490 396 l 1
 772 396 l 2
 786 396 792 387 792 366 c 2
 792 350 l 2
 792 329 786 320 772 320 c 2
 506 320 l 1
 559 76 l 1
 803 76 l 2
 817 76 823 67 823 46 c 2
 823 30 l 2
 823 9 817 0 803 0 c 2
 516 0 l 2
 495 0 484 9 480 29 c 2
 448 178 l 1
 153 178 l 1
 73 14 l 2
 67 3 52 -2 33 -2 c 2
 28 -2 l 2
 -2 -2 -11 4 -11 15 c 0
 -11 19 -10 25 -7 31 c 2
 314 673 l 2
 323 692 336 700 357 700 c 2
 802 700 l 2
361 610 m 1
 340 552 l 1
 192 253 l 1
 431 253 l 1
 367 552 l 1
 363 610 l 1
 361 610 l 1
EndSplineSet
Position2: "'cpsp' Capital Spacing lookup 3 subtable" dx=5 dy=0 dh=10 dv=0
EndChar

StartChar: AEacute
Encoding: 508 508 25
Width: 915
Flags: MW
HStem: 0 76<505.5 803 559 803 559 803> 178 75<192 431 192 448 153 431> 320 76<506 772 506 506> 624 76<440 802 440 440>
VStem: -11 834<9.5 30>
LayerCount: 2
Fore
SplineSet
538 909 m 0
 570 909 586 906 586 896 c 0
 586 885 576 876 492 780 c 0
 481 768 462 762 441 762 c 0
 425 762 418 765 418 772 c 0
 418 782 430 803 476 883 c 0
 487 902 506 909 538 909 c 0
802 700 m 2
 816 700 822 691 822 670 c 2
 822 654 l 2
 822 633 816 624 802 624 c 2
 440 624 l 1
 490 396 l 1
 772 396 l 2
 786 396 792 387 792 366 c 2
 792 350 l 2
 792 329 786 320 772 320 c 2
 506 320 l 1
 559 76 l 1
 803 76 l 2
 817 76 823 67 823 46 c 2
 823 30 l 2
 823 9 817 0 803 0 c 2
 516 0 l 2
 495 0 484 9 480 29 c 2
 448 178 l 1
 153 178 l 1
 73 14 l 2
 67 3 52 -2 33 -2 c 2
 28 -2 l 2
 -2 -2 -11 4 -11 15 c 0
 -11 19 -10 25 -7 31 c 2
 314 673 l 2
 323 692 336 700 357 700 c 2
 802 700 l 2
340 552 m 1
 192 253 l 1
 431 253 l 1
 367 552 l 1
 363 610 l 1
 361 610 l 1
 340 552 l 1
EndSplineSet
Position2: "'cpsp' Capital Spacing lookup 3 subtable" dx=5 dy=0 dh=10 dv=0
EndChar

StartChar: B
Encoding: 66 66 26
Width: 593
Flags: MW
HStem: 0 76<116.5 331 185 299> 322 76<185 301 185 301 301 314> 624 76<185 185 185 297>
VStem: 97 88<76 322 398 624> 439 91<489.5 552> 469 91<165.5 241.5>
LayerCount: 2
Fore
SplineSet
306 700 m 2xf8
 455 700 530 628 530 523 c 0xf8
 530 456 478 387 420 371 c 1
 420 367 l 1
 420 367 560 333 560 201 c 0xf4
 560 62 467 0 299 0 c 2
 127 0 l 2
 106 0 97 9 97 30 c 2
 97 670 l 2
 97 691 106 700 127 700 c 2
 306 700 l 2xf8
185 624 m 1
 185 398 l 1
 301 398 l 2
 382 398 439 450 439 515 c 0
 439 589 397 624 297 624 c 2
 185 624 l 1
185 322 m 1
 185 76 l 1
 331 76 l 2
 420 76 469 126 469 205 c 0xf4
 469 278 417 322 314 322 c 2
 185 322 l 1
EndSplineSet
Position2: "'cpsp' Capital Spacing lookup 3 subtable" dx=5 dy=0 dh=10 dv=0
EndChar

StartChar: C
Encoding: 67 67 27
Width: 619
Flags: MW
HStem: -6 76<300.5 430.5 300.5 437.5> 630 76<303 430.5 274 431>
VStem: 57 91<253 447.5 253 469.5>
LayerCount: 2
Fore
SplineSet
381 706 m 0
 480 706 572 671 572 644 c 0
 572 627 551 586 538 586 c 0
 527 586 479 630 383 630 c 0
 223 630 148 546 148 349 c 0
 148 157 222 70 379 70 c 0
 482 70 538 120 551 120 c 0
 564 120 586 78 586 66 c 0
 586 39 496 -6 379 -6 c 0
 160 -6 57 106 57 350 c 0
 57 589 167 706 381 706 c 0
EndSplineSet
Position2: "'cpsp' Capital Spacing lookup 3 subtable" dx=5 dy=0 dh=10 dv=0
EndChar

StartChar: Cacute
Encoding: 262 262 28
Width: 619
Flags: MW
HStem: -6 76<300.5 430.5 300.5 437.5> 630 76<303 430.5 274 431>
VStem: 57 91<253 447.5 253 469.5>
LayerCount: 2
Fore
SplineSet
435 909 m 0
 467 909 483 906 483 896 c 0
 483 885 473 876 389 780 c 0
 378 768 359 762 338 762 c 0
 322 762 315 765 315 772 c 0
 315 782 327 803 373 883 c 0
 384 902 403 909 435 909 c 0
381 706 m 0
 480 706 572 671 572 644 c 0
 572 627 551 586 538 586 c 0
 527 586 479 630 383 630 c 0
 223 630 148 546 148 349 c 0
 148 157 222 70 379 70 c 0
 482 70 538 120 551 120 c 0
 564 120 586 78 586 66 c 0
 586 39 496 -6 379 -6 c 0
 160 -6 57 106 57 350 c 0
 57 589 167 706 381 706 c 0
EndSplineSet
Substitution2: "'locl' Localized Forms in Latin lookup 12 subtable" Cacute.loclPLK
Substitution2: "'aalt' Access All Alternates lookup 0 subtable" Cacute.loclPLK
Position2: "'cpsp' Capital Spacing lookup 3 subtable" dx=5 dy=0 dh=10 dv=0
EndChar

StartChar: Ccaron
Encoding: 268 268 29
Width: 619
Flags: MW
HStem: -6 76<300.5 430.5 300.5 437.5> 630 76<303 430.5 274 431> 759 142<257 342 257 367>
VStem: 57 91<253 447.5 253 469.5>
LayerCount: 2
Fore
SplineSet
452 901 m 2
 468 901 476 895 476 886 c 0
 476 881 474 875 470 869 c 2
 413 781 l 2
 403 766 387 759 367 759 c 2
 342 759 l 2
 322 759 306 766 296 781 c 2
 240 869 l 2
 236 876 234 882 234 887 c 0
 234 896 242 901 257 901 c 2
 259 901 l 2
 273 901 283 897 293 888 c 1
 354 814 l 1
 417 888 l 1
 427 897 437 901 450 901 c 2
 452 901 l 2
381 706 m 0
 480 706 572 671 572 644 c 0
 572 627 551 586 538 586 c 0
 527 586 479 630 383 630 c 0
 223 630 148 546 148 349 c 0
 148 157 222 70 379 70 c 0
 482 70 538 120 551 120 c 0
 564 120 586 78 586 66 c 0
 586 39 496 -6 379 -6 c 0
 160 -6 57 106 57 350 c 0
 57 589 167 706 381 706 c 0
EndSplineSet
Position2: "'cpsp' Capital Spacing lookup 3 subtable" dx=5 dy=0 dh=10 dv=0
EndChar

StartChar: Ccedilla
Encoding: 199 199 30
Width: 619
Flags: MW
HStem: -210 49<322.5 344 313 370> -6 76<383 383> -5 75 630 76<303 430.5 274 431>
VStem: 57 91<253 447.5 253 469.5> 389 71<-141.5 -103.5>
LayerCount: 2
Fore
SplineSet
375 -49 m 2xdc
 397 -49 460 -56 460 -121 c 0
 460 -199 395 -210 345 -210 c 0
 300 -210 230 -194 230 -167 c 0
 230 -155 234 -141 249 -141 c 0
 265 -141 294 -161 332 -161 c 0
 356 -161 389 -157 389 -126 c 0
 389 -81 323 -95 323 -68 c 0
 323 -60 325 -53 340 -5 c 1xbc
 148 8 57 121 57 350 c 0
 57 589 167 706 381 706 c 0
 480 706 572 671 572 644 c 0
 572 627 551 586 538 586 c 0
 527 586 479 630 383 630 c 0
 223 630 148 546 148 349 c 0
 148 157 222 70 379 70 c 0
 482 70 538 120 551 120 c 0
 564 120 586 78 586 66 c 0
 586 39 498 -5 383 -6 c 1
 371 -49 l 1
 375 -49 l 2xdc
EndSplineSet
Position2: "'cpsp' Capital Spacing lookup 3 subtable" dx=5 dy=0 dh=10 dv=0
EndChar

StartChar: Ccircumflex
Encoding: 264 264 31
Width: 619
Flags: MW
HStem: -6 76<300.5 430.5 300.5 437.5> 630 76<303 430.5 274 431> 753 142<249.5 367 257 367 342 450 342 452>
VStem: 57 91<253 447.5 253 469.5>
LayerCount: 2
Fore
SplineSet
367 895 m 2
 387 895 403 888 413 873 c 2
 470 785 l 2
 474 779 476 773 476 768 c 0
 476 759 468 753 452 753 c 2
 450 753 l 2
 437 753 427 757 417 766 c 1
 354 840 l 1
 293 766 l 1
 283 757 273 753 259 753 c 2
 257 753 l 2
 242 753 234 758 234 767 c 0
 234 772 236 778 240 785 c 2
 296 873 l 2
 306 888 322 895 342 895 c 2
 367 895 l 2
381 706 m 0
 480 706 572 671 572 644 c 0
 572 627 551 586 538 586 c 0
 527 586 479 630 383 630 c 0
 223 630 148 546 148 349 c 0
 148 157 222 70 379 70 c 0
 482 70 538 120 551 120 c 0
 564 120 586 78 586 66 c 0
 586 39 496 -6 379 -6 c 0
 160 -6 57 106 57 350 c 0
 57 589 167 706 381 706 c 0
EndSplineSet
Position2: "'cpsp' Capital Spacing lookup 3 subtable" dx=5 dy=0 dh=10 dv=0
EndChar

StartChar: Cdotaccent
Encoding: 266 266 32
Width: 619
Flags: MW
HStem: -6 76<300.5 430.5 300.5 437.5> 630 76<303 430.5 274 431> 784 95<341 369>
VStem: 57 91<253 447.5 253 469.5> 313 84<806 857 799.5 863.5>
LayerCount: 2
Fore
SplineSet
313 857 m 2
 313 870 325 879 357 879 c 0
 385 879 397 871 397 857 c 2
 397 806 l 2
 397 793 385 784 353 784 c 0
 325 784 313 792 313 806 c 2
 313 857 l 2
381 706 m 0
 480 706 572 671 572 644 c 0
 572 627 551 586 538 586 c 0
 527 586 479 630 383 630 c 0
 223 630 148 546 148 349 c 0
 148 157 222 70 379 70 c 0
 482 70 538 120 551 120 c 0
 564 120 586 78 586 66 c 0
 586 39 496 -6 379 -6 c 0
 160 -6 57 106 57 350 c 0
 57 589 167 706 381 706 c 0
EndSplineSet
Position2: "'cpsp' Capital Spacing lookup 3 subtable" dx=5 dy=0 dh=10 dv=0
EndChar

StartChar: D
Encoding: 68 68 33
Width: 695
Flags: MW
HStem: 0 76<116.5 322 185 322 322 329> 624 76<185 185 185 322>
VStem: 97 88<76 624 76 670 76 680.5> 547 91<250 449.5>
LayerCount: 2
Fore
SplineSet
329 700 m 2
 501 700 638 609 638 350 c 0
 638 90 501 0 329 0 c 2
 127 0 l 2
 106 0 97 9 97 30 c 2
 97 670 l 2
 97 691 106 700 127 700 c 2
 329 700 l 2
185 624 m 1
 185 76 l 1
 322 76 l 2
 447 76 547 150 547 350 c 0
 547 549 447 624 322 624 c 2
 185 624 l 1
EndSplineSet
Position2: "'cpsp' Capital Spacing lookup 3 subtable" dx=5 dy=0 dh=10 dv=0
EndChar

StartChar: DZ
Encoding: 497 497 34
Width: 1311
Flags: MW
HStem: 0 76<116.5 322 185 322 322 329 853 1244> 624 76<185 322 185 185 786 1146>
VStem: 97 88<76 76 76 624> 547 91<250 449.5>
LayerCount: 2
Fore
SplineSet
329 700 m 2
 501 700 638 609 638 350 c 0
 638 90 501 0 329 0 c 2
 127 0 l 2
 106 0 97 9 97 30 c 2
 97 670 l 2
 97 691 106 700 127 700 c 2
 329 700 l 2
1244 700 m 2
 1251 700 1266 668 1266 647 c 0
 1266 642 1265 638 1263 635 c 2
 853 76 l 1
 1244 76 l 2
 1258 76 1264 66 1264 42 c 2
 1264 34 l 2
 1264 10 1258 0 1244 0 c 2
 757 0 l 2
 747 0 733 33 733 53 c 0
 733 58 734 62 736 65 c 2
 1146 624 l 1
 786 624 l 2
 772 624 766 634 766 658 c 2
 766 666 l 2
 766 690 772 700 786 700 c 2
 1244 700 l 2
185 76 m 1
 322 76 l 2
 447 76 547 150 547 350 c 0
 547 549 447 624 322 624 c 2
 185 624 l 1
 185 76 l 1
EndSplineSet
Position2: "'cpsp' Capital Spacing lookup 3 subtable" dx=5 dy=0 dh=10 dv=0
EndChar

StartChar: DZcaron
Encoding: 452 452 35
Width: 1311
Flags: MW
HStem: 0 76<116.5 322 185 322 322 329 853 1244> 624 76<185 322 185 185 786 1146> 759 142<905 990 905 1015>
VStem: 97 88<76 76 76 624> 547 91<250 449.5>
LayerCount: 2
Fore
SplineSet
329 700 m 2
 501 700 638 609 638 350 c 0
 638 90 501 0 329 0 c 2
 127 0 l 2
 106 0 97 9 97 30 c 2
 97 670 l 2
 97 691 106 700 127 700 c 2
 329 700 l 2
185 76 m 1
 322 76 l 2
 447 76 547 150 547 350 c 0
 547 549 447 624 322 624 c 2
 185 624 l 1
 185 76 l 1
1100 901 m 2
 1116 901 1124 895 1124 886 c 0
 1124 881 1122 875 1118 869 c 2
 1061 781 l 2
 1051 766 1035 759 1015 759 c 2
 990 759 l 2
 970 759 954 766 944 781 c 2
 888 869 l 2
 884 876 882 882 882 887 c 0
 882 896 890 901 905 901 c 2
 907 901 l 2
 921 901 931 897 941 888 c 1
 1002 814 l 1
 1065 888 l 1
 1075 897 1085 901 1098 901 c 2
 1100 901 l 2
1244 700 m 2
 1251 700 1266 668 1266 647 c 0
 1266 642 1265 638 1263 635 c 2
 853 76 l 1
 1244 76 l 2
 1258 76 1264 66 1264 42 c 2
 1264 34 l 2
 1264 10 1258 0 1244 0 c 2
 757 0 l 2
 747 0 733 33 733 53 c 0
 733 58 734 62 736 65 c 2
 1146 624 l 1
 786 624 l 2
 772 624 766 634 766 658 c 2
 766 666 l 2
 766 690 772 700 786 700 c 2
 1244 700 l 2
EndSplineSet
Position2: "'cpsp' Capital Spacing lookup 3 subtable" dx=5 dy=0 dh=10 dv=0
EndChar

StartChar: Eth
Encoding: 208 208 36
Width: 696
Flags: MW
HStem: 0 76<104.5 323 173 323 323 330> 320 76<13 85 20 85 173 283> 624 76<173 173 173 323>
VStem: 85 88<76 320 76 320 76 320 396 624> 550 91<250 449.5>
LayerCount: 2
Fore
SplineSet
330 700 m 2
 502 700 641 609 641 350 c 0
 641 90 502 0 330 0 c 2
 115 0 l 2
 94 0 85 9 85 30 c 2
 85 320 l 1
 20 320 l 2
 6 320 0 329 0 350 c 2
 0 366 l 2
 0 387 6 396 20 396 c 2
 85 396 l 1
 85 670 l 2
 85 691 94 700 115 700 c 2
 330 700 l 2
173 624 m 1
 173 396 l 1
 283 396 l 2
 297 396 303 387 303 366 c 2
 303 350 l 2
 303 329 297 320 283 320 c 2
 173 320 l 1
 173 76 l 1
 323 76 l 2
 448 76 550 150 550 350 c 0
 550 549 448 624 323 624 c 2
 173 624 l 1
EndSplineSet
Position2: "'cpsp' Capital Spacing lookup 3 subtable" dx=5 dy=0 dh=10 dv=0
EndChar

StartChar: Dcaron
Encoding: 270 270 37
Width: 695
Flags: MW
HStem: 0 76<116.5 322 185 322 322 329> 624 76<185 322 185 185> 759 142<214 299 214 324>
VStem: 97 88<76 76 76 624> 547 91<250 449.5>
LayerCount: 2
Fore
SplineSet
409 901 m 2
 425 901 433 895 433 886 c 0
 433 881 431 875 427 869 c 2
 370 781 l 2
 360 766 344 759 324 759 c 2
 299 759 l 2
 279 759 263 766 253 781 c 2
 197 869 l 2
 193 876 191 882 191 887 c 0
 191 896 199 901 214 901 c 2
 216 901 l 2
 230 901 240 897 250 888 c 1
 311 814 l 1
 374 888 l 1
 384 897 394 901 407 901 c 2
 409 901 l 2
329 700 m 2
 501 700 638 609 638 350 c 0
 638 90 501 0 329 0 c 2
 127 0 l 2
 106 0 97 9 97 30 c 2
 97 670 l 2
 97 691 106 700 127 700 c 2
 329 700 l 2
185 76 m 1
 322 76 l 2
 447 76 547 150 547 350 c 0
 547 549 447 624 322 624 c 2
 185 624 l 1
 185 76 l 1
EndSplineSet
Position2: "'cpsp' Capital Spacing lookup 3 subtable" dx=5 dy=0 dh=10 dv=0
EndChar

StartChar: Dcroat
Encoding: 272 272 38
Width: 696
Flags: MW
HStem: 0 76<104.5 323 173 323 323 330> 320 76<13 85 20 85 173 283> 624 76<173 323 173 173>
VStem: 85 88<76 320 76 320 76 320 396 624> 550 91<250 449.5>
LayerCount: 2
Fore
SplineSet
330 700 m 2
 502 700 641 609 641 350 c 0
 641 90 502 0 330 0 c 2
 115 0 l 2
 94 0 85 9 85 30 c 2
 85 320 l 1
 20 320 l 2
 6 320 0 329 0 350 c 2
 0 366 l 2
 0 387 6 396 20 396 c 2
 85 396 l 1
 85 670 l 2
 85 691 94 700 115 700 c 2
 330 700 l 2
173 396 m 1
 283 396 l 2
 297 396 303 387 303 366 c 2
 303 350 l 2
 303 329 297 320 283 320 c 2
 173 320 l 1
 173 76 l 1
 323 76 l 2
 448 76 550 150 550 350 c 0
 550 549 448 624 323 624 c 2
 173 624 l 1
 173 396 l 1
EndSplineSet
Position2: "'cpsp' Capital Spacing lookup 3 subtable" dx=5 dy=0 dh=10 dv=0
EndChar

StartChar: Ddotbelow
Encoding: 7692 7692 39
Width: 695
Flags: MW
HStem: -175 95<315 343> 0 76<116.5 322 185 322 322 329> 624 76<185 322 185 185>
VStem: 97 88<76 76 76 624> 287 84<-153 -102 -159.5 -95.5> 547 91<250 449.5>
LayerCount: 2
Fore
SplineSet
329 700 m 2
 501 700 638 609 638 350 c 0
 638 90 501 0 329 0 c 2
 127 0 l 2
 106 0 97 9 97 30 c 2
 97 670 l 2
 97 691 106 700 127 700 c 2
 329 700 l 2
185 76 m 1
 322 76 l 2
 447 76 547 150 547 350 c 0
 547 549 447 624 322 624 c 2
 185 624 l 1
 185 76 l 1
287 -102 m 2
 287 -89 299 -80 331 -80 c 0
 359 -80 371 -88 371 -102 c 2
 371 -153 l 2
 371 -166 359 -175 327 -175 c 0
 299 -175 287 -167 287 -153 c 2
 287 -102 l 2
EndSplineSet
Position2: "'cpsp' Capital Spacing lookup 3 subtable" dx=5 dy=0 dh=10 dv=0
EndChar

StartChar: Dz
Encoding: 498 498 40
Width: 1184
Flags: MW
HStem: 0 72<849 1124 849 1124> 0 76<116.5 322 185 322 322 329> 451 72<765 1123 772 1028> 624 76<185 322 185 185>
VStem: 97 88<76 76 76 624> 547 91<250 449.5>
LayerCount: 2
Fore
SplineSet
329 700 m 2xbc
 501 700 638 609 638 350 c 0
 638 90 501 0 329 0 c 2
 127 0 l 2
 106 0 97 9 97 30 c 2
 97 670 l 2
 97 691 106 700 127 700 c 2
 329 700 l 2xbc
185 76 m 1x7c
 322 76 l 2
 447 76 547 150 547 350 c 0
 547 549 447 624 322 624 c 2
 185 624 l 1
 185 76 l 1x7c
1123 523 m 2
 1133 523 1143 489 1143 471 c 0
 1143 466 1142 463 1141 461 c 2
 849 72 l 1
 1124 72 l 2
 1138 72 1144 63 1144 42 c 2
 1144 30 l 2
 1144 9 1138 0 1124 0 c 2
 754 0 l 2
 746 0 732 31 732 51 c 0
 732 55 733 59 735 62 c 2xbc
 1028 451 l 1
 772 451 l 2
 758 451 752 460 752 481 c 2
 752 493 l 2
 752 514 758 523 772 523 c 2
 1123 523 l 2
EndSplineSet
Position2: "'cpsp' Capital Spacing lookup 3 subtable" dx=5 dy=0 dh=10 dv=0
EndChar

StartChar: Dzcaron
Encoding: 453 453 41
Width: 1184
Flags: MW
HStem: 0 72<849 1124 849 1124> 0 76<116.5 322 185 322 322 329> 451 72<765 1123 772 1028> 624 76<185 322 185 185>
VStem: 97 88<76 76 76 624> 547 91<250 449.5>
LayerCount: 2
Fore
SplineSet
329 700 m 2xbc
 501 700 638 609 638 350 c 0
 638 90 501 0 329 0 c 2
 127 0 l 2
 106 0 97 9 97 30 c 2
 97 670 l 2
 97 691 106 700 127 700 c 2
 329 700 l 2xbc
185 76 m 1x7c
 322 76 l 2
 447 76 547 150 547 350 c 0
 547 549 447 624 322 624 c 2
 185 624 l 1
 185 76 l 1x7c
1123 523 m 2
 1133 523 1143 489 1143 471 c 0
 1143 466 1142 463 1141 461 c 2
 849 72 l 1
 1124 72 l 2
 1138 72 1144 63 1144 42 c 2
 1144 30 l 2
 1144 9 1138 0 1124 0 c 2
 754 0 l 2
 746 0 732 31 732 51 c 0
 732 55 733 59 735 62 c 2xbc
 1028 451 l 1
 772 451 l 2
 758 451 752 460 752 481 c 2
 752 493 l 2
 752 514 758 523 772 523 c 2
 1123 523 l 2
1037 724 m 2
 1053 724 1061 718 1061 709 c 0
 1061 704 1059 698 1055 692 c 2
 998 604 l 2
 988 589 972 582 952 582 c 2
 927 582 l 2
 907 582 891 589 881 604 c 2
 825 692 l 2
 821 699 819 705 819 710 c 0
 819 719 827 724 842 724 c 2
 844 724 l 2
 858 724 868 720 878 711 c 1
 939 637 l 1
 1002 711 l 1
 1012 720 1022 724 1035 724 c 2
 1037 724 l 2
EndSplineSet
Position2: "'cpsp' Capital Spacing lookup 3 subtable" dx=5 dy=0 dh=10 dv=0
EndChar

StartChar: E
Encoding: 69 69 42
Width: 546
Flags: MW
HStem: 0 76<116.5 477 185 477 185 477> 320 76<185 446 185 446> 624 76<185 476 185 185>
VStem: 97 88<76 320 396 624>
LayerCount: 2
Fore
SplineSet
476 700 m 2
 490 700 496 691 496 670 c 2
 496 654 l 2
 496 633 490 624 476 624 c 2
 185 624 l 1
 185 396 l 1
 446 396 l 2
 460 396 466 387 466 366 c 2
 466 350 l 2
 466 329 460 320 446 320 c 2
 185 320 l 1
 185 76 l 1
 477 76 l 2
 491 76 497 67 497 46 c 2
 497 30 l 2
 497 9 491 0 477 0 c 2
 127 0 l 2
 106 0 97 9 97 30 c 2
 97 670 l 2
 97 691 106 700 127 700 c 2
 476 700 l 2
EndSplineSet
Position2: "'cpsp' Capital Spacing lookup 3 subtable" dx=5 dy=0 dh=10 dv=0
EndChar

StartChar: Eacute
Encoding: 201 201 43
Width: 546
Flags: MW
HStem: 0 76<116.5 477 185 477 185 477> 320 76<185 446 185 446> 624 76<185 476 185 185>
VStem: 97 88<76 320 396 624>
LayerCount: 2
Fore
SplineSet
376 909 m 0
 408 909 424 906 424 896 c 0
 424 885 414 876 330 780 c 0
 319 768 300 762 279 762 c 0
 263 762 256 765 256 772 c 0
 256 782 268 803 314 883 c 0
 325 902 344 909 376 909 c 0
476 700 m 2
 490 700 496 691 496 670 c 2
 496 654 l 2
 496 633 490 624 476 624 c 2
 185 624 l 1
 185 396 l 1
 446 396 l 2
 460 396 466 387 466 366 c 2
 466 350 l 2
 466 329 460 320 446 320 c 2
 185 320 l 1
 185 76 l 1
 477 76 l 2
 491 76 497 67 497 46 c 2
 497 30 l 2
 497 9 491 0 477 0 c 2
 127 0 l 2
 106 0 97 9 97 30 c 2
 97 670 l 2
 97 691 106 700 127 700 c 2
 476 700 l 2
EndSplineSet
Position2: "'cpsp' Capital Spacing lookup 3 subtable" dx=5 dy=0 dh=10 dv=0
EndChar

StartChar: Ebreve
Encoding: 276 276 44
Width: 546
Flags: MW
HStem: 0 76<116.5 477 185 477 185 477> 320 76<185 446 185 446> 624 76<185 476 185 185> 762 66<272.5 321.5 272.5 332.5>
VStem: 97 88<76 320 396 624>
LayerCount: 2
Fore
SplineSet
426 892 m 0
 437 892 441 887 441 877 c 0
 441 800 368 762 297 762 c 0
 225 762 152 800 152 877 c 0
 152 887 156 892 167 892 c 0
 184 892 181 883 189 867 c 0
 204 839 248 828 297 828 c 0
 346 828 389 839 404 867 c 0
 412 883 409 892 426 892 c 0
476 700 m 2
 490 700 496 691 496 670 c 2
 496 654 l 2
 496 633 490 624 476 624 c 2
 185 624 l 1
 185 396 l 1
 446 396 l 2
 460 396 466 387 466 366 c 2
 466 350 l 2
 466 329 460 320 446 320 c 2
 185 320 l 1
 185 76 l 1
 477 76 l 2
 491 76 497 67 497 46 c 2
 497 30 l 2
 497 9 491 0 477 0 c 2
 127 0 l 2
 106 0 97 9 97 30 c 2
 97 670 l 2
 97 691 106 700 127 700 c 2
 476 700 l 2
EndSplineSet
Position2: "'cpsp' Capital Spacing lookup 3 subtable" dx=5 dy=0 dh=10 dv=0
EndChar

StartChar: Ecaron
Encoding: 282 282 45
Width: 546
Flags: MW
HStem: 0 76<116.5 477 185 477 185 477> 320 76<185 446 185 446> 624 76<185 476 185 185> 759 142<198 283 198 308>
VStem: 97 88<76 320 396 624>
LayerCount: 2
Fore
SplineSet
393 901 m 2
 409 901 417 895 417 886 c 0
 417 881 415 875 411 869 c 2
 354 781 l 2
 344 766 328 759 308 759 c 2
 283 759 l 2
 263 759 247 766 237 781 c 2
 181 869 l 2
 177 876 175 882 175 887 c 0
 175 896 183 901 198 901 c 2
 200 901 l 2
 214 901 224 897 234 888 c 1
 295 814 l 1
 358 888 l 1
 368 897 378 901 391 901 c 2
 393 901 l 2
476 700 m 2
 490 700 496 691 496 670 c 2
 496 654 l 2
 496 633 490 624 476 624 c 2
 185 624 l 1
 185 396 l 1
 446 396 l 2
 460 396 466 387 466 366 c 2
 466 350 l 2
 466 329 460 320 446 320 c 2
 185 320 l 1
 185 76 l 1
 477 76 l 2
 491 76 497 67 497 46 c 2
 497 30 l 2
 497 9 491 0 477 0 c 2
 127 0 l 2
 106 0 97 9 97 30 c 2
 97 670 l 2
 97 691 106 700 127 700 c 2
 476 700 l 2
EndSplineSet
Position2: "'cpsp' Capital Spacing lookup 3 subtable" dx=5 dy=0 dh=10 dv=0
EndChar

StartChar: Ecircumflex
Encoding: 202 202 46
Width: 546
Flags: MW
HStem: 0 76<116.5 477 185 477 185 477> 320 76<185 446 185 446> 624 76<185 476 185 185> 753 142<190.5 308 198 308 283 391 283 393>
VStem: 97 88<76 320 396 624>
LayerCount: 2
Fore
SplineSet
308 895 m 2
 328 895 344 888 354 873 c 2
 411 785 l 2
 415 779 417 773 417 768 c 0
 417 759 409 753 393 753 c 2
 391 753 l 2
 378 753 368 757 358 766 c 1
 295 840 l 1
 234 766 l 1
 224 757 214 753 200 753 c 2
 198 753 l 2
 183 753 175 758 175 767 c 0
 175 772 177 778 181 785 c 2
 237 873 l 2
 247 888 263 895 283 895 c 2
 308 895 l 2
476 700 m 2
 490 700 496 691 496 670 c 2
 496 654 l 2
 496 633 490 624 476 624 c 2
 185 624 l 1
 185 396 l 1
 446 396 l 2
 460 396 466 387 466 366 c 2
 466 350 l 2
 466 329 460 320 446 320 c 2
 185 320 l 1
 185 76 l 1
 477 76 l 2
 491 76 497 67 497 46 c 2
 497 30 l 2
 497 9 491 0 477 0 c 2
 127 0 l 2
 106 0 97 9 97 30 c 2
 97 670 l 2
 97 691 106 700 127 700 c 2
 476 700 l 2
EndSplineSet
Position2: "'cpsp' Capital Spacing lookup 3 subtable" dx=5 dy=0 dh=10 dv=0
EndChar

StartChar: Ecircumflexacute
Encoding: 7870 7870 47
Width: 546
Flags: MW
HStem: 0 76<116.5 477 185 477 185 477> 320 76<185 446 185 446> 624 76<185 476 185 185>
VStem: 97 88<76 320 396 624>
LayerCount: 2
Fore
SplineSet
506 961 m 0
 528 961 537 958 537 948 c 0
 537 938 529 930 463 842 c 0
 454 830 444 824 427 824 c 0
 411 824 404 827 404 834 c 0
 404 843 414 862 452 935 c 0
 463 954 482 961 506 961 c 0
312 895 m 2
 328 895 340 886 348 873 c 2
 400 785 l 2
 404 779 406 773 406 768 c 0
 406 759 398 753 382 753 c 2
 380 753 l 2
 367 753 353 757 347 766 c 2
 299 840 l 1
 238 766 l 1
 228 757 218 753 204 753 c 2
 202 753 l 2
 187 753 179 758 179 767 c 0
 179 772 181 778 185 785 c 2
 241 873 l 2
 251 888 267 895 287 895 c 2
 312 895 l 2
476 700 m 2
 490 700 496 691 496 670 c 2
 496 654 l 2
 496 633 490 624 476 624 c 2
 185 624 l 1
 185 396 l 1
 446 396 l 2
 460 396 466 387 466 366 c 2
 466 350 l 2
 466 329 460 320 446 320 c 2
 185 320 l 1
 185 76 l 1
 477 76 l 2
 491 76 497 67 497 46 c 2
 497 30 l 2
 497 9 491 0 477 0 c 2
 127 0 l 2
 106 0 97 9 97 30 c 2
 97 670 l 2
 97 691 106 700 127 700 c 2
 476 700 l 2
EndSplineSet
Position2: "'cpsp' Capital Spacing lookup 3 subtable" dx=5 dy=0 dh=10 dv=0
EndChar

StartChar: Ecircumflexdotbelow
Encoding: 7878 7878 48
Width: 546
Flags: MW
HStem: -175 95<288 316> 0 76<116.5 477 185 477 185 477> 320 76<185 446 185 446> 624 76<185 476 185 185> 753 142<190.5 308 198 308 283 391 283 393>
VStem: 97 88<76 320 396 624> 260 84<-153 -102 -159.5 -95.5>
LayerCount: 2
Fore
SplineSet
308 895 m 2
 328 895 344 888 354 873 c 2
 411 785 l 2
 415 779 417 773 417 768 c 0
 417 759 409 753 393 753 c 2
 391 753 l 2
 378 753 368 757 358 766 c 1
 295 840 l 1
 234 766 l 1
 224 757 214 753 200 753 c 2
 198 753 l 2
 183 753 175 758 175 767 c 0
 175 772 177 778 181 785 c 2
 237 873 l 2
 247 888 263 895 283 895 c 2
 308 895 l 2
476 700 m 2
 490 700 496 691 496 670 c 2
 496 654 l 2
 496 633 490 624 476 624 c 2
 185 624 l 1
 185 396 l 1
 446 396 l 2
 460 396 466 387 466 366 c 2
 466 350 l 2
 466 329 460 320 446 320 c 2
 185 320 l 1
 185 76 l 1
 477 76 l 2
 491 76 497 67 497 46 c 2
 497 30 l 2
 497 9 491 0 477 0 c 2
 127 0 l 2
 106 0 97 9 97 30 c 2
 97 670 l 2
 97 691 106 700 127 700 c 2
 476 700 l 2
260 -102 m 2
 260 -89 272 -80 304 -80 c 0
 332 -80 344 -88 344 -102 c 2
 344 -153 l 2
 344 -166 332 -175 300 -175 c 0
 272 -175 260 -167 260 -153 c 2
 260 -102 l 2
EndSplineSet
Position2: "'cpsp' Capital Spacing lookup 3 subtable" dx=5 dy=0 dh=10 dv=0
EndChar

StartChar: Ecircumflexgrave
Encoding: 7872 7872 49
Width: 546
Flags: MW
HStem: 0 76<116.5 477 185 477 185 477> 320 76<185 446 185 446> 624 76<185 476 185 185>
VStem: 97 88<76 320 396 624>
LayerCount: 2
Fore
SplineSet
392 961 m 0
 412 961 434 954 442 935 c 0
 473 862 480 843 480 834 c 0
 480 827 473 824 457 824 c 0
 444 824 429 830 421 842 c 0
 365 930 357 938 357 948 c 0
 357 958 364 961 392 961 c 0
312 895 m 2
 328 895 340 886 348 873 c 2
 400 785 l 2
 404 779 406 773 406 768 c 0
 406 759 398 753 382 753 c 2
 380 753 l 2
 367 753 353 757 347 766 c 2
 299 840 l 1
 238 766 l 1
 228 757 218 753 204 753 c 2
 202 753 l 2
 187 753 179 758 179 767 c 0
 179 772 181 778 185 785 c 2
 241 873 l 2
 251 888 267 895 287 895 c 2
 312 895 l 2
476 700 m 2
 490 700 496 691 496 670 c 2
 496 654 l 2
 496 633 490 624 476 624 c 2
 185 624 l 1
 185 396 l 1
 446 396 l 2
 460 396 466 387 466 366 c 2
 466 350 l 2
 466 329 460 320 446 320 c 2
 185 320 l 1
 185 76 l 1
 477 76 l 2
 491 76 497 67 497 46 c 2
 497 30 l 2
 497 9 491 0 477 0 c 2
 127 0 l 2
 106 0 97 9 97 30 c 2
 97 670 l 2
 97 691 106 700 127 700 c 2
 476 700 l 2
EndSplineSet
Position2: "'cpsp' Capital Spacing lookup 3 subtable" dx=5 dy=0 dh=10 dv=0
EndChar

StartChar: Ecircumflexhookabove
Encoding: 7874 7874 50
Width: 546
Flags: MW
HStem: 0 76<116.5 477 185 477 185 477> 320 76<185 446 185 446> 624 76<185 476 185 185> 931 48<413.5 433>
VStem: 97 88<76 320 396 624> 460 57<897 913>
LayerCount: 2
Fore
SplineSet
460 904 m 0
 460 922 443 931 423 931 c 0
 392 931 382 918 377 918 c 0
 369 918 353 941 353 951 c 0
 353 964 396 979 431 979 c 0
 465 979 517 963 517 911 c 0
 517 880 499 861 482 847 c 0
 468 835 447 825 441 825 c 0
 420 825 404 836 404 845 c 0
 404 853 413 858 429 867 c 0
 449 878 460 890 460 904 c 0
312 895 m 2
 328 895 340 886 348 873 c 2
 400 785 l 2
 404 779 406 773 406 768 c 0
 406 759 398 753 382 753 c 2
 380 753 l 2
 367 753 353 757 347 766 c 2
 299 840 l 1
 238 766 l 1
 228 757 218 753 204 753 c 2
 202 753 l 2
 187 753 179 758 179 767 c 0
 179 772 181 778 185 785 c 2
 241 873 l 2
 251 888 267 895 287 895 c 2
 312 895 l 2
476 700 m 2
 490 700 496 691 496 670 c 2
 496 654 l 2
 496 633 490 624 476 624 c 2
 185 624 l 1
 185 396 l 1
 446 396 l 2
 460 396 466 387 466 366 c 2
 466 350 l 2
 466 329 460 320 446 320 c 2
 185 320 l 1
 185 76 l 1
 477 76 l 2
 491 76 497 67 497 46 c 2
 497 30 l 2
 497 9 491 0 477 0 c 2
 127 0 l 2
 106 0 97 9 97 30 c 2
 97 670 l 2
 97 691 106 700 127 700 c 2
 476 700 l 2
EndSplineSet
Position2: "'cpsp' Capital Spacing lookup 3 subtable" dx=5 dy=0 dh=10 dv=0
EndChar

StartChar: Ecircumflextilde
Encoding: 7876 7876 51
Width: 546
Flags: MW
HStem: 0 76<116.5 477 185 477 185 477> 320 76<185 446 185 446> 624 76<185 476 185 185> 903 64<344 360.5> 933 64<225.5 242>
VStem: 97 88<76 320 396 624>
LayerCount: 2
Fore
SplineSet
406 990 m 0xf4
 411 994 415 995 420 995 c 0
 427 995 433 991 437 986 c 0
 443 978 446 971 446 965 c 0
 446 957 441 950 435 944 c 0
 408 922 379 903 342 903 c 0xf4
 308 903 291 911 275 919 c 0
 260 927 251 933 233 933 c 0
 213 933 194 922 183 914 c 0
 177 910 171 907 166 907 c 0
 159 907 152 912 146 921 c 0
 142 927 140 933 140 938 c 0
 140 946 144 952 150 957 c 0
 176 977 207 997 244 997 c 0xec
 278 997 293 986 308 978 c 0
 321 971 335 967 353 967 c 0
 373 967 390 978 406 990 c 0xf4
308 871 m 2
 328 871 341 862 354 849 c 1
 411 785 l 1
 415 779 417 773 417 768 c 0
 417 759 409 753 393 753 c 2
 391 753 l 2
 378 753 369 759 358 766 c 1
 295 816 l 1
 234 766 l 2
 224 759 214 753 200 753 c 2
 198 753 l 2
 183 753 175 758 175 767 c 0
 175 772 177 778 181 785 c 1
 237 849 l 1
 251 862 263 871 283 871 c 2
 308 871 l 2
476 700 m 2
 490 700 496 691 496 670 c 2
 496 654 l 2
 496 633 490 624 476 624 c 2
 185 624 l 1
 185 396 l 1
 446 396 l 2
 460 396 466 387 466 366 c 2
 466 350 l 2
 466 329 460 320 446 320 c 2
 185 320 l 1
 185 76 l 1
 477 76 l 2
 491 76 497 67 497 46 c 2
 497 30 l 2
 497 9 491 0 477 0 c 2
 127 0 l 2
 106 0 97 9 97 30 c 2
 97 670 l 2
 97 691 106 700 127 700 c 2
 476 700 l 2
EndSplineSet
Position2: "'cpsp' Capital Spacing lookup 3 subtable" dx=5 dy=0 dh=10 dv=0
EndChar

StartChar: Edieresis
Encoding: 203 203 52
Width: 546
Flags: MW
HStem: 0 76<116.5 477 185 477 185 477> 320 76<185 446 185 446> 624 76<185 476 185 185> 784 95<210 238 354 382>
VStem: 97 88<76 320 396 624> 182 84<806 857 799.5 863.5> 326 84<806 857 799.5 863.5>
LayerCount: 2
Fore
SplineSet
182 857 m 2xf6
 182 870 194 879 226 879 c 0
 254 879 266 871 266 857 c 2
 266 806 l 2
 266 793 254 784 222 784 c 0
 194 784 182 792 182 806 c 2
 182 857 l 2xf6
326 857 m 2
 326 870 338 879 370 879 c 0
 398 879 410 871 410 857 c 2
 410 806 l 2
 410 793 398 784 366 784 c 0
 338 784 326 792 326 806 c 2
 326 857 l 2
476 700 m 2
 490 700 496 691 496 670 c 2
 496 654 l 2
 496 633 490 624 476 624 c 2
 185 624 l 1
 185 396 l 1
 446 396 l 2
 460 396 466 387 466 366 c 2
 466 350 l 2
 466 329 460 320 446 320 c 2
 185 320 l 1
 185 76 l 1
 477 76 l 2
 491 76 497 67 497 46 c 2
 497 30 l 2
 497 9 491 0 477 0 c 2
 127 0 l 2
 106 0 97 9 97 30 c 2
 97 670 l 2
 97 691 106 700 127 700 c 2xea
 476 700 l 2
EndSplineSet
Position2: "'cpsp' Capital Spacing lookup 3 subtable" dx=5 dy=0 dh=10 dv=0
EndChar

StartChar: Edotaccent
Encoding: 278 278 53
Width: 546
Flags: MW
HStem: 0 76<116.5 477 185 477 185 477> 320 76<185 446 185 446> 624 76<185 476 185 185> 784 95<282 310>
VStem: 97 88<76 320 396 624> 254 84<806 857 799.5 863.5>
LayerCount: 2
Fore
SplineSet
254 857 m 2
 254 870 266 879 298 879 c 0
 326 879 338 871 338 857 c 2
 338 806 l 2
 338 793 326 784 294 784 c 0
 266 784 254 792 254 806 c 2
 254 857 l 2
476 700 m 2
 490 700 496 691 496 670 c 2
 496 654 l 2
 496 633 490 624 476 624 c 2
 185 624 l 1
 185 396 l 1
 446 396 l 2
 460 396 466 387 466 366 c 2
 466 350 l 2
 466 329 460 320 446 320 c 2
 185 320 l 1
 185 76 l 1
 477 76 l 2
 491 76 497 67 497 46 c 2
 497 30 l 2
 497 9 491 0 477 0 c 2
 127 0 l 2
 106 0 97 9 97 30 c 2
 97 670 l 2
 97 691 106 700 127 700 c 2
 476 700 l 2
EndSplineSet
Position2: "'cpsp' Capital Spacing lookup 3 subtable" dx=5 dy=0 dh=10 dv=0
EndChar

StartChar: Edotbelow
Encoding: 7864 7864 54
Width: 546
Flags: MW
HStem: -175 95<288 316> 0 76<116.5 477 185 477 185 477> 320 76<185 446 185 446> 624 76<185 476 185 185>
VStem: 97 88<76 320 396 624> 260 84<-153 -102 -159.5 -95.5>
LayerCount: 2
Fore
SplineSet
476 700 m 2
 490 700 496 691 496 670 c 2
 496 654 l 2
 496 633 490 624 476 624 c 2
 185 624 l 1
 185 396 l 1
 446 396 l 2
 460 396 466 387 466 366 c 2
 466 350 l 2
 466 329 460 320 446 320 c 2
 185 320 l 1
 185 76 l 1
 477 76 l 2
 491 76 497 67 497 46 c 2
 497 30 l 2
 497 9 491 0 477 0 c 2
 127 0 l 2
 106 0 97 9 97 30 c 2
 97 670 l 2
 97 691 106 700 127 700 c 2
 476 700 l 2
260 -102 m 2
 260 -89 272 -80 304 -80 c 0
 332 -80 344 -88 344 -102 c 2
 344 -153 l 2
 344 -166 332 -175 300 -175 c 0
 272 -175 260 -167 260 -153 c 2
 260 -102 l 2
EndSplineSet
Position2: "'cpsp' Capital Spacing lookup 3 subtable" dx=5 dy=0 dh=10 dv=0
EndChar

StartChar: Egrave
Encoding: 200 200 55
Width: 546
Flags: MW
HStem: 0 76<116.5 477 185 477 185 477> 320 76<185 446 185 446> 624 76<185 476 185 185>
VStem: 97 88<76 320 396 624>
LayerCount: 2
Fore
SplineSet
226 909 m 0
 258 909 277 902 288 883 c 0
 334 803 346 782 346 772 c 0
 346 765 339 762 323 762 c 0
 302 762 283 768 272 780 c 0
 188 876 178 885 178 896 c 0
 178 906 194 909 226 909 c 0
476 700 m 2
 490 700 496 691 496 670 c 2
 496 654 l 2
 496 633 490 624 476 624 c 2
 185 624 l 1
 185 396 l 1
 446 396 l 2
 460 396 466 387 466 366 c 2
 466 350 l 2
 466 329 460 320 446 320 c 2
 185 320 l 1
 185 76 l 1
 477 76 l 2
 491 76 497 67 497 46 c 2
 497 30 l 2
 497 9 491 0 477 0 c 2
 127 0 l 2
 106 0 97 9 97 30 c 2
 97 670 l 2
 97 691 106 700 127 700 c 2
 476 700 l 2
EndSplineSet
Position2: "'cpsp' Capital Spacing lookup 3 subtable" dx=5 dy=0 dh=10 dv=0
EndChar

StartChar: Ehookabove
Encoding: 7866 7866 56
Width: 546
Flags: MW
HStem: 0 76<116.5 477 185 477 185 477> 320 76<185 446 185 446> 624 76<185 476 185 185> 876 51<285.5 305>
VStem: 97 88<76 320 396 624> 332 62<824 858>
LayerCount: 2
Fore
SplineSet
332 849 m 0
 332 867 315 876 295 876 c 0
 264 876 254 863 249 863 c 0
 241 863 225 886 225 896 c 0
 225 909 268 927 303 927 c 0
 337 927 394 911 394 856 c 0
 394 790 315 740 303 740 c 0
 294 740 270 748 270 757 c 0
 270 786 332 799 332 849 c 0
476 700 m 2
 490 700 496 691 496 670 c 2
 496 654 l 2
 496 633 490 624 476 624 c 2
 185 624 l 1
 185 396 l 1
 446 396 l 2
 460 396 466 387 466 366 c 2
 466 350 l 2
 466 329 460 320 446 320 c 2
 185 320 l 1
 185 76 l 1
 477 76 l 2
 491 76 497 67 497 46 c 2
 497 30 l 2
 497 9 491 0 477 0 c 2
 127 0 l 2
 106 0 97 9 97 30 c 2
 97 670 l 2
 97 691 106 700 127 700 c 2
 476 700 l 2
EndSplineSet
Position2: "'cpsp' Capital Spacing lookup 3 subtable" dx=5 dy=0 dh=10 dv=0
EndChar

StartChar: Emacron
Encoding: 274 274 57
Width: 546
Flags: MW
HStem: 0 76<116.5 477 185 477 185 477> 320 76<185 446 185 446> 624 76<185 476 185 185> 789 70<178 408 185 408>
VStem: 97 88<76 320 396 624>
LayerCount: 2
Fore
SplineSet
408 859 m 2
 422 859 428 850 428 829 c 2
 428 819 l 2
 428 798 422 789 408 789 c 2
 185 789 l 2
 171 789 165 798 165 819 c 2
 165 829 l 2
 165 850 171 859 185 859 c 2
 408 859 l 2
476 700 m 2
 490 700 496 691 496 670 c 2
 496 654 l 2
 496 633 490 624 476 624 c 2
 185 624 l 1
 185 396 l 1
 446 396 l 2
 460 396 466 387 466 366 c 2
 466 350 l 2
 466 329 460 320 446 320 c 2
 185 320 l 1
 185 76 l 1
 477 76 l 2
 491 76 497 67 497 46 c 2
 497 30 l 2
 497 9 491 0 477 0 c 2
 127 0 l 2
 106 0 97 9 97 30 c 2
 97 670 l 2
 97 691 106 700 127 700 c 2
 476 700 l 2
EndSplineSet
Position2: "'cpsp' Capital Spacing lookup 3 subtable" dx=5 dy=0 dh=10 dv=0
EndChar

StartChar: Eogonek
Encoding: 280 280 58
Width: 546
Flags: MW
HStem: -183 70<515.5 534.5 515.5 541> 0 76<116.5 477 185 423 477 484> 320 76<185 446 185 446> 624 76<185 476 185 185>
VStem: 97 88<76 320 396 624> 398 67<-86 -71>
LayerCount: 2
Fore
SplineSet
477 0 m 1
 477 -1 l 2
 477 -15 465 -38 465 -62 c 0
 465 -110 504 -113 527 -113 c 0
 542 -113 563 -103 579 -103 c 0
 591 -103 598 -111 598 -128 c 0
 598 -173 566 -183 516 -183 c 0
 409 -183 398 -110 398 -81 c 0
 398 -61 401 -21 423 0 c 1
 127 0 l 2
 106 0 97 9 97 30 c 2
 97 670 l 2
 97 691 106 700 127 700 c 2
 476 700 l 2
 490 700 496 691 496 670 c 2
 496 654 l 2
 496 633 490 624 476 624 c 2
 185 624 l 1
 185 396 l 1
 446 396 l 2
 460 396 466 387 466 366 c 2
 466 350 l 2
 466 329 460 320 446 320 c 2
 185 320 l 1
 185 76 l 1
 477 76 l 2
 491 76 497 67 497 46 c 2
 497 30 l 2
 497 9 491 0 477 0 c 1
EndSplineSet
Position2: "'cpsp' Capital Spacing lookup 3 subtable" dx=5 dy=0 dh=10 dv=0
EndChar

StartChar: Etilde
Encoding: 7868 7868 59
Width: 546
Flags: MW
HStem: 0 76<116.5 477 185 477 185 477> 320 76<185 446 185 446> 624 76<185 476 185 185> 762 64<353 370.5> 792 64<222.5 240.5>
VStem: 97 88<76 320 396 624>
LayerCount: 2
Fore
SplineSet
421 849 m 0xf4
 426 853 431 854 436 854 c 0
 443 854 450 850 455 845 c 0
 462 837 464 830 464 824 c 0
 464 816 460 809 453 803 c 0
 423 781 391 762 350 762 c 0xf4
 313 762 294 770 277 778 c 0
 260 786 250 792 231 792 c 0
 209 792 188 781 176 773 c 0
 169 769 163 766 157 766 c 0
 149 766 142 771 135 780 c 0
 130 786 128 792 128 797 c 0
 128 805 133 811 139 816 c 0
 168 836 202 856 243 856 c 0xec
 280 856 297 845 313 837 c 0
 327 830 343 826 363 826 c 0
 385 826 403 837 421 849 c 0xf4
476 700 m 2
 490 700 496 691 496 670 c 2
 496 654 l 2
 496 633 490 624 476 624 c 2
 185 624 l 1
 185 396 l 1
 446 396 l 2
 460 396 466 387 466 366 c 2
 466 350 l 2
 466 329 460 320 446 320 c 2
 185 320 l 1
 185 76 l 1
 477 76 l 2
 491 76 497 67 497 46 c 2
 497 30 l 2
 497 9 491 0 477 0 c 2
 127 0 l 2
 106 0 97 9 97 30 c 2
 97 670 l 2
 97 691 106 700 127 700 c 2
 476 700 l 2
EndSplineSet
Position2: "'cpsp' Capital Spacing lookup 3 subtable" dx=5 dy=0 dh=10 dv=0
EndChar

StartChar: F
Encoding: 70 70 60
Width: 503
Flags: MW
HStem: -2 21G<123 137 137 145> 320 76<185 424 185 424> 624 76<185 442 185 185>
VStem: 97 88<20 320 396 624>
LayerCount: 2
Fore
SplineSet
442 700 m 2
 456 700 462 691 462 670 c 2
 462 654 l 2
 462 633 456 624 442 624 c 2
 185 624 l 1
 185 396 l 1
 424 396 l 2
 438 396 444 387 444 366 c 2
 444 350 l 2
 444 329 438 320 424 320 c 2
 185 320 l 1
 185 20 l 2
 185 6 173 -2 145 -2 c 2
 137 -2 l 2
 109 -2 97 6 97 20 c 2
 97 670 l 2
 97 691 106 700 127 700 c 2
 442 700 l 2
EndSplineSet
Position2: "'cpsp' Capital Spacing lookup 3 subtable" dx=5 dy=0 dh=10 dv=0
EndChar

StartChar: G
Encoding: 71 71 61
Width: 672
Flags: MW
HStem: -6 76<283 398 283 423> 285 76<377 559 384 501> 630 76<294.5 430.5 276.5 431>
VStem: 57 91<276.5 440 276.5 468.5> 501 88<83 285 285 285>
LayerCount: 2
Fore
SplineSet
589 66 m 2
 589 10 480 -6 366 -6 c 0
 167 -6 57 106 57 344 c 0
 57 593 172 706 381 706 c 0
 480 706 572 671 572 644 c 0
 572 627 551 586 538 586 c 0
 527 586 479 630 383 630 c 0
 206 630 148 527 148 353 c 0
 148 200 194 70 372 70 c 0
 424 70 474 76 501 83 c 1
 501 285 l 1
 384 285 l 2
 370 285 364 294 364 315 c 2
 364 331 l 2
 364 352 370 361 384 361 c 2
 559 361 l 2
 580 361 589 352 589 331 c 2
 589 66 l 2
EndSplineSet
Position2: "'cpsp' Capital Spacing lookup 3 subtable" dx=5 dy=0 dh=10 dv=0
EndChar

StartChar: Gbreve
Encoding: 286 286 62
Width: 672
Flags: MW
HStem: -6 76<283 398 283 423> 285 76<377 559 384 501> 630 76<294.5 430.5 276.5 431> 762 66<312.5 361.5 312.5 372.5>
VStem: 57 91<276.5 440 276.5 468.5> 501 88<83 285 285 285>
LayerCount: 2
Fore
SplineSet
466 892 m 0
 477 892 481 887 481 877 c 0
 481 800 408 762 337 762 c 0
 265 762 192 800 192 877 c 0
 192 887 196 892 207 892 c 0
 224 892 221 883 229 867 c 0
 244 839 288 828 337 828 c 0
 386 828 429 839 444 867 c 0
 452 883 449 892 466 892 c 0
589 66 m 2
 589 10 480 -6 366 -6 c 0
 167 -6 57 106 57 344 c 0
 57 593 172 706 381 706 c 0
 480 706 572 671 572 644 c 0
 572 627 551 586 538 586 c 0
 527 586 479 630 383 630 c 0
 206 630 148 527 148 353 c 0
 148 200 194 70 372 70 c 0
 424 70 474 76 501 83 c 1
 501 285 l 1
 384 285 l 2
 370 285 364 294 364 315 c 2
 364 331 l 2
 364 352 370 361 384 361 c 2
 559 361 l 2
 580 361 589 352 589 331 c 2
 589 66 l 2
EndSplineSet
Position2: "'cpsp' Capital Spacing lookup 3 subtable" dx=5 dy=0 dh=10 dv=0
EndChar

StartChar: Gcircumflex
Encoding: 284 284 63
Width: 672
Flags: MW
HStem: -6 76<283 398 283 423> 285 76<377 559 384 501> 630 76<294.5 430.5 276.5 431> 753 142<230.5 348 238 348 323 431 323 433>
VStem: 57 91<276.5 440 276.5 468.5> 501 88<83 285 285 285>
LayerCount: 2
Fore
SplineSet
348 895 m 2
 368 895 384 888 394 873 c 2
 451 785 l 2
 455 779 457 773 457 768 c 0
 457 759 449 753 433 753 c 2
 431 753 l 2
 418 753 408 757 398 766 c 1
 335 840 l 1
 274 766 l 1
 264 757 254 753 240 753 c 2
 238 753 l 2
 223 753 215 758 215 767 c 0
 215 772 217 778 221 785 c 2
 277 873 l 2
 287 888 303 895 323 895 c 2
 348 895 l 2
589 66 m 2
 589 10 480 -6 366 -6 c 0
 167 -6 57 106 57 344 c 0
 57 593 172 706 381 706 c 0
 480 706 572 671 572 644 c 0
 572 627 551 586 538 586 c 0
 527 586 479 630 383 630 c 0
 206 630 148 527 148 353 c 0
 148 200 194 70 372 70 c 0
 424 70 474 76 501 83 c 1
 501 285 l 1
 384 285 l 2
 370 285 364 294 364 315 c 2
 364 331 l 2
 364 352 370 361 384 361 c 2
 559 361 l 2
 580 361 589 352 589 331 c 2
 589 66 l 2
EndSplineSet
Position2: "'cpsp' Capital Spacing lookup 3 subtable" dx=5 dy=0 dh=10 dv=0
EndChar

StartChar: Gcommaaccent
Encoding: 290 290 64
Width: 672
Flags: MW
HStem: -235 21G<322.5 344.5> -6 76<283 398 283 423> 285 76<377 559 384 501> 630 76<294.5 430.5 276.5 431>
VStem: 57 91<276.5 440 276.5 468.5> 342 89<-121 -73.5> 501 88<83 285 285 285>
LayerCount: 2
Fore
SplineSet
589 66 m 2
 589 10 480 -6 366 -6 c 0
 167 -6 57 106 57 344 c 0
 57 593 172 706 381 706 c 0
 480 706 572 671 572 644 c 0
 572 627 551 586 538 586 c 0
 527 586 479 630 383 630 c 0
 206 630 148 527 148 353 c 0
 148 200 194 70 372 70 c 0
 424 70 474 76 501 83 c 1
 501 285 l 1
 384 285 l 2
 370 285 364 294 364 315 c 2
 364 331 l 2
 364 352 370 361 384 361 c 2
 559 361 l 2
 580 361 589 352 589 331 c 2
 589 66 l 2
391 -51 m 2
 416 -51 431 -62 431 -79 c 0
 431 -175 361 -235 328 -235 c 0
 317 -235 299 -232 299 -220 c 0
 299 -197 342 -159 342 -83 c 0
 342 -64 355 -51 382 -51 c 2
 391 -51 l 2
EndSplineSet
Position2: "'cpsp' Capital Spacing lookup 3 subtable" dx=5 dy=0 dh=10 dv=0
EndChar

StartChar: Gdotaccent
Encoding: 288 288 65
Width: 672
Flags: MW
HStem: -6 76<283 398 283 423> 285 76<377 559 384 501> 630 76<294.5 430.5 276.5 431> 784 95<322 350>
VStem: 57 91<276.5 440 276.5 468.5> 294 84<806 857 799.5 863.5> 501 88<83 285 285 285>
LayerCount: 2
Fore
SplineSet
294 857 m 2
 294 870 306 879 338 879 c 0
 366 879 378 871 378 857 c 2
 378 806 l 2
 378 793 366 784 334 784 c 0
 306 784 294 792 294 806 c 2
 294 857 l 2
589 66 m 2
 589 10 480 -6 366 -6 c 0
 167 -6 57 106 57 344 c 0
 57 593 172 706 381 706 c 0
 480 706 572 671 572 644 c 0
 572 627 551 586 538 586 c 0
 527 586 479 630 383 630 c 0
 206 630 148 527 148 353 c 0
 148 200 194 70 372 70 c 0
 424 70 474 76 501 83 c 1
 501 285 l 1
 384 285 l 2
 370 285 364 294 364 315 c 2
 364 331 l 2
 364 352 370 361 384 361 c 2
 559 361 l 2
 580 361 589 352 589 331 c 2
 589 66 l 2
EndSplineSet
Position2: "'cpsp' Capital Spacing lookup 3 subtable" dx=5 dy=0 dh=10 dv=0
EndChar

StartChar: H
Encoding: 72 72 66
Width: 733
Flags: MW
HStem: -2 21G<123 137 137 145 573 587 587 595> 321 76<185 547 185 547> 682 20G<137 145 145 159 587 595 595 609>
VStem: 97 88<20 321 397 680> 547 88<20 321 321 321 397 680>
LayerCount: 2
Fore
SplineSet
595 702 m 2
 623 702 635 694 635 680 c 2
 635 20 l 2
 635 6 623 -2 595 -2 c 2
 587 -2 l 2
 559 -2 547 6 547 20 c 2
 547 321 l 1
 185 321 l 1
 185 20 l 2
 185 6 173 -2 145 -2 c 2
 137 -2 l 2
 109 -2 97 6 97 20 c 2
 97 680 l 2
 97 694 109 702 137 702 c 2
 145 702 l 2
 173 702 185 694 185 680 c 2
 185 397 l 1
 547 397 l 1
 547 680 l 2
 547 694 559 702 587 702 c 2
 595 702 l 2
EndSplineSet
Position2: "'cpsp' Capital Spacing lookup 3 subtable" dx=5 dy=0 dh=10 dv=0
EndChar

StartChar: Hbar
Encoding: 294 294 67
Width: 733
Flags: MW
HStem: -2 21G<123 137 137 145 573 587 587 595> 321 76<185 547 185 547> 491 70<66 97 73 97 185 547 635 656> 682 20G<137 145 145 159 587 595 595 609>
VStem: 97 88<20 321 397 491 561 680> 547 88<20 321 321 321 397 491 561 680>
LayerCount: 2
Fore
SplineSet
656 561 m 2
 670 561 676 552 676 531 c 2
 676 521 l 2
 676 500 670 491 656 491 c 2
 635 491 l 1
 635 20 l 2
 635 6 623 -2 595 -2 c 2
 587 -2 l 2
 559 -2 547 6 547 20 c 2
 547 321 l 1
 185 321 l 1
 185 20 l 2
 185 6 173 -2 145 -2 c 2
 137 -2 l 2
 109 -2 97 6 97 20 c 2
 97 491 l 1
 73 491 l 2
 59 491 53 500 53 521 c 2
 53 531 l 2
 53 552 59 561 73 561 c 2
 97 561 l 1
 97 680 l 2
 97 694 109 702 137 702 c 2
 145 702 l 2
 173 702 185 694 185 680 c 2
 185 561 l 1
 547 561 l 1
 547 680 l 2
 547 694 559 702 587 702 c 2
 595 702 l 2
 623 702 635 694 635 680 c 2
 635 561 l 1
 656 561 l 2
547 491 m 1
 185 491 l 1
 185 397 l 1
 547 397 l 1
 547 491 l 1
EndSplineSet
Position2: "'cpsp' Capital Spacing lookup 3 subtable" dx=5 dy=0 dh=10 dv=0
EndChar

StartChar: Hcircumflex
Encoding: 292 292 68
Width: 733
Flags: MW
HStem: -2 21G<123 137 137 145 573 587 587 595> 321 76<185 547 185 547> 682 20G<137 145 145 159 587 595 595 609> 753 142<261.5 379 269 379 354 462 354 464>
VStem: 97 88<20 321 397 680> 547 88<20 321 321 321 397 680>
LayerCount: 2
Fore
SplineSet
379 895 m 2
 399 895 415 888 425 873 c 2
 482 785 l 2
 486 779 488 773 488 768 c 0
 488 759 480 753 464 753 c 2
 462 753 l 2
 449 753 439 757 429 766 c 1
 366 840 l 1
 305 766 l 1
 295 757 285 753 271 753 c 2
 269 753 l 2
 254 753 246 758 246 767 c 0
 246 772 248 778 252 785 c 2
 308 873 l 2
 318 888 334 895 354 895 c 2
 379 895 l 2
595 702 m 2
 623 702 635 694 635 680 c 2
 635 20 l 2
 635 6 623 -2 595 -2 c 2
 587 -2 l 2
 559 -2 547 6 547 20 c 2
 547 321 l 1
 185 321 l 1
 185 20 l 2
 185 6 173 -2 145 -2 c 2
 137 -2 l 2
 109 -2 97 6 97 20 c 2
 97 680 l 2
 97 694 109 702 137 702 c 2
 145 702 l 2
 173 702 185 694 185 680 c 2
 185 397 l 1
 547 397 l 1
 547 680 l 2
 547 694 559 702 587 702 c 2
 595 702 l 2
EndSplineSet
Position2: "'cpsp' Capital Spacing lookup 3 subtable" dx=5 dy=0 dh=10 dv=0
EndChar

StartChar: Hdotbelow
Encoding: 7716 7716 69
Width: 733
Flags: MW
HStem: -175 95<364 392> -2 21G<123 137 137 145 573 587 587 595> 321 76<185 547 185 547> 682 20G<137 145 145 159 587 595 595 609>
VStem: 97 88<20 321 397 680> 336 84<-153 -102 -159.5 -95.5> 547 88<20 321 321 321 397 680>
LayerCount: 2
Fore
SplineSet
595 702 m 2
 623 702 635 694 635 680 c 2
 635 20 l 2
 635 6 623 -2 595 -2 c 2
 587 -2 l 2
 559 -2 547 6 547 20 c 2
 547 321 l 1
 185 321 l 1
 185 20 l 2
 185 6 173 -2 145 -2 c 2
 137 -2 l 2
 109 -2 97 6 97 20 c 2
 97 680 l 2
 97 694 109 702 137 702 c 2
 145 702 l 2
 173 702 185 694 185 680 c 2
 185 397 l 1
 547 397 l 1
 547 680 l 2
 547 694 559 702 587 702 c 2
 595 702 l 2
336 -102 m 2
 336 -89 348 -80 380 -80 c 0
 408 -80 420 -88 420 -102 c 2
 420 -153 l 2
 420 -166 408 -175 376 -175 c 0
 348 -175 336 -167 336 -153 c 2
 336 -102 l 2
EndSplineSet
Position2: "'cpsp' Capital Spacing lookup 3 subtable" dx=5 dy=0 dh=10 dv=0
EndChar

StartChar: I
Encoding: 73 73 70
Width: 282
Flags: MW
HStem: -2 21G<123 137 137 145> 682 20G<137 145 145 159>
VStem: 97 88<20 680>
LayerCount: 2
Fore
SplineSet
145 702 m 2
 173 702 185 694 185 680 c 2
 185 20 l 2
 185 6 173 -2 145 -2 c 2
 137 -2 l 2
 109 -2 97 6 97 20 c 2
 97 680 l 2
 97 694 109 702 137 702 c 2
 145 702 l 2
EndSplineSet
Position2: "'cpsp' Capital Spacing lookup 3 subtable" dx=5 dy=0 dh=10 dv=0
EndChar

StartChar: IJ
Encoding: 306 306 71
Width: 684
Flags: MW
HStem: -6 78<370 422.5 357 466> -2 21G<123 137 137 145> 682 20G<137 145 145 159 553 561 561 575>
VStem: 97 88<20 680> 513 88<195 205 205 680>
LayerCount: 2
Fore
SplineSet
145 702 m 2xb8
 173 702 185 694 185 680 c 2
 185 20 l 2
 185 6 173 -2 145 -2 c 2
 137 -2 l 2
 109 -2 97 6 97 20 c 2x78
 97 680 l 2
 97 694 109 702 137 702 c 2
 145 702 l 2xb8
561 702 m 2
 589 702 601 694 601 680 c 2
 601 205 l 2
 601 79 543 -6 389 -6 c 0
 351 -6 288 -1 288 26 c 0
 288 30 294 81 310 81 c 0
 318 81 341 72 373 72 c 0
 472 72 513 109 513 195 c 2
 513 680 l 2
 513 694 525 702 553 702 c 2
 561 702 l 2
EndSplineSet
Position2: "'cpsp' Capital Spacing lookup 3 subtable" dx=5 dy=0 dh=10 dv=0
EndChar

StartChar: Iacute
Encoding: 205 205 72
Width: 282
Flags: MW
HStem: -2 21G<123 137 137 145> 682 20G<137 145 145 159>
VStem: 97 88<20 680>
LayerCount: 2
Fore
SplineSet
221 909 m 0
 253 909 269 906 269 896 c 0
 269 885 259 876 175 780 c 0
 164 768 145 762 124 762 c 0
 108 762 101 765 101 772 c 0
 101 782 113 803 159 883 c 0
 170 902 189 909 221 909 c 0
145 702 m 2
 173 702 185 694 185 680 c 2
 185 20 l 2
 185 6 173 -2 145 -2 c 2
 137 -2 l 2
 109 -2 97 6 97 20 c 2
 97 680 l 2
 97 694 109 702 137 702 c 2
 145 702 l 2
EndSplineSet
Position2: "'cpsp' Capital Spacing lookup 3 subtable" dx=5 dy=0 dh=10 dv=0
EndChar

StartChar: Ibreve
Encoding: 300 300 73
Width: 282
Flags: MW
HStem: -2 21G<123 137 137 145> 682 20G<137 145 145 159> 762 66<117.5 166.5 117.5 177.5>
VStem: 97 88<20 680>
LayerCount: 2
Fore
SplineSet
271 892 m 0
 282 892 286 887 286 877 c 0
 286 800 213 762 142 762 c 0
 70 762 -4 800 -4 877 c 0
 -4 887 1 892 12 892 c 0
 29 892 26 883 34 867 c 0
 49 839 93 828 142 828 c 0
 191 828 234 839 249 867 c 0
 257 883 254 892 271 892 c 0
145 702 m 2
 173 702 185 694 185 680 c 2
 185 20 l 2
 185 6 173 -2 145 -2 c 2
 137 -2 l 2
 109 -2 97 6 97 20 c 2
 97 680 l 2
 97 694 109 702 137 702 c 2
 145 702 l 2
EndSplineSet
Position2: "'cpsp' Capital Spacing lookup 3 subtable" dx=5 dy=0 dh=10 dv=0
EndChar

StartChar: Icircumflex
Encoding: 206 206 74
Width: 282
Flags: MW
HStem: -2 21G<123 137 137 145> 682 20G<137 145 145 159> 753 142<35.5 153 43 153 128 236 128 238>
VStem: 97 88<20 680>
LayerCount: 2
Fore
SplineSet
153 895 m 2
 173 895 189 888 199 873 c 2
 256 785 l 2
 260 779 262 773 262 768 c 0
 262 759 254 753 238 753 c 2
 236 753 l 2
 223 753 213 757 203 766 c 1
 140 840 l 1
 79 766 l 1
 69 757 59 753 45 753 c 2
 43 753 l 2
 28 753 20 758 20 767 c 0
 20 772 22 778 26 785 c 2
 82 873 l 2
 92 888 108 895 128 895 c 2
 153 895 l 2
145 702 m 2
 173 702 185 694 185 680 c 2
 185 20 l 2
 185 6 173 -2 145 -2 c 2
 137 -2 l 2
 109 -2 97 6 97 20 c 2
 97 680 l 2
 97 694 109 702 137 702 c 2
 145 702 l 2
EndSplineSet
Position2: "'cpsp' Capital Spacing lookup 3 subtable" dx=5 dy=0 dh=10 dv=0
EndChar

StartChar: Idieresis
Encoding: 207 207 75
Width: 282
Flags: MW
HStem: -2 21G<123 137 137 145> 682 20G<137 145 145 159> 784 95<55 83 199 227>
VStem: 27 84<806 857 799.5 863.5> 97 88<20 680> 171 84<806 857 799.5 863.5>
LayerCount: 2
Fore
SplineSet
27 857 m 2xf4
 27 870 39 879 71 879 c 0
 99 879 111 871 111 857 c 2
 111 806 l 2
 111 793 99 784 67 784 c 0
 39 784 27 792 27 806 c 2
 27 857 l 2xf4
171 857 m 2
 171 870 183 879 215 879 c 0
 243 879 255 871 255 857 c 2
 255 806 l 2
 255 793 243 784 211 784 c 0
 183 784 171 792 171 806 c 2
 171 857 l 2
145 702 m 2xe8
 173 702 185 694 185 680 c 2
 185 20 l 2
 185 6 173 -2 145 -2 c 2
 137 -2 l 2
 109 -2 97 6 97 20 c 2
 97 680 l 2
 97 694 109 702 137 702 c 2
 145 702 l 2xe8
EndSplineSet
Position2: "'cpsp' Capital Spacing lookup 3 subtable" dx=5 dy=0 dh=10 dv=0
EndChar

StartChar: Idotaccent
Encoding: 304 304 76
Width: 282
Flags: MW
HStem: -2 21G<123 137 137 145> 682 20G<137 145 145 159> 784 95<127 155>
VStem: 97 88<20 680>
LayerCount: 2
Fore
SplineSet
99 857 m 2
 99 870 111 879 143 879 c 0
 171 879 183 871 183 857 c 2
 183 806 l 2
 183 793 171 784 139 784 c 0
 111 784 99 792 99 806 c 2
 99 857 l 2
145 702 m 2
 173 702 185 694 185 680 c 2
 185 20 l 2
 185 6 173 -2 145 -2 c 2
 137 -2 l 2
 109 -2 97 6 97 20 c 2
 97 680 l 2
 97 694 109 702 137 702 c 2
 145 702 l 2
EndSplineSet
Position2: "'cpsp' Capital Spacing lookup 3 subtable" dx=5 dy=0 dh=10 dv=0
EndChar

StartChar: Idotbelow
Encoding: 7882 7882 77
Width: 282
Flags: MW
HStem: -175 95<128 156> -2 21G<123 137 137 145> 682 20G<137 145 145 159>
VStem: 97 88<20 680> 100 84<-153 -102 -159.5 -95.5>
LayerCount: 2
Fore
SplineSet
145 702 m 2xf0
 173 702 185 694 185 680 c 2
 185 20 l 2
 185 6 173 -2 145 -2 c 2
 137 -2 l 2
 109 -2 97 6 97 20 c 2
 97 680 l 2
 97 694 109 702 137 702 c 2
 145 702 l 2xf0
100 -102 m 2xe8
 100 -89 112 -80 144 -80 c 0
 172 -80 184 -88 184 -102 c 2
 184 -153 l 2
 184 -166 172 -175 140 -175 c 0
 112 -175 100 -167 100 -153 c 2
 100 -102 l 2xe8
EndSplineSet
Position2: "'cpsp' Capital Spacing lookup 3 subtable" dx=5 dy=0 dh=10 dv=0
EndChar

StartChar: Igrave
Encoding: 204 204 78
Width: 282
Flags: MW
HStem: -2 21G<123 137 137 145> 682 20G<137 145 145 159>
VStem: 97 88<20 680>
LayerCount: 2
Fore
SplineSet
71 909 m 0
 103 909 122 902 133 883 c 0
 179 803 191 782 191 772 c 0
 191 765 184 762 168 762 c 0
 147 762 128 768 117 780 c 0
 33 876 23 885 23 896 c 0
 23 906 39 909 71 909 c 0
145 702 m 2
 173 702 185 694 185 680 c 2
 185 20 l 2
 185 6 173 -2 145 -2 c 2
 137 -2 l 2
 109 -2 97 6 97 20 c 2
 97 680 l 2
 97 694 109 702 137 702 c 2
 145 702 l 2
EndSplineSet
Position2: "'cpsp' Capital Spacing lookup 3 subtable" dx=5 dy=0 dh=10 dv=0
EndChar

StartChar: Ihookabove
Encoding: 7880 7880 79
Width: 282
Flags: MW
HStem: -2 21G<123 137 137 145> 682 20G<137 145 145 159> 876 51<130.5 150>
VStem: 97 88<20 680> 177 62<824 858>
LayerCount: 2
Fore
SplineSet
177 849 m 0xe8
 177 867 160 876 140 876 c 0
 109 876 99 863 94 863 c 0
 86 863 70 886 70 896 c 0
 70 909 113 927 148 927 c 0
 182 927 239 911 239 856 c 0xe8
 239 790 160 740 148 740 c 0xf0
 139 740 115 748 115 757 c 0
 115 786 177 799 177 849 c 0xe8
145 702 m 2xf0
 173 702 185 694 185 680 c 2
 185 20 l 2
 185 6 173 -2 145 -2 c 2
 137 -2 l 2
 109 -2 97 6 97 20 c 2
 97 680 l 2
 97 694 109 702 137 702 c 2
 145 702 l 2xf0
EndSplineSet
Position2: "'cpsp' Capital Spacing lookup 3 subtable" dx=5 dy=0 dh=10 dv=0
EndChar

StartChar: Imacron
Encoding: 298 298 80
Width: 282
Flags: MW
HStem: -2 21G<123 137 137 145> 682 20G<137 145 145 159> 789 70<23 253 30 253>
VStem: 97 88<20 680>
LayerCount: 2
Fore
SplineSet
253 859 m 2
 267 859 273 850 273 829 c 2
 273 819 l 2
 273 798 267 789 253 789 c 2
 30 789 l 2
 16 789 10 798 10 819 c 2
 10 829 l 2
 10 850 16 859 30 859 c 2
 253 859 l 2
145 702 m 2
 173 702 185 694 185 680 c 2
 185 20 l 2
 185 6 173 -2 145 -2 c 2
 137 -2 l 2
 109 -2 97 6 97 20 c 2
 97 680 l 2
 97 694 109 702 137 702 c 2
 145 702 l 2
EndSplineSet
Position2: "'cpsp' Capital Spacing lookup 3 subtable" dx=5 dy=0 dh=10 dv=0
EndChar

StartChar: Iogonek
Encoding: 302 302 81
Width: 282
Flags: MW
HStem: -183 70<204.5 223.5 204.5 230> -1 21G 682 20G<137 145 145 159>
VStem: 97 88<20 680>
LayerCount: 2
Fore
SplineSet
185 20 m 2
 185 10 179 3 166 0 c 1
 166 -1 l 2
 166 -15 154 -38 154 -62 c 0
 154 -110 193 -113 216 -113 c 0
 231 -113 252 -103 268 -103 c 0
 280 -103 287 -111 287 -128 c 0
 287 -173 255 -183 205 -183 c 0
 98 -183 87 -110 87 -81 c 0
 87 -61 90 -20 113 1 c 1
 102 5 97 11 97 20 c 2
 97 680 l 2
 97 694 109 702 137 702 c 2
 145 702 l 2
 173 702 185 694 185 680 c 2
 185 20 l 2
EndSplineSet
Position2: "'cpsp' Capital Spacing lookup 3 subtable" dx=5 dy=0 dh=10 dv=0
EndChar

StartChar: Itilde
Encoding: 296 296 82
Width: 282
Flags: MW
HStem: -2 21G<123 137 137 145> 682 20G<137 145 145 159> 762 64<192 208> 792 64<74.5 91>
VStem: 97 88<20 680>
LayerCount: 2
Fore
SplineSet
253 849 m 0xe8
 258 853 262 854 267 854 c 0
 274 854 280 850 284 845 c 0
 290 837 293 830 293 824 c 0
 293 816 288 809 282 803 c 0
 255 781 226 762 190 762 c 0xe8
 156 762 139 770 124 778 c 0
 109 786 100 792 82 792 c 0
 63 792 44 781 33 773 c 0
 27 769 21 766 16 766 c 0
 9 766 2 771 -4 780 c 0
 -8 786 -10 792 -10 797 c 0
 -10 805 -6 811 0 816 c 0
 26 836 56 856 93 856 c 0xd8
 127 856 142 845 156 837 c 0
 169 830 183 826 201 826 c 0
 221 826 237 837 253 849 c 0xe8
145 702 m 2
 173 702 185 694 185 680 c 2
 185 20 l 2
 185 6 173 -2 145 -2 c 2
 137 -2 l 2
 109 -2 97 6 97 20 c 2
 97 680 l 2
 97 694 109 702 137 702 c 2
 145 702 l 2
EndSplineSet
Position2: "'cpsp' Capital Spacing lookup 3 subtable" dx=5 dy=0 dh=10 dv=0
EndChar

StartChar: J
Encoding: 74 74 83
Width: 402
Flags: MW
HStem: -6 78<88 140.5 75 184> 682 20G<271 279 279 293>
VStem: 231 88<195 205 205 680>
LayerCount: 2
Fore
SplineSet
279 702 m 2
 307 702 319 694 319 680 c 2
 319 205 l 2
 319 79 261 -6 107 -6 c 0
 69 -6 6 -1 6 26 c 0
 6 30 12 81 28 81 c 0
 36 81 59 72 91 72 c 0
 190 72 231 109 231 195 c 2
 231 680 l 2
 231 694 243 702 271 702 c 2
 279 702 l 2
EndSplineSet
Position2: "'cpsp' Capital Spacing lookup 3 subtable" dx=5 dy=0 dh=10 dv=0
EndChar

StartChar: Jcircumflex
Encoding: 308 308 84
Width: 402
Flags: MW
HStem: -6 78<88 140.5 75 184> 682 20G<271 279 279 293> 753 142<165.5 283 173 283 258 366 258 368>
VStem: 231 88<195 205 205 680>
LayerCount: 2
Fore
SplineSet
283 895 m 2
 303 895 319 888 329 873 c 2
 386 785 l 2
 390 779 392 773 392 768 c 0
 392 759 384 753 368 753 c 2
 366 753 l 2
 353 753 343 757 333 766 c 1
 270 840 l 1
 209 766 l 1
 199 757 189 753 175 753 c 2
 173 753 l 2
 158 753 150 758 150 767 c 0
 150 772 152 778 156 785 c 2
 212 873 l 2
 222 888 238 895 258 895 c 2
 283 895 l 2
279 702 m 2
 307 702 319 694 319 680 c 2
 319 205 l 2
 319 79 261 -6 107 -6 c 0
 69 -6 6 -1 6 26 c 0
 6 30 12 81 28 81 c 0
 36 81 59 72 91 72 c 0
 190 72 231 109 231 195 c 2
 231 680 l 2
 231 694 243 702 271 702 c 2
 279 702 l 2
EndSplineSet
Position2: "'cpsp' Capital Spacing lookup 3 subtable" dx=5 dy=0 dh=10 dv=0
EndChar

StartChar: K
Encoding: 75 75 85
Width: 576
Flags: MW
HStem: -2 21G<123 137 137 145 519 530 530 542> 333 41<185 189 185 189> 682 20G<137 145 145 159 489 499 499 511>
VStem: 97 88<20 333 374 680>
LayerCount: 2
Fore
SplineSet
499 702 m 2
 523 702 534 696 534 689 c 0
 534 684 531 677 524 669 c 2
 274 357 l 1
 577 28 l 2
 584 20 586 16 586 12 c 0
 586 1 573 -2 542 -2 c 2
 530 -2 l 2
 508 -2 487 -2 475 11 c 2
 189 333 l 1
 185 333 l 1
 185 20 l 2
 185 6 173 -2 145 -2 c 2
 137 -2 l 2
 109 -2 97 6 97 20 c 2
 97 680 l 2
 97 694 109 702 137 702 c 2
 145 702 l 2
 173 702 185 694 185 680 c 2
 185 374 l 1
 189 374 l 1
 435 688 l 2
 444 699 467 702 489 702 c 2
 499 702 l 2
EndSplineSet
Position2: "'cpsp' Capital Spacing lookup 3 subtable" dx=5 dy=0 dh=10 dv=0
EndChar

StartChar: Kcommaaccent
Encoding: 310 310 86
Width: 576
Flags: MW
HStem: -235 21G<223.5 245.5> -2 21G<123 137 137 145 519 530 530 542> 333 41<185 189 185 189> 682 20G<137 145 145 159 489 499 499 511>
VStem: 97 88<20 333 374 680> 243 89<-121 -73.5>
LayerCount: 2
Fore
SplineSet
499 702 m 2
 523 702 534 696 534 689 c 0
 534 684 531 677 524 669 c 2
 274 357 l 1
 577 28 l 2
 584 20 586 16 586 12 c 0
 586 1 573 -2 542 -2 c 2
 530 -2 l 2
 508 -2 487 -2 475 11 c 2
 189 333 l 1
 185 333 l 1
 185 20 l 2
 185 6 173 -2 145 -2 c 2
 137 -2 l 2
 109 -2 97 6 97 20 c 2
 97 680 l 2
 97 694 109 702 137 702 c 2
 145 702 l 2
 173 702 185 694 185 680 c 2
 185 374 l 1
 189 374 l 1
 435 688 l 2
 444 699 467 702 489 702 c 2
 499 702 l 2
292 -51 m 2
 317 -51 332 -62 332 -79 c 0
 332 -175 262 -235 229 -235 c 0
 218 -235 200 -232 200 -220 c 0
 200 -197 243 -159 243 -83 c 0
 243 -64 256 -51 283 -51 c 2
 292 -51 l 2
EndSplineSet
Position2: "'cpsp' Capital Spacing lookup 3 subtable" dx=5 dy=0 dh=10 dv=0
EndChar

StartChar: L
Encoding: 76 76 87
Width: 484
Flags: MW
HStem: 0 76<116.5 460 185 460 185 460> 682 20G<137 145 145 159>
VStem: 97 88<76 680 76 680 76 687>
LayerCount: 2
Fore
SplineSet
145 702 m 2
 173 702 185 694 185 680 c 2
 185 76 l 1
 460 76 l 2
 474 76 480 67 480 46 c 2
 480 30 l 2
 480 9 474 0 460 0 c 2
 127 0 l 2
 106 0 97 9 97 30 c 2
 97 680 l 2
 97 694 109 702 137 702 c 2
 145 702 l 2
EndSplineSet
Position2: "'cpsp' Capital Spacing lookup 3 subtable" dx=5 dy=0 dh=10 dv=0
EndChar

StartChar: LJ
Encoding: 455 455 88
Width: 718
Flags: MW
HStem: -156 78<402 454.5 389 498> 0 76<116.5 390 185 390 185 390> 682 20G<137 145 145 159 585 593 593 607>
VStem: 97 88<76 680 76 680 76 687> 545 88<45 55 55 680>
LayerCount: 2
Fore
SplineSet
145 702 m 2
 173 702 185 694 185 680 c 2
 185 76 l 1
 390 76 l 2
 404 76 410 67 410 46 c 2
 410 30 l 2
 410 9 404 0 390 0 c 2
 127 0 l 2
 106 0 97 9 97 30 c 2
 97 680 l 2
 97 694 109 702 137 702 c 2
 145 702 l 2
593 702 m 2
 621 702 633 694 633 680 c 2
 633 55 l 2
 633 -71 575 -156 421 -156 c 0
 383 -156 320 -151 320 -124 c 0
 320 -120 326 -69 342 -69 c 0
 350 -69 373 -78 405 -78 c 0
 504 -78 545 -41 545 45 c 2
 545 680 l 2
 545 694 557 702 585 702 c 2
 593 702 l 2
EndSplineSet
Position2: "'cpsp' Capital Spacing lookup 3 subtable" dx=5 dy=0 dh=10 dv=0
EndChar

StartChar: Lacute
Encoding: 313 313 89
Width: 484
Flags: MW
HStem: 0 76<116.5 460 185 460 185 460> 682 20G<137 145 145 159>
VStem: 97 88<76 680 76 680 76 687>
LayerCount: 2
Fore
SplineSet
225 911 m 0
 257 911 273 908 273 898 c 0
 273 887 263 878 179 782 c 0
 168 770 149 764 128 764 c 0
 112 764 105 767 105 774 c 0
 105 784 117 805 163 885 c 0
 174 904 193 911 225 911 c 0
145 702 m 2
 173 702 185 694 185 680 c 2
 185 76 l 1
 460 76 l 2
 474 76 480 67 480 46 c 2
 480 30 l 2
 480 9 474 0 460 0 c 2
 127 0 l 2
 106 0 97 9 97 30 c 2
 97 680 l 2
 97 694 109 702 137 702 c 2
 145 702 l 2
EndSplineSet
Position2: "'cpsp' Capital Spacing lookup 3 subtable" dx=5 dy=0 dh=10 dv=0
EndChar

StartChar: Lcaron
Encoding: 317 317 90
Width: 484
Flags: MW
HStem: 0 76<116.5 460 185 460 185 460> 526 21G<317.5 335> 680 20G 682 20G<137 145 145 159>
VStem: 97 88<76 680 76 680 76 687> 307 89<632.5 677.5>
LayerCount: 2
Fore
SplineSet
145 702 m 2xd8
 173 702 185 694 185 680 c 2
 185 76 l 1
 460 76 l 2
 474 76 480 67 480 46 c 2
 480 30 l 2
 480 9 474 0 460 0 c 2
 127 0 l 2
 106 0 97 9 97 30 c 2
 97 680 l 2
 97 694 109 702 137 702 c 2
 145 702 l 2xd8
356 700 m 2xec
 381 700 396 689 396 672 c 0
 396 582 347 526 323 526 c 0
 312 526 294 529 294 541 c 0
 294 562 307 597 307 668 c 0
 307 687 320 700 347 700 c 2
 356 700 l 2xec
EndSplineSet
Position2: "'cpsp' Capital Spacing lookup 3 subtable" dx=5 dy=0 dh=10 dv=0
EndChar

StartChar: Lcommaaccent
Encoding: 315 315 91
Width: 484
Flags: MW
HStem: -235 21G<217.5 239.5> 0 76<116.5 460 185 460 185 460> 682 20G<137 145 145 159>
VStem: 97 88<76 680 76 680 76 687> 237 89<-121 -73.5>
LayerCount: 2
Fore
SplineSet
145 702 m 2
 173 702 185 694 185 680 c 2
 185 76 l 1
 460 76 l 2
 474 76 480 67 480 46 c 2
 480 30 l 2
 480 9 474 0 460 0 c 2
 127 0 l 2
 106 0 97 9 97 30 c 2
 97 680 l 2
 97 694 109 702 137 702 c 2
 145 702 l 2
286 -51 m 2
 311 -51 326 -62 326 -79 c 0
 326 -175 256 -235 223 -235 c 0
 212 -235 194 -232 194 -220 c 0
 194 -197 237 -159 237 -83 c 0
 237 -64 250 -51 277 -51 c 2
 286 -51 l 2
EndSplineSet
Position2: "'cpsp' Capital Spacing lookup 3 subtable" dx=5 dy=0 dh=10 dv=0
EndChar

StartChar: Ldot
Encoding: 319 319 92
Width: 484
Flags: MW
HStem: 0 76<116.5 460 185 460 185 460> 309 103<286.5 315.5> 682 20G<137 145 145 159>
VStem: 97 88<76 680 76 680 76 687> 250 103<345.5 374.5>
LayerCount: 2
Fore
SplineSet
145 702 m 2
 173 702 185 694 185 680 c 2
 185 76 l 1
 460 76 l 2
 474 76 480 67 480 46 c 2
 480 30 l 2
 480 9 474 0 460 0 c 2
 127 0 l 2
 106 0 97 9 97 30 c 2
 97 680 l 2
 97 694 109 702 137 702 c 2
 145 702 l 2
301 412 m 0
 330 412 353 389 353 360 c 0
 353 331 330 309 301 309 c 0
 272 309 250 331 250 360 c 0
 250 389 272 412 301 412 c 0
EndSplineSet
Ligature2: "Ligature Substitution lookup 20 subtable" L periodcentered
Position2: "'cpsp' Capital Spacing lookup 3 subtable" dx=5 dy=0 dh=10 dv=0
EndChar

StartChar: Lj
Encoding: 456 456 93
Width: 760
Flags: MW
HStem: -212 72<526.5 545.5 516.5 565> 0 76<116.5 460 185 460 185 460> 649 103<607 633 621 633> 682 20G<137 145 145 159>
VStem: 97 88<76 680 76 680 76 687> 581 92<671 730 664 737> 585 84<-66 503>
LayerCount: 2
Fore
SplineSet
633 752 m 2xec
 661 752 673 744 673 730 c 2
 673 671 l 2
 673 657 661 649 633 649 c 2
 621 649 l 2
 593 649 581 657 581 671 c 2
 581 730 l 2
 581 744 593 752 621 752 c 2
 633 752 l 2xec
145 702 m 2xda
 173 702 185 694 185 680 c 2
 185 76 l 1
 460 76 l 2
 474 76 480 67 480 46 c 2
 480 30 l 2
 480 9 474 0 460 0 c 2
 127 0 l 2
 106 0 97 9 97 30 c 2
 97 680 l 2
 97 694 109 702 137 702 c 2
 145 702 l 2xda
629 525 m 2
 657 525 669 517 669 503 c 2
 669 -74 l 2
 669 -190 590 -212 540 -212 c 0
 513 -212 467 -209 467 -182 c 0
 467 -174 474 -135 488 -135 c 0
 497 -135 502 -140 531 -140 c 0
 560 -140 585 -126 585 -66 c 2
 585 503 l 2
 585 517 597 525 625 525 c 2
 629 525 l 2
EndSplineSet
Position2: "'cpsp' Capital Spacing lookup 3 subtable" dx=5 dy=0 dh=10 dv=0
EndChar

StartChar: Lslash
Encoding: 321 321 94
Width: 486
Flags: MW
HStem: 0 76<104.5 464 173 464 173 464> 682 20G<125 133 133 147>
VStem: 85 88<76 348 348 348 394 401 447 680>
LayerCount: 2
Fore
SplineSet
133 702 m 2
 161 702 173 694 173 680 c 2
 173 447 l 1
 281 511 l 2
 285 513 288 515 291 515 c 0
 296 515 300 510 300 501 c 2
 300 495 l 2
 300 481 293 472 281 465 c 2
 173 401 l 1
 173 76 l 1
 464 76 l 2
 478 76 484 67 484 46 c 2
 484 30 l 2
 484 9 478 0 464 0 c 2
 115 0 l 2
 94 0 85 9 85 30 c 2
 85 348 l 1
 17 308 l 2
 13 305 9 304 7 304 c 0
 2 304 -2 309 -2 318 c 2
 -2 324 l 2
 -2 338 5 347 17 354 c 2
 85 394 l 1
 85 680 l 2
 85 694 97 702 125 702 c 2
 133 702 l 2
EndSplineSet
Position2: "'cpsp' Capital Spacing lookup 3 subtable" dx=5 dy=0 dh=10 dv=0
EndChar

StartChar: M
Encoding: 77 77 95
Width: 843
Flags: MW
HStem: -2 21G<116 130 130 137 692 706 706 713> 682 20G<130 166 166 178 680 713 713 727>
VStem: 90 87<20 564> 666 87<20 558 558 558>
LayerCount: 2
Fore
SplineSet
713 702 m 2
 741 702 753 694 753 680 c 2
 753 20 l 2
 753 6 741 -2 713 -2 c 2
 706 -2 l 2
 678 -2 666 6 666 20 c 2
 666 558 l 1
 664 554 l 1
 465 208 l 2
 460 199 454 195 443 195 c 2
 403 195 l 2
 393 195 386 199 381 208 c 2
 179 560 l 1
 177 564 l 1
 177 20 l 2
 177 6 165 -2 137 -2 c 2
 130 -2 l 2
 102 -2 90 6 90 20 c 2
 90 680 l 2
 90 694 102 702 130 702 c 2
 166 702 l 2
 190 702 202 695 208 684 c 2
 397 356 l 1
 423 293 l 1
 449 350 l 1
 638 684 l 2
 644 695 656 702 680 702 c 2
 713 702 l 2
EndSplineSet
Position2: "'cpsp' Capital Spacing lookup 3 subtable" dx=5 dy=0 dh=10 dv=0
EndChar

StartChar: N
Encoding: 78 78 96
Width: 719
Flags: MW
HStem: -2 21G<116 130 130 137 559.5 569 569 589> 682 20G<130 151 151 162 582 589 589 603>
VStem: 90 87<20 561> 542 87<145 680>
LayerCount: 2
Fore
SplineSet
589 702 m 2
 617 702 629 694 629 680 c 2
 629 20 l 2
 629 6 617 -2 589 -2 c 2
 569 -2 l 2
 550 -2 540 3 534 12 c 2
 204 510 l 1
 177 561 l 1
 177 20 l 2
 177 6 165 -2 137 -2 c 2
 130 -2 l 2
 102 -2 90 6 90 20 c 2
 90 680 l 2
 90 694 102 702 130 702 c 2
 151 702 l 2
 173 702 183 697 193 683 c 2
 512 201 l 1
 542 145 l 1
 542 680 l 2
 542 694 554 702 582 702 c 2
 589 702 l 2
EndSplineSet
Position2: "'cpsp' Capital Spacing lookup 3 subtable" dx=5 dy=0 dh=10 dv=0
EndChar

StartChar: NJ
Encoding: 458 458 97
Width: 1121
Flags: MW
HStem: -6 78<807 859.5 794 903> -2 21G<116 130 130 137 559.5 569 569 589> 682 20G<130 151 151 162 582 589 589 603 990 998 998 1012>
VStem: 90 87<20 561> 542 87<145 680> 950 88<195 205 205 680>
LayerCount: 2
Fore
SplineSet
589 702 m 2xbc
 617 702 629 694 629 680 c 2
 629 20 l 2
 629 6 617 -2 589 -2 c 2
 569 -2 l 2
 550 -2 540 3 534 12 c 2
 204 510 l 1
 177 561 l 1
 177 20 l 2
 177 6 165 -2 137 -2 c 2
 130 -2 l 2
 102 -2 90 6 90 20 c 2x7c
 90 680 l 2
 90 694 102 702 130 702 c 2
 151 702 l 2
 173 702 183 697 193 683 c 2
 512 201 l 1
 542 145 l 1
 542 680 l 2
 542 694 554 702 582 702 c 2
 589 702 l 2xbc
998 702 m 2
 1026 702 1038 694 1038 680 c 2
 1038 205 l 2
 1038 79 980 -6 826 -6 c 0
 788 -6 725 -1 725 26 c 0
 725 30 731 81 747 81 c 0
 755 81 778 72 810 72 c 0
 909 72 950 109 950 195 c 2
 950 680 l 2
 950 694 962 702 990 702 c 2
 998 702 l 2
EndSplineSet
Position2: "'cpsp' Capital Spacing lookup 3 subtable" dx=5 dy=0 dh=10 dv=0
EndChar

StartChar: Nacute
Encoding: 323 323 98
Width: 719
Flags: MW
HStem: -2 21G<116 130 130 137 559.5 569 569 589> 682 20G<130 151 151 162 582 589 589 603>
VStem: 90 87<20 561> 542 87<145 680>
LayerCount: 2
Fore
SplineSet
440 909 m 0
 472 909 488 906 488 896 c 0
 488 885 478 876 394 780 c 0
 383 768 364 762 343 762 c 0
 327 762 320 765 320 772 c 0
 320 782 332 803 378 883 c 0
 389 902 408 909 440 909 c 0
589 702 m 2
 617 702 629 694 629 680 c 2
 629 20 l 2
 629 6 617 -2 589 -2 c 2
 569 -2 l 2
 550 -2 540 3 534 12 c 2
 204 510 l 1
 177 561 l 1
 177 20 l 2
 177 6 165 -2 137 -2 c 2
 130 -2 l 2
 102 -2 90 6 90 20 c 2
 90 680 l 2
 90 694 102 702 130 702 c 2
 151 702 l 2
 173 702 183 697 193 683 c 2
 512 201 l 1
 542 145 l 1
 542 680 l 2
 542 694 554 702 582 702 c 2
 589 702 l 2
EndSplineSet
Substitution2: "'locl' Localized Forms in Latin lookup 12 subtable" Nacute.loclPLK
Substitution2: "'aalt' Access All Alternates lookup 0 subtable" Nacute.loclPLK
Position2: "'cpsp' Capital Spacing lookup 3 subtable" dx=5 dy=0 dh=10 dv=0
EndChar

StartChar: Ncaron
Encoding: 327 327 99
Width: 719
Flags: MW
HStem: -2 21G<116 130 130 137 559.5 569 569 589> 682 20G<130 151 151 162 582 589 589 603> 759 142<262 347 262 372>
VStem: 90 87<20 561> 542 87<145 680>
LayerCount: 2
Fore
SplineSet
457 901 m 2
 473 901 481 895 481 886 c 0
 481 881 479 875 475 869 c 2
 418 781 l 2
 408 766 392 759 372 759 c 2
 347 759 l 2
 327 759 311 766 301 781 c 2
 245 869 l 2
 241 876 239 882 239 887 c 0
 239 896 247 901 262 901 c 2
 264 901 l 2
 278 901 288 897 298 888 c 1
 359 814 l 1
 422 888 l 1
 432 897 442 901 455 901 c 2
 457 901 l 2
589 702 m 2
 617 702 629 694 629 680 c 2
 629 20 l 2
 629 6 617 -2 589 -2 c 2
 569 -2 l 2
 550 -2 540 3 534 12 c 2
 204 510 l 1
 177 561 l 1
 177 20 l 2
 177 6 165 -2 137 -2 c 2
 130 -2 l 2
 102 -2 90 6 90 20 c 2
 90 680 l 2
 90 694 102 702 130 702 c 2
 151 702 l 2
 173 702 183 697 193 683 c 2
 512 201 l 1
 542 145 l 1
 542 680 l 2
 542 694 554 702 582 702 c 2
 589 702 l 2
EndSplineSet
Position2: "'cpsp' Capital Spacing lookup 3 subtable" dx=5 dy=0 dh=10 dv=0
EndChar

StartChar: Ncommaaccent
Encoding: 325 325 100
Width: 719
Flags: MW
HStem: -235 21G<295.5 317.5> -2 21G<116 130 130 137 559.5 569 569 589> 682 20G<130 151 151 162 582 589 589 603>
VStem: 90 87<20 561> 315 89<-121 -73.5> 542 87<145 680>
LayerCount: 2
Fore
SplineSet
589 702 m 2
 617 702 629 694 629 680 c 2
 629 20 l 2
 629 6 617 -2 589 -2 c 2
 569 -2 l 2
 550 -2 540 3 534 12 c 2
 204 510 l 1
 177 561 l 1
 177 20 l 2
 177 6 165 -2 137 -2 c 2
 130 -2 l 2
 102 -2 90 6 90 20 c 2
 90 680 l 2
 90 694 102 702 130 702 c 2
 151 702 l 2
 173 702 183 697 193 683 c 2
 512 201 l 1
 542 145 l 1
 542 680 l 2
 542 694 554 702 582 702 c 2
 589 702 l 2
364 -51 m 2
 389 -51 404 -62 404 -79 c 0
 404 -175 334 -235 301 -235 c 0
 290 -235 272 -232 272 -220 c 0
 272 -197 315 -159 315 -83 c 0
 315 -64 328 -51 355 -51 c 2
 364 -51 l 2
EndSplineSet
Position2: "'cpsp' Capital Spacing lookup 3 subtable" dx=5 dy=0 dh=10 dv=0
EndChar

StartChar: Ndotaccent
Encoding: 7748 7748 101
Width: 719
Flags: MW
HStem: -2 21G<116 130 130 137 559.5 569 569 589> 682 20G<130 151 151 162 582 589 589 603> 784 95<346 374>
VStem: 90 87<20 561> 318 84<806 857 799.5 863.5> 542 87<145 680>
LayerCount: 2
Fore
SplineSet
318 857 m 2
 318 870 330 879 362 879 c 0
 390 879 402 871 402 857 c 2
 402 806 l 2
 402 793 390 784 358 784 c 0
 330 784 318 792 318 806 c 2
 318 857 l 2
589 702 m 2
 617 702 629 694 629 680 c 2
 629 20 l 2
 629 6 617 -2 589 -2 c 2
 569 -2 l 2
 550 -2 540 3 534 12 c 2
 204 510 l 1
 177 561 l 1
 177 20 l 2
 177 6 165 -2 137 -2 c 2
 130 -2 l 2
 102 -2 90 6 90 20 c 2
 90 680 l 2
 90 694 102 702 130 702 c 2
 151 702 l 2
 173 702 183 697 193 683 c 2
 512 201 l 1
 542 145 l 1
 542 680 l 2
 542 694 554 702 582 702 c 2
 589 702 l 2
EndSplineSet
Position2: "'cpsp' Capital Spacing lookup 3 subtable" dx=5 dy=0 dh=10 dv=0
EndChar

StartChar: Eng
Encoding: 330 330 102
Width: 719
Flags: MW
HStem: -212 72<486.5 505.5 476.5 525> -2 21G<116 130 130 137> 682 20G<130 151 151 162 582 589 589 603>
VStem: 90 87<20 561> 542 87<145 680>
LayerCount: 2
Fore
SplineSet
589 702 m 2
 617 702 629 694 629 680 c 2
 629 -74 l 2
 629 -190 550 -212 500 -212 c 0
 473 -212 427 -209 427 -182 c 0
 427 -174 434 -135 448 -135 c 0
 457 -135 462 -140 491 -140 c 0
 520 -140 545 -126 545 -66 c 2
 545 -4 l 1
 204 510 l 1
 177 561 l 1
 177 20 l 2
 177 6 165 -2 137 -2 c 2
 130 -2 l 2
 102 -2 90 6 90 20 c 2
 90 680 l 2
 90 694 102 702 130 702 c 2
 151 702 l 2
 173 702 183 697 193 683 c 2
 512 201 l 1
 542 145 l 1
 542 680 l 2
 542 694 554 702 582 702 c 2
 589 702 l 2
EndSplineSet
Position2: "'cpsp' Capital Spacing lookup 3 subtable" dx=5 dy=0 dh=10 dv=0
EndChar

StartChar: Nj
Encoding: 459 459 103
Width: 995
Flags: MW
HStem: -212 72<761.5 780.5 751.5 800> -2 21G<116 130 130 137 559.5 569 569 589> 649 103<842 868 856 868> 682 20G<130 151 151 162 582 589 589 603>
VStem: 90 87<20 561> 542 87<145 680> 816 92<671 730 664 737> 820 84<-66 503>
LayerCount: 2
Fore
SplineSet
868 752 m 2xee
 896 752 908 744 908 730 c 2
 908 671 l 2
 908 657 896 649 868 649 c 2
 856 649 l 2
 828 649 816 657 816 671 c 2
 816 730 l 2
 816 744 828 752 856 752 c 2
 868 752 l 2xee
589 702 m 2xdd
 617 702 629 694 629 680 c 2
 629 20 l 2
 629 6 617 -2 589 -2 c 2
 569 -2 l 2
 550 -2 540 3 534 12 c 2
 204 510 l 1
 177 561 l 1
 177 20 l 2
 177 6 165 -2 137 -2 c 2
 130 -2 l 2
 102 -2 90 6 90 20 c 2
 90 680 l 2
 90 694 102 702 130 702 c 2
 151 702 l 2
 173 702 183 697 193 683 c 2
 512 201 l 1
 542 145 l 1
 542 680 l 2
 542 694 554 702 582 702 c 2
 589 702 l 2xdd
864 525 m 2
 892 525 904 517 904 503 c 2
 904 -74 l 2
 904 -190 825 -212 775 -212 c 0
 748 -212 702 -209 702 -182 c 0
 702 -174 709 -135 723 -135 c 0
 732 -135 737 -140 766 -140 c 0
 795 -140 820 -126 820 -66 c 2
 820 503 l 2
 820 517 832 525 860 525 c 2
 864 525 l 2
EndSplineSet
Position2: "'cpsp' Capital Spacing lookup 3 subtable" dx=5 dy=0 dh=10 dv=0
EndChar

StartChar: Ntilde
Encoding: 209 209 104
Width: 719
Flags: MW
HStem: -2 21G<116 130 130 137 559.5 569 569 589> 682 20G<130 151 151 162 582 589 589 603> 762 64<417 434.5> 792 64<286.5 304.5>
VStem: 90 87<20 561> 542 87<145 680>
LayerCount: 2
Fore
SplineSet
485 849 m 0xec
 490 853 495 854 500 854 c 0
 507 854 514 850 519 845 c 0
 526 837 528 830 528 824 c 0
 528 816 524 809 517 803 c 0
 487 781 455 762 414 762 c 0xec
 377 762 358 770 341 778 c 0
 324 786 314 792 295 792 c 0
 273 792 252 781 240 773 c 0
 233 769 227 766 221 766 c 0
 213 766 206 771 199 780 c 0
 194 786 192 792 192 797 c 0
 192 805 197 811 203 816 c 0
 232 836 266 856 307 856 c 0xdc
 344 856 361 845 377 837 c 0
 391 830 407 826 427 826 c 0
 449 826 467 837 485 849 c 0xec
589 702 m 2
 617 702 629 694 629 680 c 2
 629 20 l 2
 629 6 617 -2 589 -2 c 2
 569 -2 l 2
 550 -2 540 3 534 12 c 2
 204 510 l 1
 177 561 l 1
 177 20 l 2
 177 6 165 -2 137 -2 c 2
 130 -2 l 2
 102 -2 90 6 90 20 c 2
 90 680 l 2
 90 694 102 702 130 702 c 2
 151 702 l 2
 173 702 183 697 193 683 c 2
 512 201 l 1
 542 145 l 1
 542 680 l 2
 542 694 554 702 582 702 c 2
 589 702 l 2
EndSplineSet
Position2: "'cpsp' Capital Spacing lookup 3 subtable" dx=5 dy=0 dh=10 dv=0
EndChar

StartChar: O
Encoding: 79 79 105
Width: 731
Flags: MW
HStem: -6 76<294.5 435.5 294.5 465.5> 630 76<294.5 435.5>
VStem: 57 91<260 444 260 469> 583 91<260 444>
LayerCount: 2
Fore
SplineSet
365 706 m 0
 566 706 674 586 674 352 c 0
 674 118 566 -6 365 -6 c 0
 165 -6 57 118 57 352 c 0
 57 586 165 706 365 706 c 0
365 630 m 0
 224 630 148 536 148 352 c 0
 148 168 224 70 365 70 c 0
 506 70 583 168 583 352 c 0
 583 536 506 630 365 630 c 0
EndSplineSet
Substitution2: "Single Substitution lookup 21 subtable" ordmasculine
Substitution2: "'aalt' Access All Alternates lookup 0 subtable" ordmasculine
Position2: "'cpsp' Capital Spacing lookup 3 subtable" dx=5 dy=0 dh=10 dv=0
EndChar

StartChar: Oacute
Encoding: 211 211 106
Width: 731
Flags: MW
HStem: -6 76<294.5 435.5 294.5 465.5> 630 76<294.5 435.5>
VStem: 57 91<260 444 260 469> 583 91<260 444>
LayerCount: 2
Fore
SplineSet
446 909 m 0
 478 909 494 906 494 896 c 0
 494 885 484 876 400 780 c 0
 389 768 370 762 349 762 c 0
 333 762 326 765 326 772 c 0
 326 782 338 803 384 883 c 0
 395 902 414 909 446 909 c 0
365 706 m 0
 566 706 674 586 674 352 c 0
 674 118 566 -6 365 -6 c 0
 165 -6 57 118 57 352 c 0
 57 586 165 706 365 706 c 0
365 630 m 0
 224 630 148 536 148 352 c 0
 148 168 224 70 365 70 c 0
 506 70 583 168 583 352 c 0
 583 536 506 630 365 630 c 0
EndSplineSet
Substitution2: "'locl' Localized Forms in Latin lookup 12 subtable" Oacute.loclPLK
Substitution2: "'aalt' Access All Alternates lookup 0 subtable" Oacute.loclPLK
Position2: "'cpsp' Capital Spacing lookup 3 subtable" dx=5 dy=0 dh=10 dv=0
EndChar

StartChar: Obreve
Encoding: 334 334 107
Width: 731
Flags: MW
HStem: -6 76<294.5 435.5 294.5 465.5> 630 76<294.5 435.5> 762 66<342.5 391.5 342.5 402.5>
VStem: 57 91<260 444 260 469> 583 91<260 444>
LayerCount: 2
Fore
SplineSet
496 892 m 0
 507 892 511 887 511 877 c 0
 511 800 438 762 367 762 c 0
 295 762 222 800 222 877 c 0
 222 887 226 892 237 892 c 0
 254 892 251 883 259 867 c 0
 274 839 318 828 367 828 c 0
 416 828 459 839 474 867 c 0
 482 883 479 892 496 892 c 0
365 706 m 0
 566 706 674 586 674 352 c 0
 674 118 566 -6 365 -6 c 0
 165 -6 57 118 57 352 c 0
 57 586 165 706 365 706 c 0
365 630 m 0
 224 630 148 536 148 352 c 0
 148 168 224 70 365 70 c 0
 506 70 583 168 583 352 c 0
 583 536 506 630 365 630 c 0
EndSplineSet
Position2: "'cpsp' Capital Spacing lookup 3 subtable" dx=5 dy=0 dh=10 dv=0
EndChar

StartChar: Ocircumflex
Encoding: 212 212 108
Width: 731
Flags: MW
HStem: -6 76<294.5 435.5 294.5 465.5> 630 76<294.5 435.5> 753 142<260.5 378 268 378 353 461 353 463>
VStem: 57 91<260 444 260 469> 583 91<260 444>
LayerCount: 2
Fore
SplineSet
378 895 m 2
 398 895 414 888 424 873 c 2
 481 785 l 2
 485 779 487 773 487 768 c 0
 487 759 479 753 463 753 c 2
 461 753 l 2
 448 753 438 757 428 766 c 1
 365 840 l 1
 304 766 l 1
 294 757 284 753 270 753 c 2
 268 753 l 2
 253 753 245 758 245 767 c 0
 245 772 247 778 251 785 c 2
 307 873 l 2
 317 888 333 895 353 895 c 2
 378 895 l 2
365 706 m 0
 566 706 674 586 674 352 c 0
 674 118 566 -6 365 -6 c 0
 165 -6 57 118 57 352 c 0
 57 586 165 706 365 706 c 0
365 630 m 0
 224 630 148 536 148 352 c 0
 148 168 224 70 365 70 c 0
 506 70 583 168 583 352 c 0
 583 536 506 630 365 630 c 0
EndSplineSet
Position2: "'cpsp' Capital Spacing lookup 3 subtable" dx=5 dy=0 dh=10 dv=0
EndChar

StartChar: Ocircumflexacute
Encoding: 7888 7888 109
Width: 731
Flags: MW
HStem: -6 76<294.5 435.5 294.5 465.5> 630 76<294.5 435.5>
VStem: 57 91<260 444 260 469> 583 91<260 444>
LayerCount: 2
Fore
SplineSet
365 706 m 0
 566 706 674 586 674 352 c 0
 674 118 566 -6 365 -6 c 0
 165 -6 57 118 57 352 c 0
 57 586 165 706 365 706 c 0
365 630 m 0
 224 630 148 536 148 352 c 0
 148 168 224 70 365 70 c 0
 506 70 583 168 583 352 c 0
 583 536 506 630 365 630 c 0
576 961 m 0
 598 961 607 958 607 948 c 0
 607 938 599 930 533 842 c 0
 524 830 514 824 497 824 c 0
 481 824 474 827 474 834 c 0
 474 843 484 862 522 935 c 0
 533 954 552 961 576 961 c 0
382 895 m 2
 398 895 410 886 418 873 c 2
 470 785 l 2
 474 779 476 773 476 768 c 0
 476 759 468 753 452 753 c 2
 450 753 l 2
 437 753 423 757 417 766 c 2
 369 840 l 1
 308 766 l 1
 298 757 288 753 274 753 c 2
 272 753 l 2
 257 753 249 758 249 767 c 0
 249 772 251 778 255 785 c 2
 311 873 l 2
 321 888 337 895 357 895 c 2
 382 895 l 2
EndSplineSet
Position2: "'cpsp' Capital Spacing lookup 3 subtable" dx=5 dy=0 dh=10 dv=0
EndChar

StartChar: Ocircumflexdotbelow
Encoding: 7896 7896 110
Width: 731
Flags: MW
HStem: -175 95<355 383> -6 76<294.5 435.5 294.5 465.5> 630 76<294.5 435.5> 753 142<260.5 378 268 378 353 461 353 463>
VStem: 57 91<260 444 260 469> 327 84<-153 -102 -159.5 -95.5> 583 91<260 444>
LayerCount: 2
Fore
SplineSet
365 706 m 0
 566 706 674 586 674 352 c 0
 674 118 566 -6 365 -6 c 0
 165 -6 57 118 57 352 c 0
 57 586 165 706 365 706 c 0
365 630 m 0
 224 630 148 536 148 352 c 0
 148 168 224 70 365 70 c 0
 506 70 583 168 583 352 c 0
 583 536 506 630 365 630 c 0
378 895 m 2
 398 895 414 888 424 873 c 2
 481 785 l 2
 485 779 487 773 487 768 c 0
 487 759 479 753 463 753 c 2
 461 753 l 2
 448 753 438 757 428 766 c 1
 365 840 l 1
 304 766 l 1
 294 757 284 753 270 753 c 2
 268 753 l 2
 253 753 245 758 245 767 c 0
 245 772 247 778 251 785 c 2
 307 873 l 2
 317 888 333 895 353 895 c 2
 378 895 l 2
327 -102 m 2
 327 -89 339 -80 371 -80 c 0
 399 -80 411 -88 411 -102 c 2
 411 -153 l 2
 411 -166 399 -175 367 -175 c 0
 339 -175 327 -167 327 -153 c 2
 327 -102 l 2
EndSplineSet
Position2: "'cpsp' Capital Spacing lookup 3 subtable" dx=5 dy=0 dh=10 dv=0
EndChar

StartChar: Ocircumflexgrave
Encoding: 7890 7890 111
Width: 731
Flags: MW
HStem: -6 76<294.5 435.5 294.5 465.5> 630 76<294.5 435.5>
VStem: 57 91<260 444 260 469> 583 91<260 444>
LayerCount: 2
Fore
SplineSet
365 706 m 0
 566 706 674 586 674 352 c 0
 674 118 566 -6 365 -6 c 0
 165 -6 57 118 57 352 c 0
 57 586 165 706 365 706 c 0
365 630 m 0
 224 630 148 536 148 352 c 0
 148 168 224 70 365 70 c 0
 506 70 583 168 583 352 c 0
 583 536 506 630 365 630 c 0
462 961 m 0
 482 961 504 954 512 935 c 0
 543 862 550 843 550 834 c 0
 550 827 543 824 527 824 c 0
 514 824 499 830 491 842 c 0
 435 930 427 938 427 948 c 0
 427 958 434 961 462 961 c 0
382 895 m 2
 398 895 410 886 418 873 c 2
 470 785 l 2
 474 779 476 773 476 768 c 0
 476 759 468 753 452 753 c 2
 450 753 l 2
 437 753 423 757 417 766 c 2
 369 840 l 1
 308 766 l 1
 298 757 288 753 274 753 c 2
 272 753 l 2
 257 753 249 758 249 767 c 0
 249 772 251 778 255 785 c 2
 311 873 l 2
 321 888 337 895 357 895 c 2
 382 895 l 2
EndSplineSet
Position2: "'cpsp' Capital Spacing lookup 3 subtable" dx=5 dy=0 dh=10 dv=0
EndChar

StartChar: Ocircumflexhookabove
Encoding: 7892 7892 112
Width: 731
Flags: MW
HStem: -6 76<294.5 435.5 294.5 465.5> 630 76<294.5 435.5> 931 48<483.5 503>
VStem: 57 91<260 444 260 469> 530 57<897 913> 583 91<260 444>
LayerCount: 2
Fore
SplineSet
365 706 m 0xd4
 566 706 674 586 674 352 c 0
 674 118 566 -6 365 -6 c 0
 165 -6 57 118 57 352 c 0
 57 586 165 706 365 706 c 0xd4
365 630 m 0
 224 630 148 536 148 352 c 0
 148 168 224 70 365 70 c 0
 506 70 583 168 583 352 c 0
 583 536 506 630 365 630 c 0
530 904 m 0xf8
 530 922 513 931 493 931 c 0
 462 931 452 918 447 918 c 0
 439 918 423 941 423 951 c 0
 423 964 466 979 501 979 c 0
 535 979 587 963 587 911 c 0
 587 880 569 861 552 847 c 0
 538 835 517 825 511 825 c 0
 490 825 474 836 474 845 c 0
 474 853 483 858 499 867 c 0
 519 878 530 890 530 904 c 0xf8
382 895 m 2
 398 895 410 886 418 873 c 2
 470 785 l 2
 474 779 476 773 476 768 c 0
 476 759 468 753 452 753 c 2
 450 753 l 2
 437 753 423 757 417 766 c 2
 369 840 l 1
 308 766 l 1
 298 757 288 753 274 753 c 2
 272 753 l 2
 257 753 249 758 249 767 c 0
 249 772 251 778 255 785 c 2
 311 873 l 2
 321 888 337 895 357 895 c 2
 382 895 l 2
EndSplineSet
Position2: "'cpsp' Capital Spacing lookup 3 subtable" dx=5 dy=0 dh=10 dv=0
EndChar

StartChar: Ocircumflextilde
Encoding: 7894 7894 113
Width: 731
Flags: MW
HStem: -6 76<294.5 435.5 294.5 465.5> 630 76<294.5 435.5> 903 64<414 430.5> 933 64<295.5 312>
VStem: 57 91<260 444 260 469> 583 91<260 444>
LayerCount: 2
Fore
SplineSet
365 706 m 0xec
 566 706 674 586 674 352 c 0
 674 118 566 -6 365 -6 c 0
 165 -6 57 118 57 352 c 0
 57 586 165 706 365 706 c 0xec
365 630 m 0
 224 630 148 536 148 352 c 0
 148 168 224 70 365 70 c 0
 506 70 583 168 583 352 c 0
 583 536 506 630 365 630 c 0
476 990 m 0
 481 994 485 995 490 995 c 0
 497 995 503 991 507 986 c 0
 513 978 516 971 516 965 c 0
 516 957 511 950 505 944 c 0
 478 922 449 903 412 903 c 0xec
 378 903 361 911 345 919 c 0
 330 927 321 933 303 933 c 0
 283 933 264 922 253 914 c 0
 247 910 241 907 236 907 c 0
 229 907 222 912 216 921 c 0
 212 927 210 933 210 938 c 0
 210 946 214 952 220 957 c 0
 246 977 277 997 314 997 c 0xdc
 348 997 363 986 378 978 c 0
 391 971 405 967 423 967 c 0
 443 967 460 978 476 990 c 0
378 871 m 2
 398 871 411 862 424 849 c 1
 481 785 l 1
 485 779 487 773 487 768 c 0
 487 759 479 753 463 753 c 2
 461 753 l 2
 448 753 439 759 428 766 c 1
 365 816 l 1
 304 766 l 2
 294 759 284 753 270 753 c 2
 268 753 l 2
 253 753 245 758 245 767 c 0
 245 772 247 778 251 785 c 1
 307 849 l 1
 321 862 333 871 353 871 c 2
 378 871 l 2
EndSplineSet
Position2: "'cpsp' Capital Spacing lookup 3 subtable" dx=5 dy=0 dh=10 dv=0
EndChar

StartChar: Odieresis
Encoding: 214 214 114
Width: 731
Flags: MW
HStem: -6 76<294.5 435.5 294.5 465.5> 630 76<294.5 435.5> 784 95<280 308 424 452>
VStem: 57 91<260 444 260 469> 252 84<806 857 799.5 863.5> 396 84<806 857 799.5 863.5> 583 91<260 444>
LayerCount: 2
Fore
SplineSet
365 706 m 0
 566 706 674 586 674 352 c 0
 674 118 566 -6 365 -6 c 0
 165 -6 57 118 57 352 c 0
 57 586 165 706 365 706 c 0
365 630 m 0
 224 630 148 536 148 352 c 0
 148 168 224 70 365 70 c 0
 506 70 583 168 583 352 c 0
 583 536 506 630 365 630 c 0
252 857 m 2
 252 870 264 879 296 879 c 0
 324 879 336 871 336 857 c 2
 336 806 l 2
 336 793 324 784 292 784 c 0
 264 784 252 792 252 806 c 2
 252 857 l 2
396 857 m 2
 396 870 408 879 440 879 c 0
 468 879 480 871 480 857 c 2
 480 806 l 2
 480 793 468 784 436 784 c 0
 408 784 396 792 396 806 c 2
 396 857 l 2
EndSplineSet
Position2: "'cpsp' Capital Spacing lookup 3 subtable" dx=5 dy=0 dh=10 dv=0
EndChar

StartChar: Odotbelow
Encoding: 7884 7884 115
Width: 731
Flags: MW
HStem: -175 95<355 383> -6 76<294.5 435.5 294.5 465.5> 630 76<294.5 435.5>
VStem: 57 91<260 444 260 469> 327 84<-153 -102 -159.5 -95.5> 583 91<260 444>
LayerCount: 2
Fore
SplineSet
365 706 m 0
 566 706 674 586 674 352 c 0
 674 118 566 -6 365 -6 c 0
 165 -6 57 118 57 352 c 0
 57 586 165 706 365 706 c 0
365 630 m 0
 224 630 148 536 148 352 c 0
 148 168 224 70 365 70 c 0
 506 70 583 168 583 352 c 0
 583 536 506 630 365 630 c 0
327 -102 m 2
 327 -89 339 -80 371 -80 c 0
 399 -80 411 -88 411 -102 c 2
 411 -153 l 2
 411 -166 399 -175 367 -175 c 0
 339 -175 327 -167 327 -153 c 2
 327 -102 l 2
EndSplineSet
Position2: "'cpsp' Capital Spacing lookup 3 subtable" dx=5 dy=0 dh=10 dv=0
EndChar

StartChar: Ograve
Encoding: 210 210 116
Width: 731
Flags: MW
HStem: -6 76<294.5 435.5 294.5 465.5> 630 76<294.5 435.5>
VStem: 57 91<260 444 260 469> 583 91<260 444>
LayerCount: 2
Fore
SplineSet
296 909 m 0
 328 909 347 902 358 883 c 0
 404 803 416 782 416 772 c 0
 416 765 409 762 393 762 c 0
 372 762 353 768 342 780 c 0
 258 876 248 885 248 896 c 0
 248 906 264 909 296 909 c 0
365 706 m 0
 566 706 674 586 674 352 c 0
 674 118 566 -6 365 -6 c 0
 165 -6 57 118 57 352 c 0
 57 586 165 706 365 706 c 0
365 630 m 0
 224 630 148 536 148 352 c 0
 148 168 224 70 365 70 c 0
 506 70 583 168 583 352 c 0
 583 536 506 630 365 630 c 0
EndSplineSet
Position2: "'cpsp' Capital Spacing lookup 3 subtable" dx=5 dy=0 dh=10 dv=0
EndChar

StartChar: Ohookabove
Encoding: 7886 7886 117
Width: 731
Flags: MW
HStem: -6 76<294.5 435.5 294.5 465.5> 630 76<294.5 435.5> 876 51<355.5 375>
VStem: 57 91<260 444 260 469> 402 62<824 858> 583 91<260 444>
LayerCount: 2
Fore
SplineSet
402 849 m 0
 402 867 385 876 365 876 c 0
 334 876 324 863 319 863 c 0
 311 863 295 886 295 896 c 0
 295 909 338 927 373 927 c 0
 407 927 464 911 464 856 c 0
 464 790 385 740 373 740 c 0
 364 740 340 748 340 757 c 0
 340 786 402 799 402 849 c 0
365 706 m 0
 566 706 674 586 674 352 c 0
 674 118 566 -6 365 -6 c 0
 165 -6 57 118 57 352 c 0
 57 586 165 706 365 706 c 0
365 630 m 0
 224 630 148 536 148 352 c 0
 148 168 224 70 365 70 c 0
 506 70 583 168 583 352 c 0
 583 536 506 630 365 630 c 0
EndSplineSet
Position2: "'cpsp' Capital Spacing lookup 3 subtable" dx=5 dy=0 dh=10 dv=0
EndChar

StartChar: Ohorn
Encoding: 416 416 118
Width: 731
Flags: MW
HStem: -6 76<294.5 435.5 294.5 465.5> 630 52 630 76<294.5 391 265 435.5>
VStem: 57 91<260 444 260 469> 572 61<707 753.5> 583 91<260 423.5 235 444>
LayerCount: 2
Fore
SplineSet
578 809 m 2xd8
 582 812 586 813 590 813 c 0
 613 813 633 768 633 739 c 0xb8
 633 695 609 662 556 652 c 1
 634 596 674 495 674 352 c 0
 674 118 566 -6 365 -6 c 0
 165 -6 57 118 57 352 c 0
 57 586 165 706 365 706 c 0xb4
 417 706 463 698 502 682 c 1
 517 682 l 2
 560 682 572 699 572 715 c 1
 575 745 548 765 545 777 c 1
 545 783 548 789 554 793 c 2
 578 809 l 2xd8
365 70 m 0xb4
 506 70 583 168 583 352 c 0
 583 536 506 630 365 630 c 0
 224 630 148 536 148 352 c 0
 148 168 224 70 365 70 c 0xb4
EndSplineSet
Position2: "'cpsp' Capital Spacing lookup 3 subtable" dx=5 dy=0 dh=10 dv=0
EndChar

StartChar: Ohornacute
Encoding: 7898 7898 119
Width: 731
Flags: MW
HStem: -6 76<294.5 435.5 294.5 465.5> 630 52 630 76<294.5 391 265 435.5>
VStem: 57 91<260 444 260 469> 572 61<707 753.5> 583 91<260 423.5 235 444>
LayerCount: 2
Fore
SplineSet
349 762 m 0xb4
 333 762 326 765 326 772 c 0
 326 782 338 803 384 883 c 0
 395 902 414 909 446 909 c 0
 478 909 494 906 494 896 c 0
 494 885 484 876 400 780 c 0
 389 768 370 762 349 762 c 0xb4
578 809 m 2xd8
 582 812 586 813 590 813 c 0
 613 813 633 768 633 739 c 0xb8
 633 695 609 662 556 652 c 1
 634 596 674 495 674 352 c 0
 674 118 566 -6 365 -6 c 0
 165 -6 57 118 57 352 c 0
 57 586 165 706 365 706 c 0xb4
 417 706 463 698 502 682 c 1
 517 682 l 2
 560 682 572 699 572 715 c 1
 575 745 548 765 545 777 c 1
 545 783 548 789 554 793 c 2
 578 809 l 2xd8
365 70 m 0xb4
 506 70 583 168 583 352 c 0
 583 536 506 630 365 630 c 0
 224 630 148 536 148 352 c 0
 148 168 224 70 365 70 c 0xb4
EndSplineSet
Position2: "'cpsp' Capital Spacing lookup 3 subtable" dx=5 dy=0 dh=10 dv=0
EndChar

StartChar: Ohorndotbelow
Encoding: 7906 7906 120
Width: 731
Flags: MW
HStem: -175 95<355 383> -6 76<294.5 435.5 294.5 465.5> 630 52 630 76<294.5 391 265 435.5>
VStem: 57 91<260 444 260 469> 327 84<-153 -102 -159.5 -95.5> 572 61<707 753.5> 583 91<260 423.5 235 444>
LayerCount: 2
Fore
SplineSet
578 809 m 2x6e
 582 812 586 813 590 813 c 0
 613 813 633 768 633 739 c 0x5e
 633 695 609 662 556 652 c 1
 634 596 674 495 674 352 c 0
 674 118 566 -6 365 -6 c 0
 165 -6 57 118 57 352 c 0
 57 586 165 706 365 706 c 0x5d
 417 706 463 698 502 682 c 1
 517 682 l 2
 560 682 572 699 572 715 c 1
 575 745 548 765 545 777 c 1
 545 783 548 789 554 793 c 2
 578 809 l 2x6e
365 70 m 0xdd
 506 70 583 168 583 352 c 0
 583 536 506 630 365 630 c 0
 224 630 148 536 148 352 c 0
 148 168 224 70 365 70 c 0xdd
327 -102 m 2
 327 -89 339 -80 371 -80 c 0
 399 -80 411 -88 411 -102 c 2
 411 -153 l 2
 411 -166 399 -175 367 -175 c 0
 339 -175 327 -167 327 -153 c 2
 327 -102 l 2
EndSplineSet
Position2: "'cpsp' Capital Spacing lookup 3 subtable" dx=5 dy=0 dh=10 dv=0
EndChar

StartChar: Ohorngrave
Encoding: 7900 7900 121
Width: 731
Flags: MW
HStem: -6 76<294.5 435.5 294.5 465.5> 630 52 630 76<294.5 391 265 435.5>
VStem: 57 91<260 444 260 469> 572 61<707 753.5> 583 91<260 423.5 235 444>
LayerCount: 2
Fore
SplineSet
393 762 m 0xb4
 372 762 353 768 342 780 c 0
 258 876 248 885 248 896 c 0
 248 906 264 909 296 909 c 0
 328 909 347 902 358 883 c 0
 404 803 416 782 416 772 c 0
 416 765 409 762 393 762 c 0xb4
578 809 m 2xd8
 582 812 586 813 590 813 c 0
 613 813 633 768 633 739 c 0xb8
 633 695 609 662 556 652 c 1
 634 596 674 495 674 352 c 0
 674 118 566 -6 365 -6 c 0
 165 -6 57 118 57 352 c 0
 57 586 165 706 365 706 c 0xb4
 417 706 463 698 502 682 c 1
 517 682 l 2
 560 682 572 699 572 715 c 1
 575 745 548 765 545 777 c 1
 545 783 548 789 554 793 c 2
 578 809 l 2xd8
365 70 m 0xb4
 506 70 583 168 583 352 c 0
 583 536 506 630 365 630 c 0
 224 630 148 536 148 352 c 0
 148 168 224 70 365 70 c 0xb4
EndSplineSet
Position2: "'cpsp' Capital Spacing lookup 3 subtable" dx=5 dy=0 dh=10 dv=0
EndChar

StartChar: Ohornhookabove
Encoding: 7902 7902 122
Width: 731
Flags: MW
HStem: -6 76<294.5 435.5 294.5 465.5> 630 52 630 76<294.5 391 265 435.5> 876 51<355.5 375>
VStem: 57 91<260 444 260 469> 402 62<824 858> 572 61<707 753.5> 583 91<260 423.5 235 444>
LayerCount: 2
Fore
SplineSet
319 863 m 0xbd
 311 863 295 886 295 896 c 0
 295 909 338 927 373 927 c 0
 407 927 464 911 464 856 c 0
 464 790 385 740 373 740 c 0
 364 740 340 748 340 757 c 0
 340 786 402 799 402 849 c 0
 402 867 385 876 365 876 c 0
 334 876 324 863 319 863 c 0xbd
578 809 m 2xde
 582 812 586 813 590 813 c 0
 613 813 633 768 633 739 c 0xbe
 633 695 609 662 556 652 c 1
 634 596 674 495 674 352 c 0
 674 118 566 -6 365 -6 c 0
 165 -6 57 118 57 352 c 0
 57 586 165 706 365 706 c 0xbd
 417 706 463 698 502 682 c 1
 517 682 l 2
 560 682 572 699 572 715 c 1
 575 745 548 765 545 777 c 1
 545 783 548 789 554 793 c 2
 578 809 l 2xde
365 70 m 0xbd
 506 70 583 168 583 352 c 0
 583 536 506 630 365 630 c 0
 224 630 148 536 148 352 c 0
 148 168 224 70 365 70 c 0xbd
EndSplineSet
Position2: "'cpsp' Capital Spacing lookup 3 subtable" dx=5 dy=0 dh=10 dv=0
EndChar

StartChar: Ohorntilde
Encoding: 7904 7904 123
Width: 731
Flags: MW
HStem: -6 76<294.5 435.5 294.5 465.5> 630 52 630 76<294.5 391 265 435.5> 762 64<399 414.5> 792 64<281.5 297.5>
VStem: 57 91<260 444 260 469> 572 61<707 753.5> 583 91<260 423.5 235 444>
LayerCount: 2
Fore
SplineSet
240 773 m 0xad
 234 769 228 766 223 766 c 0
 215 766 209 771 203 780 c 0
 199 786 197 792 197 798 c 0
 197 805 200 811 206 816 c 0
 232 836 263 856 300 856 c 0xad
 333 856 349 845 363 837 c 0
 376 830 390 826 408 826 c 0
 428 826 444 837 460 849 c 0
 465 853 469 854 474 854 c 0
 481 854 487 850 491 845 c 0
 497 837 499 830 499 824 c 0
 499 816 495 809 489 803 c 0
 462 781 433 762 396 762 c 0xb5
 363 762 346 770 331 778 c 0
 315 786 306 792 289 792 c 0
 269 792 250 781 240 773 c 0xad
578 809 m 2xce
 582 812 586 813 590 813 c 0
 613 813 633 768 633 739 c 0xae
 633 695 609 662 556 652 c 1
 634 596 674 495 674 352 c 0
 674 118 566 -6 365 -6 c 0
 165 -6 57 118 57 352 c 0
 57 586 165 706 365 706 c 0xad
 417 706 463 698 502 682 c 1
 517 682 l 2
 560 682 572 699 572 715 c 1
 575 745 548 765 545 777 c 1
 545 783 548 789 554 793 c 2
 578 809 l 2xce
365 70 m 0xad
 506 70 583 168 583 352 c 0
 583 536 506 630 365 630 c 0
 224 630 148 536 148 352 c 0
 148 168 224 70 365 70 c 0xad
EndSplineSet
Position2: "'cpsp' Capital Spacing lookup 3 subtable" dx=5 dy=0 dh=10 dv=0
EndChar

StartChar: Ohungarumlaut
Encoding: 336 336 124
Width: 731
Flags: MW
HStem: -6 76<294.5 435.5 294.5 465.5> 630 76<294.5 435.5> 762 147<269 390 358 434.5>
VStem: 57 91<260 444 260 469> 583 91<260 444>
LayerCount: 2
Fore
SplineSet
365 706 m 0
 566 706 674 586 674 352 c 0
 674 118 566 -6 365 -6 c 0
 165 -6 57 118 57 352 c 0
 57 586 165 706 365 706 c 0
365 630 m 0
 224 630 148 536 148 352 c 0
 148 168 224 70 365 70 c 0
 506 70 583 168 583 352 c 0
 583 536 506 630 365 630 c 0
374 909 m 0
 406 909 422 906 422 896 c 0
 422 885 412 876 328 780 c 0
 317 768 298 762 277 762 c 0
 261 762 254 765 254 772 c 0
 254 782 266 803 312 883 c 0
 323 902 342 909 374 909 c 0
521 909 m 0
 553 909 569 906 569 896 c 0
 569 885 559 876 475 780 c 0
 464 768 445 762 424 762 c 0
 408 762 401 765 401 772 c 0
 401 782 413 803 459 883 c 0
 470 902 489 909 521 909 c 0
EndSplineSet
Position2: "'cpsp' Capital Spacing lookup 3 subtable" dx=5 dy=0 dh=10 dv=0
EndChar

StartChar: Omacron
Encoding: 332 332 125
Width: 731
Flags: MW
HStem: -6 76<294.5 435.5 294.5 465.5> 630 76<294.5 435.5> 789 70<248 478 255 478>
VStem: 57 91<260 444 260 469> 583 91<260 444>
LayerCount: 2
Fore
SplineSet
478 859 m 2
 492 859 498 850 498 829 c 2
 498 819 l 2
 498 798 492 789 478 789 c 2
 255 789 l 2
 241 789 235 798 235 819 c 2
 235 829 l 2
 235 850 241 859 255 859 c 2
 478 859 l 2
365 706 m 0
 566 706 674 586 674 352 c 0
 674 118 566 -6 365 -6 c 0
 165 -6 57 118 57 352 c 0
 57 586 165 706 365 706 c 0
365 630 m 0
 224 630 148 536 148 352 c 0
 148 168 224 70 365 70 c 0
 506 70 583 168 583 352 c 0
 583 536 506 630 365 630 c 0
EndSplineSet
Position2: "'cpsp' Capital Spacing lookup 3 subtable" dx=5 dy=0 dh=10 dv=0
EndChar

StartChar: Oogonek
Encoding: 490 490 126
Width: 731
Flags: MW
HStem: -183 70<481.5 500.5 481.5 507> -6 76<294.5 365 365 384> 630 76<294.5 435.5>
VStem: 57 91<260 444 260 469> 364 67<-86 -72> 583 91<260 444>
LayerCount: 2
Fore
SplineSet
674 352 m 0
 674 150 594 30 443 1 c 1
 443 -1 l 2
 443 -15 431 -38 431 -62 c 0
 431 -110 470 -113 493 -113 c 0
 508 -113 529 -103 545 -103 c 0
 557 -103 564 -111 564 -128 c 0
 564 -173 532 -183 482 -183 c 0
 375 -183 364 -110 364 -81 c 0
 364 -63 367 -28 384 -6 c 1
 365 -6 l 2
 165 -6 57 118 57 352 c 0
 57 586 165 706 365 706 c 0
 566 706 674 586 674 352 c 0
365 70 m 0
 506 70 583 168 583 352 c 0
 583 536 506 630 365 630 c 0
 224 630 148 536 148 352 c 0
 148 168 224 70 365 70 c 0
EndSplineSet
Position2: "'cpsp' Capital Spacing lookup 3 subtable" dx=5 dy=0 dh=10 dv=0
EndChar

StartChar: Oslash
Encoding: 216 216 127
Width: 731
Flags: MW
HStem: -6 76<327.5 435.5 327.5 465.5> 630 76<294.5 398> 682 20G<644.5 651.5>
VStem: 57 91<319 444 319 469> 583 91<260 390.5>
LayerCount: 2
Fore
SplineSet
113 116 m 1xd8
 76 175 57 253 57 352 c 0
 57 586 165 706 365 706 c 0
 455 706 526 681 578 633 c 1xd8
 633 694 l 2
 638 700 642 702 647 702 c 0
 656 702 669 690 669 682 c 0
 669 677 667 673 663 668 c 2
 605 604 l 1xb8
 650 545 674 461 674 352 c 0
 674 118 566 -6 365 -6 c 0
 265 -6 189 24 137 84 c 1
 70 10 l 2
 65 4 60 1 56 1 c 0
 47 1 34 13 34 22 c 0
 34 26 36 31 40 36 c 2
 113 116 l 1xd8
519 568 m 1
 483 609 431 630 365 630 c 0
 224 630 148 536 148 352 c 0
 148 286 158 231 177 187 c 1
 519 568 l 1
197 151 m 1
 233 97 290 70 365 70 c 0
 506 70 583 168 583 352 c 0
 583 429 569 491 543 536 c 1
 197 151 l 1
EndSplineSet
Position2: "'cpsp' Capital Spacing lookup 3 subtable" dx=5 dy=0 dh=10 dv=0
EndChar

StartChar: Oslashacute
Encoding: 510 510 128
Width: 731
Flags: MW
HStem: -6 76<327.5 435.5 327.5 465.5> 630 76<294.5 398> 682 20G<644.5 651.5>
VStem: 57 91<319 444 319 469> 583 91<260 390.5>
LayerCount: 2
Fore
SplineSet
113 116 m 1xd8
 76 175 57 253 57 352 c 0
 57 586 165 706 365 706 c 0
 455 706 526 681 578 633 c 1xd8
 633 694 l 2
 638 700 642 702 647 702 c 0
 656 702 669 690 669 682 c 0
 669 677 667 673 663 668 c 2
 605 604 l 1xb8
 650 545 674 461 674 352 c 0
 674 118 566 -6 365 -6 c 0
 265 -6 189 24 137 84 c 1
 70 10 l 2
 65 4 60 1 56 1 c 0
 47 1 34 13 34 22 c 0
 34 26 36 31 40 36 c 2
 113 116 l 1xd8
519 568 m 1
 483 609 431 630 365 630 c 0
 224 630 148 536 148 352 c 0
 148 286 158 231 177 187 c 1
 519 568 l 1
197 151 m 1
 233 97 290 70 365 70 c 0
 506 70 583 168 583 352 c 0
 583 429 569 491 543 536 c 1
 197 151 l 1
446 909 m 0
 478 909 494 906 494 896 c 0
 494 885 484 876 400 780 c 0
 389 768 370 762 349 762 c 0
 333 762 326 765 326 772 c 0
 326 782 338 803 384 883 c 0
 395 902 414 909 446 909 c 0
EndSplineSet
Position2: "'cpsp' Capital Spacing lookup 3 subtable" dx=5 dy=0 dh=10 dv=0
EndChar

StartChar: Otilde
Encoding: 213 213 129
Width: 731
Flags: MW
HStem: -6 76<294.5 435.5 294.5 465.5> 630 76<294.5 435.5> 762 64<423 440.5> 792 64<292.5 310.5>
VStem: 57 91<260 444 260 469> 583 91<260 444>
LayerCount: 2
Fore
SplineSet
491 849 m 0xec
 496 853 501 854 506 854 c 0
 513 854 520 850 525 845 c 0
 532 837 534 830 534 824 c 0
 534 816 530 809 523 803 c 0
 493 781 461 762 420 762 c 0xec
 383 762 364 770 347 778 c 0
 330 786 320 792 301 792 c 0
 279 792 258 781 246 773 c 0
 239 769 233 766 227 766 c 0
 219 766 212 771 205 780 c 0
 200 786 198 792 198 797 c 0
 198 805 203 811 209 816 c 0
 238 836 272 856 313 856 c 0xdc
 350 856 367 845 383 837 c 0
 397 830 413 826 433 826 c 0
 455 826 473 837 491 849 c 0xec
365 706 m 0
 566 706 674 586 674 352 c 0
 674 118 566 -6 365 -6 c 0
 165 -6 57 118 57 352 c 0
 57 586 165 706 365 706 c 0
365 630 m 0
 224 630 148 536 148 352 c 0
 148 168 224 70 365 70 c 0
 506 70 583 168 583 352 c 0
 583 536 506 630 365 630 c 0
EndSplineSet
Position2: "'cpsp' Capital Spacing lookup 3 subtable" dx=5 dy=0 dh=10 dv=0
EndChar

StartChar: OE
Encoding: 338 338 130
Width: 1021
Flags: MW
HStem: -6 76<294.5 413> 0 76<604.5 968 673 968 673 968> 320 76<673 937 673 937> 624 76<585 967 673 673 673 967> 630 76<294.5 413 265 435.5>
VStem: 57 91<260 444 260 469> 583 90<260 320 396 444>
LayerCount: 2
Fore
SplineSet
968 76 m 2x76
 982 76 988 67 988 46 c 2
 988 30 l 2
 988 9 982 0 968 0 c 2
 615 0 l 2
 594 0 585 9 585 30 c 2x76
 585 78 l 1
 534 22 461 -6 365 -6 c 0
 165 -6 57 118 57 352 c 0
 57 586 165 706 365 706 c 0
 461 706 534 678 585 624 c 1xae
 585 670 l 2
 585 691 594 700 615 700 c 2
 967 700 l 2
 981 700 987 691 987 670 c 2
 987 654 l 2
 987 633 981 624 967 624 c 2
 673 624 l 1
 673 396 l 1
 937 396 l 2
 951 396 957 387 957 366 c 2
 957 350 l 2
 957 329 951 320 937 320 c 2
 673 320 l 1
 673 76 l 1
 968 76 l 2x76
365 70 m 0xae
 506 70 583 168 583 352 c 0
 583 536 506 630 365 630 c 0
 224 630 148 536 148 352 c 0
 148 168 224 70 365 70 c 0xae
EndSplineSet
Position2: "'cpsp' Capital Spacing lookup 3 subtable" dx=5 dy=0 dh=10 dv=0
EndChar

StartChar: P
Encoding: 80 80 131
Width: 570
Flags: MW
HStem: -2 21G<111 125 125 133> 298 76<173 328 173 329> 624 76<173 173 173 315>
VStem: 85 88<20 298 374 624> 450 91<449.5 553.5>
LayerCount: 2
Fore
SplineSet
318 700 m 2
 404 700 541 673 541 504 c 0
 541 321 380 298 328 298 c 2
 173 298 l 1
 173 20 l 2
 173 6 161 -2 133 -2 c 2
 125 -2 l 2
 97 -2 85 6 85 20 c 2
 85 670 l 2
 85 691 94 700 115 700 c 2
 318 700 l 2
173 624 m 1
 173 374 l 1
 329 374 l 2
 369 374 450 395 450 504 c 0
 450 603 374 624 315 624 c 2
 173 624 l 1
EndSplineSet
Position2: "'cpsp' Capital Spacing lookup 3 subtable" dx=5 dy=0 dh=10 dv=0
EndChar

StartChar: Thorn
Encoding: 222 222 132
Width: 567
Flags: MW
HStem: -2 21G<111 125 125 133> 176 76<173 328 173 329> 502 76<173 318 173 315> 682 20G<125 133 133 147>
VStem: 85 88<20 176 252 502 578 680> 450 91<327.5 431.5>
LayerCount: 2
Fore
SplineSet
133 702 m 2
 161 702 173 694 173 680 c 2
 173 578 l 1
 318 578 l 2
 404 578 541 551 541 382 c 0
 541 199 380 176 328 176 c 2
 173 176 l 1
 173 20 l 2
 173 6 161 -2 133 -2 c 2
 125 -2 l 2
 97 -2 85 6 85 20 c 2
 85 680 l 2
 85 694 97 702 125 702 c 2
 133 702 l 2
173 502 m 1
 173 252 l 1
 329 252 l 2
 369 252 450 273 450 382 c 0
 450 481 374 502 315 502 c 2
 173 502 l 1
EndSplineSet
Position2: "'cpsp' Capital Spacing lookup 3 subtable" dx=5 dy=0 dh=10 dv=0
EndChar

StartChar: Q
Encoding: 81 81 133
Width: 731
Flags: MW
HStem: 630 76<296 434.5>
VStem: 57 91<257.5 438.5 256 464.5> 583 91<256.5 438>
LayerCount: 2
Fore
SplineSet
670 -61 m 2
 679 -64 684 -69 684 -76 c 0
 684 -88 665 -148 642 -148 c 0
 630 -148 275 -6 246 6 c 0
 120 56 57 168 57 347 c 0
 57 582 165 706 365 706 c 0
 566 706 674 581 674 347 c 0
 674 157 603 40 473 5 c 1
 473 1 l 1
 670 -61 l 2
365 630 m 0
 227 630 148 530 148 347 c 0
 148 165 227 67 365 67 c 0
 504 67 583 166 583 347 c 0
 583 529 504 630 365 630 c 0
EndSplineSet
Position2: "'cpsp' Capital Spacing lookup 3 subtable" dx=5 dy=0 dh=10 dv=0
EndChar

StartChar: R
Encoding: 82 82 134
Width: 610
Flags: MW
HStem: -2 21G<123 137 137 145 530 540 540 550> 308 76<185 275 185 317> 624 76<185 185 185 295 295 310>
VStem: 97 88<20 308 384 624> 445 91<480 547.5>
LayerCount: 2
Fore
SplineSet
295 700 m 2
 451 700 536 649 536 523 c 0
 536 437 491 382 421 354 c 1
 421 350 l 1
 463 336 485 291 511 225 c 2
 589 28 l 2
 591 22 592 17 592 14 c 0
 592 4 579 -2 550 -2 c 2
 540 -2 l 2
 520 -2 504 4 500 14 c 2
 424 210 l 2
 394 288 353 308 275 308 c 2
 185 308 l 1
 185 20 l 2
 185 6 173 -2 145 -2 c 2
 137 -2 l 2
 109 -2 97 6 97 20 c 2
 97 670 l 2
 97 691 106 700 127 700 c 2
 295 700 l 2
185 624 m 1
 185 384 l 1
 317 384 l 2
 389 384 445 441 445 507 c 0
 445 588 391 624 310 624 c 2
 185 624 l 1
EndSplineSet
Position2: "'cpsp' Capital Spacing lookup 3 subtable" dx=5 dy=0 dh=10 dv=0
EndChar

StartChar: Racute
Encoding: 340 340 135
Width: 610
Flags: MW
HStem: -2 21G<123 137 137 145 530 540 540 550> 308 76<185 275 185 317> 624 76<185 295 295 310 185 185>
VStem: 97 88<20 308 384 624> 445 91<480 547.5>
LayerCount: 2
Fore
SplineSet
385 909 m 0
 417 909 433 906 433 896 c 0
 433 885 423 876 339 780 c 0
 328 768 309 762 288 762 c 0
 272 762 265 765 265 772 c 0
 265 782 277 803 323 883 c 0
 334 902 353 909 385 909 c 0
295 700 m 2
 451 700 536 649 536 523 c 0
 536 437 491 382 421 354 c 1
 421 350 l 1
 463 336 485 291 511 225 c 2
 589 28 l 2
 591 22 592 17 592 14 c 0
 592 4 579 -2 550 -2 c 2
 540 -2 l 2
 520 -2 504 4 500 14 c 2
 424 210 l 2
 394 288 353 308 275 308 c 2
 185 308 l 1
 185 20 l 2
 185 6 173 -2 145 -2 c 2
 137 -2 l 2
 109 -2 97 6 97 20 c 2
 97 670 l 2
 97 691 106 700 127 700 c 2
 295 700 l 2
185 384 m 1
 317 384 l 2
 389 384 445 441 445 507 c 0
 445 588 391 624 310 624 c 2
 185 624 l 1
 185 384 l 1
EndSplineSet
Position2: "'cpsp' Capital Spacing lookup 3 subtable" dx=5 dy=0 dh=10 dv=0
EndChar

StartChar: Rcaron
Encoding: 344 344 136
Width: 610
Flags: MW
HStem: -2 21G<123 137 137 145 530 540 540 550> 308 76<185 275 185 317> 624 76<185 295 295 310 185 185> 759 142<207 292 207 317>
VStem: 97 88<20 308 384 624> 445 91<480 547.5>
LayerCount: 2
Fore
SplineSet
402 901 m 2
 418 901 426 895 426 886 c 0
 426 881 424 875 420 869 c 2
 363 781 l 2
 353 766 337 759 317 759 c 2
 292 759 l 2
 272 759 256 766 246 781 c 2
 190 869 l 2
 186 876 184 882 184 887 c 0
 184 896 192 901 207 901 c 2
 209 901 l 2
 223 901 233 897 243 888 c 1
 304 814 l 1
 367 888 l 1
 377 897 387 901 400 901 c 2
 402 901 l 2
295 700 m 2
 451 700 536 649 536 523 c 0
 536 437 491 382 421 354 c 1
 421 350 l 1
 463 336 485 291 511 225 c 2
 589 28 l 2
 591 22 592 17 592 14 c 0
 592 4 579 -2 550 -2 c 2
 540 -2 l 2
 520 -2 504 4 500 14 c 2
 424 210 l 2
 394 288 353 308 275 308 c 2
 185 308 l 1
 185 20 l 2
 185 6 173 -2 145 -2 c 2
 137 -2 l 2
 109 -2 97 6 97 20 c 2
 97 670 l 2
 97 691 106 700 127 700 c 2
 295 700 l 2
185 384 m 1
 317 384 l 2
 389 384 445 441 445 507 c 0
 445 588 391 624 310 624 c 2
 185 624 l 1
 185 384 l 1
EndSplineSet
Position2: "'cpsp' Capital Spacing lookup 3 subtable" dx=5 dy=0 dh=10 dv=0
EndChar

StartChar: Rcommaaccent
Encoding: 342 342 137
Width: 610
Flags: MW
HStem: -235 21G<240.5 262.5> -2 21G<123 137 137 145 530 540 540 550> 308 76<185 275 185 317> 624 76<185 295 295 310 185 185>
VStem: 97 88<20 308 384 624> 260 89<-121 -73.5> 445 91<480 547.5>
LayerCount: 2
Fore
SplineSet
295 700 m 2
 451 700 536 649 536 523 c 0
 536 437 491 382 421 354 c 1
 421 350 l 1
 463 336 485 291 511 225 c 2
 589 28 l 2
 591 22 592 17 592 14 c 0
 592 4 579 -2 550 -2 c 2
 540 -2 l 2
 520 -2 504 4 500 14 c 2
 424 210 l 2
 394 288 353 308 275 308 c 2
 185 308 l 1
 185 20 l 2
 185 6 173 -2 145 -2 c 2
 137 -2 l 2
 109 -2 97 6 97 20 c 2
 97 670 l 2
 97 691 106 700 127 700 c 2
 295 700 l 2
185 384 m 1
 317 384 l 2
 389 384 445 441 445 507 c 0
 445 588 391 624 310 624 c 2
 185 624 l 1
 185 384 l 1
309 -51 m 2
 334 -51 349 -62 349 -79 c 0
 349 -175 279 -235 246 -235 c 0
 235 -235 217 -232 217 -220 c 0
 217 -197 260 -159 260 -83 c 0
 260 -64 273 -51 300 -51 c 2
 309 -51 l 2
EndSplineSet
Position2: "'cpsp' Capital Spacing lookup 3 subtable" dx=5 dy=0 dh=10 dv=0
EndChar

StartChar: Rdotbelow
Encoding: 7770 7770 138
Width: 610
Flags: MW
HStem: -175 95<293 321> -2 21G<123 137 137 145 530 540 540 550> 308 76<185 275 185 317> 624 76<185 295 295 310 185 185>
VStem: 97 88<20 308 384 624> 265 84<-153 -102 -159.5 -95.5> 445 91<480 547.5>
LayerCount: 2
Fore
SplineSet
295 700 m 2
 451 700 536 649 536 523 c 0
 536 437 491 382 421 354 c 1
 421 350 l 1
 463 336 485 291 511 225 c 2
 589 28 l 2
 591 22 592 17 592 14 c 0
 592 4 579 -2 550 -2 c 2
 540 -2 l 2
 520 -2 504 4 500 14 c 2
 424 210 l 2
 394 288 353 308 275 308 c 2
 185 308 l 1
 185 20 l 2
 185 6 173 -2 145 -2 c 2
 137 -2 l 2
 109 -2 97 6 97 20 c 2
 97 670 l 2
 97 691 106 700 127 700 c 2
 295 700 l 2
185 384 m 1
 317 384 l 2
 389 384 445 441 445 507 c 0
 445 588 391 624 310 624 c 2
 185 624 l 1
 185 384 l 1
265 -102 m 2
 265 -89 277 -80 309 -80 c 0
 337 -80 349 -88 349 -102 c 2
 349 -153 l 2
 349 -166 337 -175 305 -175 c 0
 277 -175 265 -167 265 -153 c 2
 265 -102 l 2
EndSplineSet
Position2: "'cpsp' Capital Spacing lookup 3 subtable" dx=5 dy=0 dh=10 dv=0
EndChar

StartChar: S
Encoding: 83 83 139
Width: 500
Flags: MW
HStem: -6 76<192.5 282 192.5 311.5> 630 76<232.5 300.5 205 309.5>
VStem: 50 91<480.5 553.5 480.5 575> 375 91<152.5 228>
LayerCount: 2
Fore
SplineSet
272 706 m 0
 329 706 433 681 433 645 c 0
 433 630 411 592 401 592 c 0
 386 592 349 630 270 630 c 0
 195 630 141 590 141 517 c 0
 141 444 205 425 277 398 c 0
 366 364 466 324 466 188 c 0
 466 68 379 -6 244 -6 c 0
 127 -6 37 40 37 67 c 0
 37 83 61 121 72 121 c 0
 85 121 141 70 244 70 c 0
 320 70 375 117 375 188 c 0
 375 268 301 294 224 324 c 0
 139 357 50 390 50 521 c 0
 50 629 138 706 272 706 c 0
EndSplineSet
Position2: "'cpsp' Capital Spacing lookup 3 subtable" dx=5 dy=0 dh=10 dv=0
EndChar

StartChar: Sacute
Encoding: 346 346 140
Width: 500
Flags: MW
HStem: -6 76<192.5 282 192.5 311.5> 630 76<232.5 300.5 205 309.5>
VStem: 50 91<480.5 553.5 480.5 575> 375 91<152.5 228>
LayerCount: 2
Fore
SplineSet
330 909 m 0
 362 909 378 906 378 896 c 0
 378 885 368 876 284 780 c 0
 273 768 254 762 233 762 c 0
 217 762 210 765 210 772 c 0
 210 782 222 803 268 883 c 0
 279 902 298 909 330 909 c 0
272 706 m 0
 329 706 433 681 433 645 c 0
 433 630 411 592 401 592 c 0
 386 592 349 630 270 630 c 0
 195 630 141 590 141 517 c 0
 141 444 205 425 277 398 c 0
 366 364 466 324 466 188 c 0
 466 68 379 -6 244 -6 c 0
 127 -6 37 40 37 67 c 0
 37 83 61 121 72 121 c 0
 85 121 141 70 244 70 c 0
 320 70 375 117 375 188 c 0
 375 268 301 294 224 324 c 0
 139 357 50 390 50 521 c 0
 50 629 138 706 272 706 c 0
EndSplineSet
Substitution2: "'locl' Localized Forms in Latin lookup 12 subtable" Sacute.loclPLK
Substitution2: "'aalt' Access All Alternates lookup 0 subtable" Sacute.loclPLK
Position2: "'cpsp' Capital Spacing lookup 3 subtable" dx=5 dy=0 dh=10 dv=0
EndChar

StartChar: Scaron
Encoding: 352 352 141
Width: 500
Flags: MW
HStem: -6 76<192.5 282 192.5 311.5> 630 76<232.5 300.5 205 309.5> 759 142<152 237 152 262>
VStem: 50 91<480.5 553.5 480.5 575> 375 91<152.5 228>
LayerCount: 2
Fore
SplineSet
347 901 m 2
 363 901 371 895 371 886 c 0
 371 881 369 875 365 869 c 2
 308 781 l 2
 298 766 282 759 262 759 c 2
 237 759 l 2
 217 759 201 766 191 781 c 2
 135 869 l 2
 131 876 129 882 129 887 c 0
 129 896 137 901 152 901 c 2
 154 901 l 2
 168 901 178 897 188 888 c 1
 249 814 l 1
 312 888 l 1
 322 897 332 901 345 901 c 2
 347 901 l 2
272 706 m 0
 329 706 433 681 433 645 c 0
 433 630 411 592 401 592 c 0
 386 592 349 630 270 630 c 0
 195 630 141 590 141 517 c 0
 141 444 205 425 277 398 c 0
 366 364 466 324 466 188 c 0
 466 68 379 -6 244 -6 c 0
 127 -6 37 40 37 67 c 0
 37 83 61 121 72 121 c 0
 85 121 141 70 244 70 c 0
 320 70 375 117 375 188 c 0
 375 268 301 294 224 324 c 0
 139 357 50 390 50 521 c 0
 50 629 138 706 272 706 c 0
EndSplineSet
Position2: "'cpsp' Capital Spacing lookup 3 subtable" dx=5 dy=0 dh=10 dv=0
EndChar

StartChar: Scedilla
Encoding: 350 350 142
Width: 500
Flags: MW
HStem: -210 49<211.5 233 202 259> -6 76 630 76<232.5 300.5 205 309.5>
VStem: 50 91<480.5 553.5 480.5 575> 278 71<-141.5 -103.5> 375 91<152.5 228>
LayerCount: 2
Fore
SplineSet
264 -49 m 2
 286 -49 349 -56 349 -121 c 0
 349 -199 284 -210 234 -210 c 0
 189 -210 119 -194 119 -167 c 0
 119 -155 123 -141 138 -141 c 0
 154 -141 183 -161 221 -161 c 0
 245 -161 278 -157 278 -126 c 0
 278 -81 212 -95 212 -68 c 0
 212 -60 214 -54 229 -6 c 1xfc
 119 -2 37 41 37 67 c 0
 37 83 61 121 72 121 c 0
 85 121 141 70 244 70 c 0
 320 70 375 117 375 188 c 0
 375 268 301 294 224 324 c 0
 139 357 50 390 50 521 c 0
 50 629 138 706 272 706 c 0
 329 706 433 681 433 645 c 0
 433 630 411 592 401 592 c 0
 386 592 349 630 270 630 c 0
 195 630 141 590 141 517 c 0
 141 444 205 425 277 398 c 0
 366 364 466 324 466 188 c 0xf4
 466 77 391 5 273 -5 c 1
 260 -49 l 1
 264 -49 l 2
EndSplineSet
Substitution2: "'locl' Localized Forms in Latin lookup 11 subtable" Scommaaccent
Substitution2: "'locl' Localized Forms in Latin lookup 10 subtable" Scommaaccent
Substitution2: "'aalt' Access All Alternates lookup 0 subtable" Scommaaccent
Position2: "'cpsp' Capital Spacing lookup 3 subtable" dx=5 dy=0 dh=10 dv=0
EndChar

StartChar: Scircumflex
Encoding: 348 348 143
Width: 500
Flags: MW
HStem: -6 76<192.5 282 192.5 311.5> 630 76<232.5 300.5 205 309.5> 753 142<144.5 262 152 262 237 345 237 347>
VStem: 50 91<480.5 553.5 480.5 575> 375 91<152.5 228>
LayerCount: 2
Fore
SplineSet
262 895 m 2
 282 895 298 888 308 873 c 2
 365 785 l 2
 369 779 371 773 371 768 c 0
 371 759 363 753 347 753 c 2
 345 753 l 2
 332 753 322 757 312 766 c 1
 249 840 l 1
 188 766 l 1
 178 757 168 753 154 753 c 2
 152 753 l 2
 137 753 129 758 129 767 c 0
 129 772 131 778 135 785 c 2
 191 873 l 2
 201 888 217 895 237 895 c 2
 262 895 l 2
272 706 m 0
 329 706 433 681 433 645 c 0
 433 630 411 592 401 592 c 0
 386 592 349 630 270 630 c 0
 195 630 141 590 141 517 c 0
 141 444 205 425 277 398 c 0
 366 364 466 324 466 188 c 0
 466 68 379 -6 244 -6 c 0
 127 -6 37 40 37 67 c 0
 37 83 61 121 72 121 c 0
 85 121 141 70 244 70 c 0
 320 70 375 117 375 188 c 0
 375 268 301 294 224 324 c 0
 139 357 50 390 50 521 c 0
 50 629 138 706 272 706 c 0
EndSplineSet
Position2: "'cpsp' Capital Spacing lookup 3 subtable" dx=5 dy=0 dh=10 dv=0
EndChar

StartChar: Scommaaccent
Encoding: 536 536 144
Width: 500
Flags: MW
HStem: -235 21G<185.5 207.5> -6 76<192.5 282 192.5 311.5> 630 76<232.5 300.5 205 309.5>
VStem: 50 91<480.5 553.5 480.5 575> 205 89<-121 -73.5> 375 91<152.5 228>
LayerCount: 2
Fore
SplineSet
272 706 m 0
 329 706 433 681 433 645 c 0
 433 630 411 592 401 592 c 0
 386 592 349 630 270 630 c 0
 195 630 141 590 141 517 c 0
 141 444 205 425 277 398 c 0
 366 364 466 324 466 188 c 0
 466 68 379 -6 244 -6 c 0
 127 -6 37 40 37 67 c 0
 37 83 61 121 72 121 c 0
 85 121 141 70 244 70 c 0
 320 70 375 117 375 188 c 0
 375 268 301 294 224 324 c 0
 139 357 50 390 50 521 c 0
 50 629 138 706 272 706 c 0
254 -51 m 2
 279 -51 294 -62 294 -79 c 0
 294 -175 224 -235 191 -235 c 0
 180 -235 162 -232 162 -220 c 0
 162 -197 205 -159 205 -83 c 0
 205 -64 218 -51 245 -51 c 2
 254 -51 l 2
EndSplineSet
Position2: "'cpsp' Capital Spacing lookup 3 subtable" dx=5 dy=0 dh=10 dv=0
EndChar

StartChar: Sdotbelow
Encoding: 7778 7778 145
Width: 500
Flags: MW
HStem: -175 95<238 266> -6 76<192.5 282 192.5 311.5> 630 76<232.5 300.5 205 309.5>
VStem: 50 91<480.5 553.5 480.5 575> 210 84<-153 -102 -159.5 -95.5> 375 91<152.5 228>
LayerCount: 2
Fore
SplineSet
272 706 m 0
 329 706 433 681 433 645 c 0
 433 630 411 592 401 592 c 0
 386 592 349 630 270 630 c 0
 195 630 141 590 141 517 c 0
 141 444 205 425 277 398 c 0
 366 364 466 324 466 188 c 0
 466 68 379 -6 244 -6 c 0
 127 -6 37 40 37 67 c 0
 37 83 61 121 72 121 c 0
 85 121 141 70 244 70 c 0
 320 70 375 117 375 188 c 0
 375 268 301 294 224 324 c 0
 139 357 50 390 50 521 c 0
 50 629 138 706 272 706 c 0
210 -102 m 2
 210 -89 222 -80 254 -80 c 0
 282 -80 294 -88 294 -102 c 2
 294 -153 l 2
 294 -166 282 -175 250 -175 c 0
 222 -175 210 -167 210 -153 c 2
 210 -102 l 2
EndSplineSet
Position2: "'cpsp' Capital Spacing lookup 3 subtable" dx=5 dy=0 dh=10 dv=0
EndChar

StartChar: uni1E9E
Encoding: 7838 7838 146
Width: 700
Flags: MW
HStem: -6 72<383.5 451 383.5 478.5> -2 21G<118 132 132 140> 630 76
VStem: 92 88<20 429> 573 87<149.5 255>
LayerCount: 2
Fore
SplineSet
466 401 m 1xb8
 579 383 660 324 660 203 c 0
 660 49 530 -6 427 -6 c 0
 328 -6 284 26 256 51 c 1
 256 70 280 101 291 101 c 0
 333 101 348 66 419 66 c 0xb8
 483 66 573 95 573 204 c 0
 573 306 509 336 413 336 c 2
 378 336 l 2
 368 336 354 369 354 389 c 0
 354 394 355 398 357 401 c 2
 509 609 l 1
 476 620 429 630 368 630 c 0
 240 630 180 570 180 429 c 2
 180 20 l 2
 180 6 168 -2 140 -2 c 2
 132 -2 l 2
 104 -2 92 6 92 20 c 2x78
 92 430 l 2
 92 613 187 707 366 706 c 1
 461 703 546 686 597 671 c 0
 604 669 619 639 619 618 c 0
 619 613 618 609 616 606 c 2
 466 401 l 1xb8
EndSplineSet
Position2: "'cpsp' Capital Spacing lookup 3 subtable" dx=5 dy=0 dh=10 dv=0
EndChar

StartChar: Schwa
Encoding: 399 399 147
Width: 672
Flags: MW
HStem: -9 72<246.5 362.5 246.5 395> 291 72<134 134 134 494> 634 72<238.5 361.5>
VStem: 45 89<214 291 214 328> 494 90<291 291 363 363>
LayerCount: 2
Fore
SplineSet
494 363 m 1
 482 551 423 634 300 634 c 0
 177 634 110 572 94 572 c 0
 80 572 59 611 59 622 c 0
 59 654 162 706 299 706 c 0
 493 706 584 588 584 332 c 0
 584 106 489 -9 301 -9 c 0
 129 -9 45 103 45 322 c 0
 45 334 66 363 78 363 c 2
 494 363 l 1
134 291 m 1
 134 137 189 63 304 63 c 0
 421 63 487 137 494 291 c 1
 134 291 l 1
EndSplineSet
Position2: "'cpsp' Capital Spacing lookup 3 subtable" dx=5 dy=0 dh=10 dv=0
EndChar

StartChar: T
Encoding: 84 84 148
Width: 549
Flags: MW
HStem: -2 21G<258 272 272 280> 624 76<33 509 40 232 320 509 320 320>
VStem: 232 88<20 624>
LayerCount: 2
Fore
SplineSet
509 700 m 2
 523 700 529 691 529 670 c 2
 529 654 l 2
 529 633 523 624 509 624 c 2
 320 624 l 1
 320 20 l 2
 320 6 308 -2 280 -2 c 2
 272 -2 l 2
 244 -2 232 6 232 20 c 2
 232 624 l 1
 40 624 l 2
 26 624 20 633 20 654 c 2
 20 670 l 2
 20 691 26 700 40 700 c 2
 509 700 l 2
EndSplineSet
Position2: "'cpsp' Capital Spacing lookup 3 subtable" dx=5 dy=0 dh=10 dv=0
EndChar

StartChar: Tbar
Encoding: 358 358 149
Width: 549
Flags: MW
HStem: -2 21G<258 272 272 280> 318 70<90 232 97 232 320 460> 624 76<33 509 40 232 320 509 320 320>
VStem: 232 88<20 318 388 624>
LayerCount: 2
Fore
SplineSet
509 700 m 2
 523 700 529 691 529 670 c 2
 529 654 l 2
 529 633 523 624 509 624 c 2
 320 624 l 1
 320 388 l 1
 460 388 l 2
 474 388 480 379 480 358 c 2
 480 348 l 2
 480 327 474 318 460 318 c 2
 320 318 l 1
 320 20 l 2
 320 6 308 -2 280 -2 c 2
 272 -2 l 2
 244 -2 232 6 232 20 c 2
 232 318 l 1
 97 318 l 2
 83 318 77 327 77 348 c 2
 77 358 l 2
 77 379 83 388 97 388 c 2
 232 388 l 1
 232 624 l 1
 40 624 l 2
 26 624 20 633 20 654 c 2
 20 670 l 2
 20 691 26 700 40 700 c 2
 509 700 l 2
EndSplineSet
Position2: "'cpsp' Capital Spacing lookup 3 subtable" dx=5 dy=0 dh=10 dv=0
EndChar

StartChar: Tcaron
Encoding: 356 356 150
Width: 549
Flags: MW
HStem: -2 21G<258 272 272 280> 624 76<33 509 40 232 320 509 320 320> 759 142<177 262 177 287>
VStem: 232 88<20 624>
LayerCount: 2
Fore
SplineSet
372 901 m 2
 388 901 396 895 396 886 c 0
 396 881 394 875 390 869 c 2
 333 781 l 2
 323 766 307 759 287 759 c 2
 262 759 l 2
 242 759 226 766 216 781 c 2
 160 869 l 2
 156 876 154 882 154 887 c 0
 154 896 162 901 177 901 c 2
 179 901 l 2
 193 901 203 897 213 888 c 1
 274 814 l 1
 337 888 l 1
 347 897 357 901 370 901 c 2
 372 901 l 2
509 700 m 2
 523 700 529 691 529 670 c 2
 529 654 l 2
 529 633 523 624 509 624 c 2
 320 624 l 1
 320 20 l 2
 320 6 308 -2 280 -2 c 2
 272 -2 l 2
 244 -2 232 6 232 20 c 2
 232 624 l 1
 40 624 l 2
 26 624 20 633 20 654 c 2
 20 670 l 2
 20 691 26 700 40 700 c 2
 509 700 l 2
EndSplineSet
Position2: "'cpsp' Capital Spacing lookup 3 subtable" dx=5 dy=0 dh=10 dv=0
EndChar

StartChar: Tcedilla
Encoding: 354 354 151
Width: 549
Flags: MW
HStem: -210 49<236.5 258 227 284> -1 21G 624 76<33 509 40 232 320 509 320 320>
VStem: 232 88<20 624> 303 71<-141.5 -103.5>
LayerCount: 2
Fore
SplineSet
509 700 m 2xf0
 523 700 529 691 529 670 c 2
 529 654 l 2
 529 633 523 624 509 624 c 2
 320 624 l 1
 320 20 l 2
 320 10 313 3 299 0 c 1xf0
 285 -49 l 1
 289 -49 l 2
 311 -49 374 -56 374 -121 c 0
 374 -199 309 -210 259 -210 c 0
 214 -210 144 -194 144 -167 c 0
 144 -155 148 -141 163 -141 c 0
 179 -141 208 -161 246 -161 c 0
 270 -161 303 -157 303 -126 c 0
 303 -81 237 -95 237 -68 c 0xe8
 237 -60 239 -53 256 -1 c 1
 239 2 232 9 232 20 c 2
 232 624 l 1
 40 624 l 2
 26 624 20 633 20 654 c 2
 20 670 l 2
 20 691 26 700 40 700 c 2
 509 700 l 2xf0
EndSplineSet
Substitution2: "'locl' Localized Forms in Latin lookup 11 subtable" uni021A
Substitution2: "'locl' Localized Forms in Latin lookup 10 subtable" uni021A
Substitution2: "'aalt' Access All Alternates lookup 0 subtable" uni021A
Position2: "'cpsp' Capital Spacing lookup 3 subtable" dx=5 dy=0 dh=10 dv=0
EndChar

StartChar: uni021A
Encoding: 538 538 152
Width: 549
Flags: MW
HStem: -235 21G<210.5 232.5> -2 21G<258 272 272 280> 624 76<33 509 40 232 320 509 320 320>
VStem: 232 88<20 624>
LayerCount: 2
Fore
SplineSet
509 700 m 2
 523 700 529 691 529 670 c 2
 529 654 l 2
 529 633 523 624 509 624 c 2
 320 624 l 1
 320 20 l 2
 320 6 308 -2 280 -2 c 2
 272 -2 l 2
 244 -2 232 6 232 20 c 2
 232 624 l 1
 40 624 l 2
 26 624 20 633 20 654 c 2
 20 670 l 2
 20 691 26 700 40 700 c 2
 509 700 l 2
279 -51 m 2
 304 -51 319 -62 319 -79 c 0
 319 -175 249 -235 216 -235 c 0
 205 -235 187 -232 187 -220 c 0
 187 -197 230 -159 230 -83 c 0
 230 -64 243 -51 270 -51 c 2
 279 -51 l 2
EndSplineSet
Position2: "'cpsp' Capital Spacing lookup 3 subtable" dx=5 dy=0 dh=10 dv=0
EndChar

StartChar: Tdotbelow
Encoding: 7788 7788 153
Width: 549
Flags: MW
HStem: -175 95<263 291> -2 21G<258 272 272 280> 624 76<33 509 40 232 320 509 320 320>
VStem: 232 88<20 624> 235 84<-153 -102 -159.5 -95.5>
LayerCount: 2
Fore
SplineSet
509 700 m 2xf0
 523 700 529 691 529 670 c 2
 529 654 l 2
 529 633 523 624 509 624 c 2
 320 624 l 1
 320 20 l 2
 320 6 308 -2 280 -2 c 2
 272 -2 l 2
 244 -2 232 6 232 20 c 2
 232 624 l 1
 40 624 l 2
 26 624 20 633 20 654 c 2
 20 670 l 2
 20 691 26 700 40 700 c 2
 509 700 l 2xf0
235 -102 m 2xe8
 235 -89 247 -80 279 -80 c 0
 307 -80 319 -88 319 -102 c 2
 319 -153 l 2
 319 -166 307 -175 275 -175 c 0
 247 -175 235 -167 235 -153 c 2
 235 -102 l 2xe8
EndSplineSet
Position2: "'cpsp' Capital Spacing lookup 3 subtable" dx=5 dy=0 dh=10 dv=0
EndChar

StartChar: U
Encoding: 85 85 154
Width: 712
Flags: MW
HStem: -6 76<303 409.5 303 444> 682 20G<123 131 131 145 581 589 589 603>
VStem: 83 88<224 680> 541 88<221 224 224 680>
LayerCount: 2
Fore
SplineSet
589 702 m 2
 617 702 629 694 629 680 c 2
 629 224 l 2
 629 80 532 -6 356 -6 c 0
 179 -6 83 80 83 224 c 2
 83 680 l 2
 83 694 95 702 123 702 c 2
 131 702 l 2
 159 702 171 694 171 680 c 2
 171 221 l 2
 171 132 250 70 356 70 c 0
 463 70 541 133 541 221 c 2
 541 680 l 2
 541 694 553 702 581 702 c 2
 589 702 l 2
EndSplineSet
Position2: "'cpsp' Capital Spacing lookup 3 subtable" dx=5 dy=0 dh=10 dv=0
EndChar

StartChar: Uacute
Encoding: 218 218 155
Width: 712
Flags: MW
HStem: -6 76<303 409.5 303 444> 682 20G<123 131 131 145 581 589 589 603>
VStem: 83 88<224 680> 541 88<221 224 224 680>
LayerCount: 2
Fore
SplineSet
436 909 m 0
 468 909 484 906 484 896 c 0
 484 885 474 876 390 780 c 0
 379 768 360 762 339 762 c 0
 323 762 316 765 316 772 c 0
 316 782 328 803 374 883 c 0
 385 902 404 909 436 909 c 0
589 702 m 2
 617 702 629 694 629 680 c 2
 629 224 l 2
 629 80 532 -6 356 -6 c 0
 179 -6 83 80 83 224 c 2
 83 680 l 2
 83 694 95 702 123 702 c 2
 131 702 l 2
 159 702 171 694 171 680 c 2
 171 221 l 2
 171 132 250 70 356 70 c 0
 463 70 541 133 541 221 c 2
 541 680 l 2
 541 694 553 702 581 702 c 2
 589 702 l 2
EndSplineSet
Position2: "'cpsp' Capital Spacing lookup 3 subtable" dx=5 dy=0 dh=10 dv=0
EndChar

StartChar: Ubreve
Encoding: 364 364 156
Width: 712
Flags: MW
HStem: -6 76<303 409.5 303 444> 682 20G<123 131 131 145 581 589 589 603> 762 66<332.5 381.5 332.5 392.5>
VStem: 83 88<224 680> 541 88<221 224 224 680>
LayerCount: 2
Fore
SplineSet
486 892 m 0
 497 892 501 887 501 877 c 0
 501 800 428 762 357 762 c 0
 285 762 212 800 212 877 c 0
 212 887 216 892 227 892 c 0
 244 892 241 883 249 867 c 0
 264 839 308 828 357 828 c 0
 406 828 449 839 464 867 c 0
 472 883 469 892 486 892 c 0
589 702 m 2
 617 702 629 694 629 680 c 2
 629 224 l 2
 629 80 532 -6 356 -6 c 0
 179 -6 83 80 83 224 c 2
 83 680 l 2
 83 694 95 702 123 702 c 2
 131 702 l 2
 159 702 171 694 171 680 c 2
 171 221 l 2
 171 132 250 70 356 70 c 0
 463 70 541 133 541 221 c 2
 541 680 l 2
 541 694 553 702 581 702 c 2
 589 702 l 2
EndSplineSet
Position2: "'cpsp' Capital Spacing lookup 3 subtable" dx=5 dy=0 dh=10 dv=0
EndChar

StartChar: Ucircumflex
Encoding: 219 219 157
Width: 712
Flags: MW
HStem: -6 76<303 409.5 303 444> 682 20G<123 131 131 145 581 589 589 603> 753 142<250.5 368 258 368 343 451 343 453>
VStem: 83 88<224 680> 541 88<221 224 224 680>
LayerCount: 2
Fore
SplineSet
368 895 m 2
 388 895 404 888 414 873 c 2
 471 785 l 2
 475 779 477 773 477 768 c 0
 477 759 469 753 453 753 c 2
 451 753 l 2
 438 753 428 757 418 766 c 1
 355 840 l 1
 294 766 l 1
 284 757 274 753 260 753 c 2
 258 753 l 2
 243 753 235 758 235 767 c 0
 235 772 237 778 241 785 c 2
 297 873 l 2
 307 888 323 895 343 895 c 2
 368 895 l 2
589 702 m 2
 617 702 629 694 629 680 c 2
 629 224 l 2
 629 80 532 -6 356 -6 c 0
 179 -6 83 80 83 224 c 2
 83 680 l 2
 83 694 95 702 123 702 c 2
 131 702 l 2
 159 702 171 694 171 680 c 2
 171 221 l 2
 171 132 250 70 356 70 c 0
 463 70 541 133 541 221 c 2
 541 680 l 2
 541 694 553 702 581 702 c 2
 589 702 l 2
EndSplineSet
Position2: "'cpsp' Capital Spacing lookup 3 subtable" dx=5 dy=0 dh=10 dv=0
EndChar

StartChar: Udieresis
Encoding: 220 220 158
Width: 712
Flags: MW
HStem: -6 76<303 409.5 303 444> 682 20G<123 131 131 145 581 589 589 603> 784 95<270 298 414 442>
VStem: 83 88<224 680> 242 84<806 857 799.5 863.5> 386 84<806 857 799.5 863.5> 541 88<221 224 224 680>
LayerCount: 2
Fore
SplineSet
242 857 m 2
 242 870 254 879 286 879 c 0
 314 879 326 871 326 857 c 2
 326 806 l 2
 326 793 314 784 282 784 c 0
 254 784 242 792 242 806 c 2
 242 857 l 2
386 857 m 2
 386 870 398 879 430 879 c 0
 458 879 470 871 470 857 c 2
 470 806 l 2
 470 793 458 784 426 784 c 0
 398 784 386 792 386 806 c 2
 386 857 l 2
589 702 m 2
 617 702 629 694 629 680 c 2
 629 224 l 2
 629 80 532 -6 356 -6 c 0
 179 -6 83 80 83 224 c 2
 83 680 l 2
 83 694 95 702 123 702 c 2
 131 702 l 2
 159 702 171 694 171 680 c 2
 171 221 l 2
 171 132 250 70 356 70 c 0
 463 70 541 133 541 221 c 2
 541 680 l 2
 541 694 553 702 581 702 c 2
 589 702 l 2
EndSplineSet
Position2: "'cpsp' Capital Spacing lookup 3 subtable" dx=5 dy=0 dh=10 dv=0
EndChar

StartChar: Udotbelow
Encoding: 7908 7908 159
Width: 712
Flags: MW
HStem: -175 95<345 373> -6 76<303 409.5 303 444> 682 20G<123 131 131 145 581 589 589 603>
VStem: 83 88<224 680> 317 84<-153 -102 -159.5 -95.5> 541 88<221 224 224 680>
LayerCount: 2
Fore
SplineSet
589 702 m 2
 617 702 629 694 629 680 c 2
 629 224 l 2
 629 80 532 -6 356 -6 c 0
 179 -6 83 80 83 224 c 2
 83 680 l 2
 83 694 95 702 123 702 c 2
 131 702 l 2
 159 702 171 694 171 680 c 2
 171 221 l 2
 171 132 250 70 356 70 c 0
 463 70 541 133 541 221 c 2
 541 680 l 2
 541 694 553 702 581 702 c 2
 589 702 l 2
317 -102 m 2
 317 -89 329 -80 361 -80 c 0
 389 -80 401 -88 401 -102 c 2
 401 -153 l 2
 401 -166 389 -175 357 -175 c 0
 329 -175 317 -167 317 -153 c 2
 317 -102 l 2
EndSplineSet
Position2: "'cpsp' Capital Spacing lookup 3 subtable" dx=5 dy=0 dh=10 dv=0
EndChar

StartChar: Ugrave
Encoding: 217 217 160
Width: 712
Flags: MW
HStem: -6 76<303 409.5 303 444> 682 20G<123 131 131 145 581 589 589 603>
VStem: 83 88<224 680> 541 88<221 224 224 680>
LayerCount: 2
Fore
SplineSet
286 909 m 0
 318 909 337 902 348 883 c 0
 394 803 406 782 406 772 c 0
 406 765 399 762 383 762 c 0
 362 762 343 768 332 780 c 0
 248 876 238 885 238 896 c 0
 238 906 254 909 286 909 c 0
589 702 m 2
 617 702 629 694 629 680 c 2
 629 224 l 2
 629 80 532 -6 356 -6 c 0
 179 -6 83 80 83 224 c 2
 83 680 l 2
 83 694 95 702 123 702 c 2
 131 702 l 2
 159 702 171 694 171 680 c 2
 171 221 l 2
 171 132 250 70 356 70 c 0
 463 70 541 133 541 221 c 2
 541 680 l 2
 541 694 553 702 581 702 c 2
 589 702 l 2
EndSplineSet
Position2: "'cpsp' Capital Spacing lookup 3 subtable" dx=5 dy=0 dh=10 dv=0
EndChar

StartChar: Uhookabove
Encoding: 7910 7910 161
Width: 712
Flags: MW
HStem: -6 76<303 409.5 303 444> 682 20G<123 131 131 145 581 589 589 603> 876 51<345.5 365>
VStem: 83 88<224 680> 392 62<824 858> 541 88<221 224 224 680>
LayerCount: 2
Fore
SplineSet
392 849 m 0
 392 867 375 876 355 876 c 0
 324 876 314 863 309 863 c 0
 301 863 285 886 285 896 c 0
 285 909 328 927 363 927 c 0
 397 927 454 911 454 856 c 0
 454 790 375 740 363 740 c 0
 354 740 330 748 330 757 c 0
 330 786 392 799 392 849 c 0
589 702 m 2
 617 702 629 694 629 680 c 2
 629 224 l 2
 629 80 532 -6 356 -6 c 0
 179 -6 83 80 83 224 c 2
 83 680 l 2
 83 694 95 702 123 702 c 2
 131 702 l 2
 159 702 171 694 171 680 c 2
 171 221 l 2
 171 132 250 70 356 70 c 0
 463 70 541 133 541 221 c 2
 541 680 l 2
 541 694 553 702 581 702 c 2
 589 702 l 2
EndSplineSet
Position2: "'cpsp' Capital Spacing lookup 3 subtable" dx=5 dy=0 dh=10 dv=0
EndChar

StartChar: Uhorn
Encoding: 431 431 162
Width: 712
Flags: MW
HStem: -6 76<303 409.5 303 444> 669 33<629 629>
VStem: 83 88<224 680> 541 88<221 224 224 669> 671 61<733.5 735>
LayerCount: 2
Fore
SplineSet
677 829 m 2
 681 832 685 833 689 833 c 0
 712 833 732 788 732 759 c 0
 732 708 700 672 629 669 c 1
 629 224 l 2
 629 80 532 -6 356 -6 c 0
 179 -6 83 80 83 224 c 2
 83 680 l 2
 83 694 95 702 123 702 c 2
 131 702 l 2
 159 702 171 694 171 680 c 2
 171 221 l 2
 171 132 250 70 356 70 c 0
 463 70 541 133 541 221 c 2
 541 680 l 2
 541 694 553 702 581 702 c 2
 616 702 l 2
 659 702 671 719 671 735 c 1
 674 765 647 785 644 797 c 1
 644 803 647 809 653 813 c 2
 677 829 l 2
EndSplineSet
Position2: "'cpsp' Capital Spacing lookup 3 subtable" dx=5 dy=0 dh=10 dv=0
EndChar

StartChar: Uhornacute
Encoding: 7912 7912 163
Width: 712
Flags: MW
HStem: -6 76<303 409.5 303 444> 669 33<629 629>
VStem: 83 88<224 680> 541 88<221 224 224 669> 671 61<733.5 735>
LayerCount: 2
Fore
SplineSet
339 762 m 0
 323 762 316 765 316 772 c 0
 316 782 328 803 374 883 c 0
 385 902 404 909 436 909 c 0
 468 909 484 906 484 896 c 0
 484 885 474 876 390 780 c 0
 379 768 360 762 339 762 c 0
677 829 m 2
 681 832 685 833 689 833 c 0
 712 833 732 788 732 759 c 0
 732 708 700 672 629 669 c 1
 629 224 l 2
 629 80 532 -6 356 -6 c 0
 179 -6 83 80 83 224 c 2
 83 680 l 2
 83 694 95 702 123 702 c 2
 131 702 l 2
 159 702 171 694 171 680 c 2
 171 221 l 2
 171 132 250 70 356 70 c 0
 463 70 541 133 541 221 c 2
 541 680 l 2
 541 694 553 702 581 702 c 2
 616 702 l 2
 659 702 671 719 671 735 c 1
 674 765 647 785 644 797 c 1
 644 803 647 809 653 813 c 2
 677 829 l 2
EndSplineSet
Position2: "'cpsp' Capital Spacing lookup 3 subtable" dx=5 dy=0 dh=10 dv=0
EndChar

StartChar: Uhorndotbelow
Encoding: 7920 7920 164
Width: 712
Flags: MW
HStem: -175 95<345 373> -6 76<303 409.5 303 444> 669 33<629 629>
VStem: 83 88<224 680> 317 84<-153 -102 -159.5 -95.5> 541 88<221 224 224 669> 671 61<733.5 735>
LayerCount: 2
Fore
SplineSet
677 829 m 2
 681 832 685 833 689 833 c 0
 712 833 732 788 732 759 c 0
 732 708 700 672 629 669 c 1
 629 224 l 2
 629 80 532 -6 356 -6 c 0
 179 -6 83 80 83 224 c 2
 83 680 l 2
 83 694 95 702 123 702 c 2
 131 702 l 2
 159 702 171 694 171 680 c 2
 171 221 l 2
 171 132 250 70 356 70 c 0
 463 70 541 133 541 221 c 2
 541 680 l 2
 541 694 553 702 581 702 c 2
 616 702 l 2
 659 702 671 719 671 735 c 1
 674 765 647 785 644 797 c 1
 644 803 647 809 653 813 c 2
 677 829 l 2
317 -102 m 2
 317 -89 329 -80 361 -80 c 0
 389 -80 401 -88 401 -102 c 2
 401 -153 l 2
 401 -166 389 -175 357 -175 c 0
 329 -175 317 -167 317 -153 c 2
 317 -102 l 2
EndSplineSet
Position2: "'cpsp' Capital Spacing lookup 3 subtable" dx=5 dy=0 dh=10 dv=0
EndChar

StartChar: Uhorngrave
Encoding: 7914 7914 165
Width: 712
Flags: MW
HStem: -6 76<303 409.5 303 444> 669 33<629 629>
VStem: 83 88<224 680> 541 88<221 224 224 669> 671 61<733.5 735>
LayerCount: 2
Fore
SplineSet
383 762 m 0
 362 762 343 768 332 780 c 0
 248 876 238 885 238 896 c 0
 238 906 254 909 286 909 c 0
 318 909 337 902 348 883 c 0
 394 803 406 782 406 772 c 0
 406 765 399 762 383 762 c 0
677 829 m 2
 681 832 685 833 689 833 c 0
 712 833 732 788 732 759 c 0
 732 708 700 672 629 669 c 1
 629 224 l 2
 629 80 532 -6 356 -6 c 0
 179 -6 83 80 83 224 c 2
 83 680 l 2
 83 694 95 702 123 702 c 2
 131 702 l 2
 159 702 171 694 171 680 c 2
 171 221 l 2
 171 132 250 70 356 70 c 0
 463 70 541 133 541 221 c 2
 541 680 l 2
 541 694 553 702 581 702 c 2
 616 702 l 2
 659 702 671 719 671 735 c 1
 674 765 647 785 644 797 c 1
 644 803 647 809 653 813 c 2
 677 829 l 2
EndSplineSet
Position2: "'cpsp' Capital Spacing lookup 3 subtable" dx=5 dy=0 dh=10 dv=0
EndChar

StartChar: Uhornhookabove
Encoding: 7916 7916 166
Width: 712
Flags: MW
HStem: -6 76<303 409.5 303 444> 669 33<629 629> 876 51<345.5 365>
VStem: 83 88<224 680> 392 62<824 858> 541 88<221 224 224 669> 671 61<733.5 735>
LayerCount: 2
Fore
SplineSet
309 863 m 0
 301 863 285 886 285 896 c 0
 285 909 328 927 363 927 c 0
 397 927 454 911 454 856 c 0
 454 790 375 740 363 740 c 0
 354 740 330 748 330 757 c 0
 330 786 392 799 392 849 c 0
 392 867 375 876 355 876 c 0
 324 876 314 863 309 863 c 0
677 829 m 2
 681 832 685 833 689 833 c 0
 712 833 732 788 732 759 c 0
 732 708 700 672 629 669 c 1
 629 224 l 2
 629 80 532 -6 356 -6 c 0
 179 -6 83 80 83 224 c 2
 83 680 l 2
 83 694 95 702 123 702 c 2
 131 702 l 2
 159 702 171 694 171 680 c 2
 171 221 l 2
 171 132 250 70 356 70 c 0
 463 70 541 133 541 221 c 2
 541 680 l 2
 541 694 553 702 581 702 c 2
 616 702 l 2
 659 702 671 719 671 735 c 1
 674 765 647 785 644 797 c 1
 644 803 647 809 653 813 c 2
 677 829 l 2
EndSplineSet
Position2: "'cpsp' Capital Spacing lookup 3 subtable" dx=5 dy=0 dh=10 dv=0
EndChar

StartChar: Uhorntilde
Encoding: 7918 7918 167
Width: 712
Flags: MW
HStem: -6 76<303 409.5 303 444> 669 33<629 629> 762 64<413 430.5> 792 64<282.5 300.5>
VStem: 83 88<224 680> 541 88<221 224 224 669> 671 61<733.5 735>
LayerCount: 2
Fore
SplineSet
236 773 m 0xdc
 229 769 223 766 217 766 c 0
 209 766 202 771 195 780 c 0
 190 786 188 792 188 797 c 0
 188 805 193 811 199 816 c 0
 228 836 262 856 303 856 c 0xdc
 340 856 357 845 373 837 c 0
 387 830 403 826 423 826 c 0
 445 826 463 837 481 849 c 0
 486 853 491 854 496 854 c 0
 503 854 510 850 515 845 c 0
 522 837 524 830 524 824 c 0
 524 816 520 809 513 803 c 0
 483 781 451 762 410 762 c 0xec
 373 762 354 770 337 778 c 0
 320 786 310 792 291 792 c 0
 269 792 248 781 236 773 c 0xdc
677 829 m 2xee
 681 832 685 833 689 833 c 0
 712 833 732 788 732 759 c 0
 732 708 700 672 629 669 c 1
 629 224 l 2
 629 80 532 -6 356 -6 c 0
 179 -6 83 80 83 224 c 2
 83 680 l 2
 83 694 95 702 123 702 c 2
 131 702 l 2
 159 702 171 694 171 680 c 2
 171 221 l 2
 171 132 250 70 356 70 c 0
 463 70 541 133 541 221 c 2
 541 680 l 2
 541 694 553 702 581 702 c 2
 616 702 l 2
 659 702 671 719 671 735 c 1
 674 765 647 785 644 797 c 1
 644 803 647 809 653 813 c 2
 677 829 l 2xee
EndSplineSet
Position2: "'cpsp' Capital Spacing lookup 3 subtable" dx=5 dy=0 dh=10 dv=0
EndChar

StartChar: Uhungarumlaut
Encoding: 368 368 168
Width: 712
Flags: MW
HStem: -6 76<303 409.5 303 444> 682 20G<123 131 131 145 581 589 589 603> 762 147<259 380 348 424.5>
VStem: 83 88<224 680> 541 88<221 224 224 680>
LayerCount: 2
Fore
SplineSet
364 909 m 0
 396 909 412 906 412 896 c 0
 412 885 402 876 318 780 c 0
 307 768 288 762 267 762 c 0
 251 762 244 765 244 772 c 0
 244 782 256 803 302 883 c 0
 313 902 332 909 364 909 c 0
511 909 m 0
 543 909 559 906 559 896 c 0
 559 885 549 876 465 780 c 0
 454 768 435 762 414 762 c 0
 398 762 391 765 391 772 c 0
 391 782 403 803 449 883 c 0
 460 902 479 909 511 909 c 0
589 702 m 2
 617 702 629 694 629 680 c 2
 629 224 l 2
 629 80 532 -6 356 -6 c 0
 179 -6 83 80 83 224 c 2
 83 680 l 2
 83 694 95 702 123 702 c 2
 131 702 l 2
 159 702 171 694 171 680 c 2
 171 221 l 2
 171 132 250 70 356 70 c 0
 463 70 541 133 541 221 c 2
 541 680 l 2
 541 694 553 702 581 702 c 2
 589 702 l 2
EndSplineSet
Position2: "'cpsp' Capital Spacing lookup 3 subtable" dx=5 dy=0 dh=10 dv=0
EndChar

StartChar: Umacron
Encoding: 362 362 169
Width: 712
Flags: MW
HStem: -6 76<303 409.5 303 444> 682 20G<123 131 131 145 581 589 589 603> 789 70<238 468 245 468>
VStem: 83 88<224 680> 541 88<221 224 224 680>
LayerCount: 2
Fore
SplineSet
468 859 m 2
 482 859 488 850 488 829 c 2
 488 819 l 2
 488 798 482 789 468 789 c 2
 245 789 l 2
 231 789 225 798 225 819 c 2
 225 829 l 2
 225 850 231 859 245 859 c 2
 468 859 l 2
589 702 m 2
 617 702 629 694 629 680 c 2
 629 224 l 2
 629 80 532 -6 356 -6 c 0
 179 -6 83 80 83 224 c 2
 83 680 l 2
 83 694 95 702 123 702 c 2
 131 702 l 2
 159 702 171 694 171 680 c 2
 171 221 l 2
 171 132 250 70 356 70 c 0
 463 70 541 133 541 221 c 2
 541 680 l 2
 541 694 553 702 581 702 c 2
 589 702 l 2
EndSplineSet
Position2: "'cpsp' Capital Spacing lookup 3 subtable" dx=5 dy=0 dh=10 dv=0
EndChar

StartChar: Uogonek
Encoding: 370 370 170
Width: 712
Flags: MW
HStem: -183 70<469.5 488.5 469.5 495> -6 76<303 356 356 372> -1 21G 682 20G<123 131 131 145 581 589 589 603>
VStem: 83 88<224 680> 352 67<-86 -72> 541 88<221 224 224 680>
LayerCount: 2
Fore
SplineSet
589 702 m 2xde
 617 702 629 694 629 680 c 2
 629 224 l 2
 629 102 559 22 431 -1 c 1xbe
 431 -15 419 -38 419 -62 c 0
 419 -110 458 -113 481 -113 c 0
 496 -113 517 -103 533 -103 c 0
 545 -103 552 -111 552 -128 c 0
 552 -173 520 -183 470 -183 c 0
 363 -183 352 -110 352 -81 c 0
 352 -63 355 -28 372 -6 c 1
 356 -6 l 2
 179 -6 83 80 83 224 c 2
 83 680 l 2
 83 694 95 702 123 702 c 2
 131 702 l 2
 159 702 171 694 171 680 c 2
 171 221 l 2
 171 132 250 70 356 70 c 0
 463 70 541 133 541 221 c 2
 541 680 l 2
 541 694 553 702 581 702 c 2
 589 702 l 2xde
EndSplineSet
Position2: "'cpsp' Capital Spacing lookup 3 subtable" dx=5 dy=0 dh=10 dv=0
EndChar

StartChar: Uring
Encoding: 366 366 171
Width: 712
Flags: MW
HStem: -6 76<303 409.5 303 444> 682 20G<123 131 131 145 581 589 589 603> 741 35<342 370 342 379.5> 875 35<342 370>
VStem: 83 88<224 680> 272 35<811 839 811 848.5> 406 35<811 839> 541 88<221 224 224 680>
LayerCount: 2
Fore
SplineSet
356 910 m 0
 403 910 441 872 441 825 c 0
 441 778 403 741 356 741 c 0
 309 741 272 778 272 825 c 0
 272 872 309 910 356 910 c 0
356 875 m 0
 328 875 307 853 307 825 c 0
 307 797 328 776 356 776 c 0
 384 776 406 797 406 825 c 0
 406 853 384 875 356 875 c 0
589 702 m 2
 617 702 629 694 629 680 c 2
 629 224 l 2
 629 80 532 -6 356 -6 c 0
 179 -6 83 80 83 224 c 2
 83 680 l 2
 83 694 95 702 123 702 c 2
 131 702 l 2
 159 702 171 694 171 680 c 2
 171 221 l 2
 171 132 250 70 356 70 c 0
 463 70 541 133 541 221 c 2
 541 680 l 2
 541 694 553 702 581 702 c 2
 589 702 l 2
EndSplineSet
Position2: "'cpsp' Capital Spacing lookup 3 subtable" dx=5 dy=0 dh=10 dv=0
EndChar

StartChar: Utilde
Encoding: 360 360 172
Width: 712
Flags: MW
HStem: -6 76<303 409.5 303 444> 682 20G<123 131 131 145 581 589 589 603> 762 64<413 430.5> 792 64<282.5 300.5>
VStem: 83 88<224 680> 541 88<221 224 224 680>
LayerCount: 2
Fore
SplineSet
481 849 m 0xec
 486 853 491 854 496 854 c 0
 503 854 510 850 515 845 c 0
 522 837 524 830 524 824 c 0
 524 816 520 809 513 803 c 0
 483 781 451 762 410 762 c 0xec
 373 762 354 770 337 778 c 0
 320 786 310 792 291 792 c 0
 269 792 248 781 236 773 c 0
 229 769 223 766 217 766 c 0
 209 766 202 771 195 780 c 0
 190 786 188 792 188 797 c 0
 188 805 193 811 199 816 c 0
 228 836 262 856 303 856 c 0xdc
 340 856 357 845 373 837 c 0
 387 830 403 826 423 826 c 0
 445 826 463 837 481 849 c 0xec
589 702 m 2
 617 702 629 694 629 680 c 2
 629 224 l 2
 629 80 532 -6 356 -6 c 0
 179 -6 83 80 83 224 c 2
 83 680 l 2
 83 694 95 702 123 702 c 2
 131 702 l 2
 159 702 171 694 171 680 c 2
 171 221 l 2
 171 132 250 70 356 70 c 0
 463 70 541 133 541 221 c 2
 541 680 l 2
 541 694 553 702 581 702 c 2
 589 702 l 2
EndSplineSet
Position2: "'cpsp' Capital Spacing lookup 3 subtable" dx=5 dy=0 dh=10 dv=0
EndChar

StartChar: V
Encoding: 86 86 173
Width: 617
Flags: MW
HStem: -2 21G<283 293 293 324> -2 102<283 311 308 311 308 324> 682 20G<64 73 73 83 547 553 553 568>
VStem: 21 575<683 690>
LayerCount: 2
Fore
SplineSet
553 702 m 2xb0
 583 702 596 696 596 685 c 0
 596 681 595 677 593 671 c 2
 364 14 l 2
 360 2 344 -2 324 -2 c 2
 293 -2 l 2
 273 -2 257 2 253 14 c 2
 24 672 l 2
 22 677 21 681 21 685 c 0
 21 695 34 702 64 702 c 2
 73 702 l 2
 93 702 109 698 113 686 c 2
 298 152 l 1
 308 100 l 1
 311 100 l 1
 322 153 l 1x70
 507 686 l 2
 511 698 527 702 547 702 c 2
 553 702 l 2xb0
EndSplineSet
Position2: "'cpsp' Capital Spacing lookup 3 subtable" dx=5 dy=0 dh=10 dv=0
EndChar

StartChar: W
Encoding: 87 87 174
Width: 882
Flags: MW
HStem: -2 21G<219 229 229 270 600 610 610 651> -2 103<219 253 253 253 253 270> 682 20G<58 68 68 78 437 453 453 463 818 824 824 839>
VStem: 15 852<684 690>
LayerCount: 2
Fore
SplineSet
824 702 m 2xb0
 854 702 867 696 867 685 c 0
 867 683 865 675 864 671 c 2
 691 14 l 2
 688 2 671 -2 651 -2 c 2
 610 -2 l 2
 590 -2 573 2 570 14 c 2
 461 421 l 1
 440 551 l 1
 419 421 l 1
 310 14 l 2
 307 2 290 -2 270 -2 c 2
 229 -2 l 2
 209 -2 192 2 189 14 c 2
 18 671 l 2
 17 675 15 681 15 685 c 0
 15 695 28 702 58 702 c 2
 68 702 l 2
 88 702 105 698 108 686 c 2
 235 194 l 2
 242 167 252 104 253 101 c 1
 277 197 l 1
 398 685 l 2
 401 698 417 702 437 702 c 2
 453 702 l 2
 473 702 489 698 492 685 c 2
 616 193 l 2
 625 158 633 101 633 101 c 1
 657 196 l 1x70
 778 686 l 2
 781 698 798 702 818 702 c 2
 824 702 l 2xb0
EndSplineSet
Position2: "'cpsp' Capital Spacing lookup 3 subtable" dx=5 dy=0 dh=10 dv=0
EndChar

StartChar: Wacute
Encoding: 7810 7810 175
Width: 882
Flags: MW
HStem: -2 21G<219 229 229 270 600 610 610 651> -2 103<219 253 253 253 253 270> 682 20G<58 68 68 78 437 453 453 463 818 824 824 839>
VStem: 15 852<684 690>
LayerCount: 2
Fore
SplineSet
521 909 m 0xb0
 553 909 569 906 569 896 c 0
 569 885 559 876 475 780 c 0
 464 768 445 762 424 762 c 0
 408 762 401 765 401 772 c 0
 401 782 413 803 459 883 c 0
 470 902 489 909 521 909 c 0xb0
824 702 m 2
 854 702 867 696 867 685 c 0
 867 683 865 675 864 671 c 2
 691 14 l 2
 688 2 671 -2 651 -2 c 2
 610 -2 l 2
 590 -2 573 2 570 14 c 2
 461 421 l 1
 440 551 l 1
 419 421 l 1
 310 14 l 2
 307 2 290 -2 270 -2 c 2
 229 -2 l 2
 209 -2 192 2 189 14 c 2
 18 671 l 2
 17 675 15 681 15 685 c 0
 15 695 28 702 58 702 c 2
 68 702 l 2
 88 702 105 698 108 686 c 2
 235 194 l 2
 242 167 252 104 253 101 c 1
 277 197 l 1
 398 685 l 2
 401 698 417 702 437 702 c 2
 453 702 l 2
 473 702 489 698 492 685 c 2
 616 193 l 2
 625 158 633 101 633 101 c 1
 657 196 l 1x70
 778 686 l 2
 781 698 798 702 818 702 c 2
 824 702 l 2
EndSplineSet
Position2: "'cpsp' Capital Spacing lookup 3 subtable" dx=5 dy=0 dh=10 dv=0
EndChar

StartChar: Wcircumflex
Encoding: 372 372 176
Width: 882
Flags: MW
HStem: -2 21G<219 229 229 270 600 610 610 651> -2 103<219 253 253 253 253 270> 682 20G<58 68 68 78 437 453 453 463 818 824 824 839> 753 142<335.5 453 343 453 428 536 428 538>
VStem: 15 852<684 690>
LayerCount: 2
Fore
SplineSet
453 895 m 2xb8
 473 895 489 888 499 873 c 2
 556 785 l 2
 560 779 562 773 562 768 c 0
 562 759 554 753 538 753 c 2
 536 753 l 2
 523 753 513 757 503 766 c 1
 440 840 l 1
 379 766 l 1
 369 757 359 753 345 753 c 2
 343 753 l 2
 328 753 320 758 320 767 c 0
 320 772 322 778 326 785 c 2
 382 873 l 2
 392 888 408 895 428 895 c 2
 453 895 l 2xb8
824 702 m 2
 854 702 867 696 867 685 c 0
 867 683 865 675 864 671 c 2
 691 14 l 2
 688 2 671 -2 651 -2 c 2
 610 -2 l 2
 590 -2 573 2 570 14 c 2
 461 421 l 1
 440 551 l 1
 419 421 l 1
 310 14 l 2
 307 2 290 -2 270 -2 c 2
 229 -2 l 2
 209 -2 192 2 189 14 c 2
 18 671 l 2
 17 675 15 681 15 685 c 0
 15 695 28 702 58 702 c 2
 68 702 l 2
 88 702 105 698 108 686 c 2
 235 194 l 2
 242 167 252 104 253 101 c 1
 277 197 l 1
 398 685 l 2
 401 698 417 702 437 702 c 2
 453 702 l 2
 473 702 489 698 492 685 c 2
 616 193 l 2
 625 158 633 101 633 101 c 1
 657 196 l 1x78
 778 686 l 2
 781 698 798 702 818 702 c 2
 824 702 l 2
EndSplineSet
Position2: "'cpsp' Capital Spacing lookup 3 subtable" dx=5 dy=0 dh=10 dv=0
EndChar

StartChar: Wdieresis
Encoding: 7812 7812 177
Width: 882
Flags: MW
HStem: -2 21G<219 229 229 270 600 610 610 651> -2 103<219 253 253 253 253 270> 682 20G<58 68 68 78 437 453 453 463 818 824 824 839> 784 95<355 383 499 527>
VStem: 327 84<806 857 799.5 863.5> 471 84<806 857 799.5 863.5>
LayerCount: 2
Fore
SplineSet
327 857 m 2xbc
 327 870 339 879 371 879 c 0
 399 879 411 871 411 857 c 2
 411 806 l 2
 411 793 399 784 367 784 c 0
 339 784 327 792 327 806 c 2
 327 857 l 2xbc
471 857 m 2
 471 870 483 879 515 879 c 0
 543 879 555 871 555 857 c 2
 555 806 l 2
 555 793 543 784 511 784 c 0
 483 784 471 792 471 806 c 2
 471 857 l 2
824 702 m 2
 854 702 867 696 867 685 c 0
 867 683 865 675 864 671 c 2
 691 14 l 2
 688 2 671 -2 651 -2 c 2
 610 -2 l 2
 590 -2 573 2 570 14 c 2
 461 421 l 1
 440 551 l 1
 419 421 l 1
 310 14 l 2
 307 2 290 -2 270 -2 c 2
 229 -2 l 2
 209 -2 192 2 189 14 c 2
 18 671 l 2
 17 675 15 681 15 685 c 0
 15 695 28 702 58 702 c 2
 68 702 l 2
 88 702 105 698 108 686 c 2
 235 194 l 2
 242 167 252 104 253 101 c 1
 277 197 l 1
 398 685 l 2
 401 698 417 702 437 702 c 2
 453 702 l 2
 473 702 489 698 492 685 c 2
 616 193 l 2
 625 158 633 101 633 101 c 1
 657 196 l 1x7c
 778 686 l 2
 781 698 798 702 818 702 c 2
 824 702 l 2
EndSplineSet
Position2: "'cpsp' Capital Spacing lookup 3 subtable" dx=5 dy=0 dh=10 dv=0
EndChar

StartChar: Wgrave
Encoding: 7808 7808 178
Width: 882
Flags: MW
HStem: -2 21G<219 229 229 270 600 610 610 651> -2 103<219 253 253 253 253 270> 682 20G<58 68 68 78 437 453 453 463 818 824 824 839>
VStem: 15 852<684 690>
LayerCount: 2
Fore
SplineSet
371 909 m 0xb0
 403 909 422 902 433 883 c 0
 479 803 491 782 491 772 c 0
 491 765 484 762 468 762 c 0
 447 762 428 768 417 780 c 0
 333 876 323 885 323 896 c 0
 323 906 339 909 371 909 c 0xb0
824 702 m 2
 854 702 867 696 867 685 c 0
 867 683 865 675 864 671 c 2
 691 14 l 2
 688 2 671 -2 651 -2 c 2
 610 -2 l 2
 590 -2 573 2 570 14 c 2
 461 421 l 1
 440 551 l 1
 419 421 l 1
 310 14 l 2
 307 2 290 -2 270 -2 c 2
 229 -2 l 2
 209 -2 192 2 189 14 c 2
 18 671 l 2
 17 675 15 681 15 685 c 0
 15 695 28 702 58 702 c 2
 68 702 l 2
 88 702 105 698 108 686 c 2
 235 194 l 2
 242 167 252 104 253 101 c 1
 277 197 l 1
 398 685 l 2
 401 698 417 702 437 702 c 2
 453 702 l 2
 473 702 489 698 492 685 c 2
 616 193 l 2
 625 158 633 101 633 101 c 1
 657 196 l 1x70
 778 686 l 2
 781 698 798 702 818 702 c 2
 824 702 l 2
EndSplineSet
Position2: "'cpsp' Capital Spacing lookup 3 subtable" dx=5 dy=0 dh=10 dv=0
EndChar

StartChar: X
Encoding: 88 88 179
Width: 611
Flags: MW
HStem: -2 21G<49.5 66 66 74 519.5 530 530 546> 682 20G<90 104 104 114.5 515 521 521 537.5>
VStem: 20 572<9.5 17.5 9.5 17.5>
LayerCount: 2
Fore
SplineSet
521 702 m 2
 554 702 567 697 567 685 c 0
 567 680 563 674 559 667 c 2
 359 370 l 1
 584 33 l 2
 589 26 592 20 592 15 c 0
 592 4 580 -2 546 -2 c 2
 530 -2 l 2
 509 -2 495 1 487 13 c 2
 303 288 l 1
 117 12 l 2
 110 1 92 -2 74 -2 c 2
 66 -2 l 2
 33 -2 20 3 20 15 c 0
 20 20 23 26 28 33 c 2
 252 365 l 1
 52 667 l 2
 47 674 44 680 44 685 c 0
 44 696 56 702 90 702 c 2
 104 702 l 2
 125 702 139 699 147 687 c 2
 307 446 l 1
 472 688 l 2
 479 699 497 702 515 702 c 2
 521 702 l 2
EndSplineSet
Position2: "'cpsp' Capital Spacing lookup 3 subtable" dx=5 dy=0 dh=10 dv=0
EndChar

StartChar: Y
Encoding: 89 89 180
Width: 559
Flags: MW
HStem: -2 21G<261 275 275 283> 682 20G<64 75 75 85.5 495 502 502 502>
VStem: 235 88<20 356>
LayerCount: 2
Fore
SplineSet
502 702 m 1
 530 701 541 696 541 685 c 0
 541 680 537 674 533 667 c 2
 323 356 l 1
 323 20 l 2
 323 6 311 -2 283 -2 c 2
 275 -2 l 2
 247 -2 235 6 235 20 c 2
 235 359 l 1
 26 667 l 2
 21 674 18 680 18 685 c 0
 18 696 30 702 64 702 c 2
 75 702 l 2
 96 702 110 699 118 687 c 2
 282 441 l 1
 450 688 l 2
 457 699 475 702 495 702 c 2
 502 702 l 1
EndSplineSet
Substitution2: "'ss01' Style Set 1 lookup 18 subtable" Y.loclGUA
Substitution2: "'salt' Stylistic Alternatives lookup 17 subtable" Y.loclGUA
Substitution2: "'aalt' Access All Alternates lookup 0 subtable" Y.loclGUA
Position2: "'cpsp' Capital Spacing lookup 3 subtable" dx=5 dy=0 dh=10 dv=0
EndChar

StartChar: Yacute
Encoding: 221 221 181
Width: 559
Flags: MW
HStem: -2 21G<261 275 275 283> 682 20G<64 75 75 85.5 495 502 502 502>
VStem: 235 88<20 356>
LayerCount: 2
Fore
SplineSet
360 909 m 0
 392 909 408 906 408 896 c 0
 408 885 398 876 314 780 c 0
 303 768 284 762 263 762 c 0
 247 762 240 765 240 772 c 0
 240 782 252 803 298 883 c 0
 309 902 328 909 360 909 c 0
502 702 m 1
 530 701 541 696 541 685 c 0
 541 680 537 674 533 667 c 2
 323 356 l 1
 323 20 l 2
 323 6 311 -2 283 -2 c 2
 275 -2 l 2
 247 -2 235 6 235 20 c 2
 235 359 l 1
 26 667 l 2
 21 674 18 680 18 685 c 0
 18 696 30 702 64 702 c 2
 75 702 l 2
 96 702 110 699 118 687 c 2
 282 441 l 1
 450 688 l 2
 457 699 475 702 495 702 c 2
 502 702 l 1
EndSplineSet
Substitution2: "'ss01' Style Set 1 lookup 18 subtable" Yacute.loclGUA
Substitution2: "'salt' Stylistic Alternatives lookup 17 subtable" Yacute.loclGUA
Substitution2: "'aalt' Access All Alternates lookup 0 subtable" Yacute.loclGUA
Position2: "'cpsp' Capital Spacing lookup 3 subtable" dx=5 dy=0 dh=10 dv=0
EndChar

StartChar: Ycircumflex
Encoding: 374 374 182
Width: 559
Flags: MW
HStem: -2 21G<261 275 275 283> 682 20G<64 75 75 85.5 495 502 502 502> 753 142<174.5 292 182 292 267 375 267 377>
VStem: 235 88<20 356>
LayerCount: 2
Fore
SplineSet
292 895 m 2
 312 895 328 888 338 873 c 2
 395 785 l 2
 399 779 401 773 401 768 c 0
 401 759 393 753 377 753 c 2
 375 753 l 2
 362 753 352 757 342 766 c 1
 279 840 l 1
 218 766 l 1
 208 757 198 753 184 753 c 2
 182 753 l 2
 167 753 159 758 159 767 c 0
 159 772 161 778 165 785 c 2
 221 873 l 2
 231 888 247 895 267 895 c 2
 292 895 l 2
502 702 m 1
 530 701 541 696 541 685 c 0
 541 680 537 674 533 667 c 2
 323 356 l 1
 323 20 l 2
 323 6 311 -2 283 -2 c 2
 275 -2 l 2
 247 -2 235 6 235 20 c 2
 235 359 l 1
 26 667 l 2
 21 674 18 680 18 685 c 0
 18 696 30 702 64 702 c 2
 75 702 l 2
 96 702 110 699 118 687 c 2
 282 441 l 1
 450 688 l 2
 457 699 475 702 495 702 c 2
 502 702 l 1
EndSplineSet
Substitution2: "'ss01' Style Set 1 lookup 18 subtable" Ycircumflex.loclGUA
Substitution2: "'salt' Stylistic Alternatives lookup 17 subtable" Ycircumflex.loclGUA
Substitution2: "'aalt' Access All Alternates lookup 0 subtable" Ycircumflex.loclGUA
Position2: "'cpsp' Capital Spacing lookup 3 subtable" dx=5 dy=0 dh=10 dv=0
EndChar

StartChar: Ydieresis
Encoding: 376 376 183
Width: 559
Flags: MW
HStem: -2 21G<261 275 275 283> 682 20G<64 75 75 85.5 495 502 502 502> 784 95<194 222 338 366>
VStem: 166 84<806 857 799.5 863.5> 235 88<20 356> 310 84<806 857 799.5 863.5>
LayerCount: 2
Fore
SplineSet
166 857 m 2xf4
 166 870 178 879 210 879 c 0
 238 879 250 871 250 857 c 2
 250 806 l 2
 250 793 238 784 206 784 c 0
 178 784 166 792 166 806 c 2
 166 857 l 2xf4
310 857 m 2
 310 870 322 879 354 879 c 0
 382 879 394 871 394 857 c 2
 394 806 l 2
 394 793 382 784 350 784 c 0
 322 784 310 792 310 806 c 2
 310 857 l 2
502 702 m 1
 530 701 541 696 541 685 c 0
 541 680 537 674 533 667 c 2
 323 356 l 1
 323 20 l 2
 323 6 311 -2 283 -2 c 2
 275 -2 l 2
 247 -2 235 6 235 20 c 2
 235 359 l 1xe8
 26 667 l 2
 21 674 18 680 18 685 c 0
 18 696 30 702 64 702 c 2
 75 702 l 2
 96 702 110 699 118 687 c 2
 282 441 l 1
 450 688 l 2
 457 699 475 702 495 702 c 2
 502 702 l 1
EndSplineSet
Substitution2: "'ss01' Style Set 1 lookup 18 subtable" Ydieresis.loclGUA
Substitution2: "'salt' Stylistic Alternatives lookup 17 subtable" Ydieresis.loclGUA
Substitution2: "'aalt' Access All Alternates lookup 0 subtable" Ydieresis.loclGUA
Position2: "'cpsp' Capital Spacing lookup 3 subtable" dx=5 dy=0 dh=10 dv=0
EndChar

StartChar: Ydotbelow
Encoding: 7924 7924 184
Width: 559
Flags: MW
HStem: -175 95<267 295> -2 21G<261 275 275 283> 682 20G<64 75 75 85.5 495 502 502 502>
VStem: 235 88<20 356>
LayerCount: 2
Fore
SplineSet
502 702 m 1
 530 701 541 696 541 685 c 0
 541 680 537 674 533 667 c 2
 323 356 l 1
 323 20 l 2
 323 6 311 -2 283 -2 c 2
 275 -2 l 2
 247 -2 235 6 235 20 c 2
 235 359 l 1
 26 667 l 2
 21 674 18 680 18 685 c 0
 18 696 30 702 64 702 c 2
 75 702 l 2
 96 702 110 699 118 687 c 2
 282 441 l 1
 450 688 l 2
 457 699 475 702 495 702 c 2
 502 702 l 1
239 -102 m 2
 239 -89 251 -80 283 -80 c 0
 311 -80 323 -88 323 -102 c 2
 323 -153 l 2
 323 -166 311 -175 279 -175 c 0
 251 -175 239 -167 239 -153 c 2
 239 -102 l 2
EndSplineSet
Substitution2: "'ss01' Style Set 1 lookup 18 subtable" Ydotbelow.loclGUA
Substitution2: "'salt' Stylistic Alternatives lookup 17 subtable" Ydotbelow.loclGUA
Substitution2: "'aalt' Access All Alternates lookup 0 subtable" Ydotbelow.loclGUA
Position2: "'cpsp' Capital Spacing lookup 3 subtable" dx=5 dy=0 dh=10 dv=0
EndChar

StartChar: Ygrave
Encoding: 7922 7922 185
Width: 559
Flags: MW
HStem: -2 21G<261 275 275 283> 682 20G<64 75 75 85.5 495 502 502 502>
VStem: 235 88<20 356>
LayerCount: 2
Fore
SplineSet
210 909 m 0
 242 909 261 902 272 883 c 0
 318 803 330 782 330 772 c 0
 330 765 323 762 307 762 c 0
 286 762 267 768 256 780 c 0
 172 876 162 885 162 896 c 0
 162 906 178 909 210 909 c 0
502 702 m 1
 530 701 541 696 541 685 c 0
 541 680 537 674 533 667 c 2
 323 356 l 1
 323 20 l 2
 323 6 311 -2 283 -2 c 2
 275 -2 l 2
 247 -2 235 6 235 20 c 2
 235 359 l 1
 26 667 l 2
 21 674 18 680 18 685 c 0
 18 696 30 702 64 702 c 2
 75 702 l 2
 96 702 110 699 118 687 c 2
 282 441 l 1
 450 688 l 2
 457 699 475 702 495 702 c 2
 502 702 l 1
EndSplineSet
Substitution2: "'ss01' Style Set 1 lookup 18 subtable" Ygrave.loclGUA
Substitution2: "'salt' Stylistic Alternatives lookup 17 subtable" Ygrave.loclGUA
Substitution2: "'aalt' Access All Alternates lookup 0 subtable" Ygrave.loclGUA
Position2: "'cpsp' Capital Spacing lookup 3 subtable" dx=5 dy=0 dh=10 dv=0
EndChar

StartChar: Yhookabove
Encoding: 7926 7926 186
Width: 559
Flags: MW
HStem: -2 21G<261 275 275 283> 682 20G<64 75 75 85.5 495 502 502 502> 876 51<269.5 289>
VStem: 235 88<20 356> 316 62<824 858>
LayerCount: 2
Fore
SplineSet
316 849 m 0xe8
 316 867 299 876 279 876 c 0
 248 876 238 863 233 863 c 0
 225 863 209 886 209 896 c 0
 209 909 252 927 287 927 c 0
 321 927 378 911 378 856 c 0
 378 790 299 740 287 740 c 0
 278 740 254 748 254 757 c 0
 254 786 316 799 316 849 c 0xe8
502 702 m 1
 530 701 541 696 541 685 c 0
 541 680 537 674 533 667 c 2
 323 356 l 1
 323 20 l 2
 323 6 311 -2 283 -2 c 2
 275 -2 l 2
 247 -2 235 6 235 20 c 2
 235 359 l 1xf0
 26 667 l 2
 21 674 18 680 18 685 c 0
 18 696 30 702 64 702 c 2
 75 702 l 2
 96 702 110 699 118 687 c 2
 282 441 l 1
 450 688 l 2
 457 699 475 702 495 702 c 2
 502 702 l 1
EndSplineSet
Substitution2: "'ss01' Style Set 1 lookup 18 subtable" Yhookabove.loclGUA
Substitution2: "'salt' Stylistic Alternatives lookup 17 subtable" Yhookabove.loclGUA
Substitution2: "'aalt' Access All Alternates lookup 0 subtable" Yhookabove.loclGUA
Position2: "'cpsp' Capital Spacing lookup 3 subtable" dx=5 dy=0 dh=10 dv=0
EndChar

StartChar: Ytilde
Encoding: 7928 7928 187
Width: 559
Flags: MW
HStem: -2 21G<261 275 275 283> 682 20G<64 75 75 85.5 495 502 502 502> 762 64<337 354.5> 792 64<206.5 224.5>
VStem: 235 88<20 356>
LayerCount: 2
Fore
SplineSet
405 849 m 0xe8
 410 853 415 854 420 854 c 0
 427 854 434 850 439 845 c 0
 446 837 448 830 448 824 c 0
 448 816 444 809 437 803 c 0
 407 781 375 762 334 762 c 0xe8
 297 762 278 770 261 778 c 0
 244 786 234 792 215 792 c 0
 193 792 172 781 160 773 c 0
 153 769 147 766 141 766 c 0
 133 766 126 771 119 780 c 0
 114 786 112 792 112 797 c 0
 112 805 117 811 123 816 c 0
 152 836 186 856 227 856 c 0xd8
 264 856 281 845 297 837 c 0
 311 830 327 826 347 826 c 0
 369 826 387 837 405 849 c 0xe8
502 702 m 1
 530 701 541 696 541 685 c 0
 541 680 537 674 533 667 c 2
 323 356 l 1
 323 20 l 2
 323 6 311 -2 283 -2 c 2
 275 -2 l 2
 247 -2 235 6 235 20 c 2
 235 359 l 1
 26 667 l 2
 21 674 18 680 18 685 c 0
 18 696 30 702 64 702 c 2
 75 702 l 2
 96 702 110 699 118 687 c 2
 282 441 l 1
 450 688 l 2
 457 699 475 702 495 702 c 2
 502 702 l 1
EndSplineSet
Substitution2: "'ss01' Style Set 1 lookup 18 subtable" Ytilde.loclGUA
Substitution2: "'salt' Stylistic Alternatives lookup 17 subtable" Ytilde.loclGUA
Substitution2: "'aalt' Access All Alternates lookup 0 subtable" Ytilde.loclGUA
Position2: "'cpsp' Capital Spacing lookup 3 subtable" dx=5 dy=0 dh=10 dv=0
EndChar

StartChar: Z
Encoding: 90 90 188
Width: 616
Flags: MW
HStem: 0 76<158 549 158 549> 624 76<84 549 91 451>
VStem: 38 533
LayerCount: 2
Fore
SplineSet
549 700 m 2
 556 700 571 668 571 647 c 0
 571 642 570 638 568 635 c 2
 158 76 l 1
 549 76 l 2
 563 76 569 66 569 42 c 2
 569 34 l 2
 569 10 563 0 549 0 c 2
 62 0 l 2
 52 0 38 33 38 53 c 0
 38 58 39 62 41 65 c 2
 451 624 l 1
 91 624 l 2
 77 624 71 634 71 658 c 2
 71 666 l 2
 71 690 77 700 91 700 c 2
 549 700 l 2
EndSplineSet
Position2: "'cpsp' Capital Spacing lookup 3 subtable" dx=5 dy=0 dh=10 dv=0
EndChar

StartChar: Zacute
Encoding: 377 377 189
Width: 616
Flags: MW
HStem: 0 76<158 549 158 549> 624 76<84 549 91 451>
VStem: 38 533
LayerCount: 2
Fore
SplineSet
388 909 m 0
 420 909 436 906 436 896 c 0
 436 885 426 876 342 780 c 0
 331 768 312 762 291 762 c 0
 275 762 268 765 268 772 c 0
 268 782 280 803 326 883 c 0
 337 902 356 909 388 909 c 0
549 700 m 2
 556 700 571 668 571 647 c 0
 571 642 570 638 568 635 c 2
 158 76 l 1
 549 76 l 2
 563 76 569 66 569 42 c 2
 569 34 l 2
 569 10 563 0 549 0 c 2
 62 0 l 2
 52 0 38 33 38 53 c 0
 38 58 39 62 41 65 c 2
 451 624 l 1
 91 624 l 2
 77 624 71 634 71 658 c 2
 71 666 l 2
 71 690 77 700 91 700 c 2
 549 700 l 2
EndSplineSet
Substitution2: "'locl' Localized Forms in Latin lookup 12 subtable" Zacute.loclPLK
Substitution2: "'aalt' Access All Alternates lookup 0 subtable" Zacute.loclPLK
Position2: "'cpsp' Capital Spacing lookup 3 subtable" dx=5 dy=0 dh=10 dv=0
EndChar

StartChar: Zcaron
Encoding: 381 381 190
Width: 616
Flags: MW
HStem: 0 76<158 549 158 549> 624 76<84 549 91 451> 759 142<210 295 210 320>
VStem: 38 533
LayerCount: 2
Fore
SplineSet
405 901 m 2
 421 901 429 895 429 886 c 0
 429 881 427 875 423 869 c 2
 366 781 l 2
 356 766 340 759 320 759 c 2
 295 759 l 2
 275 759 259 766 249 781 c 2
 193 869 l 2
 189 876 187 882 187 887 c 0
 187 896 195 901 210 901 c 2
 212 901 l 2
 226 901 236 897 246 888 c 1
 307 814 l 1
 370 888 l 1
 380 897 390 901 403 901 c 2
 405 901 l 2
549 700 m 2
 556 700 571 668 571 647 c 0
 571 642 570 638 568 635 c 2
 158 76 l 1
 549 76 l 2
 563 76 569 66 569 42 c 2
 569 34 l 2
 569 10 563 0 549 0 c 2
 62 0 l 2
 52 0 38 33 38 53 c 0
 38 58 39 62 41 65 c 2
 451 624 l 1
 91 624 l 2
 77 624 71 634 71 658 c 2
 71 666 l 2
 71 690 77 700 91 700 c 2
 549 700 l 2
EndSplineSet
Position2: "'cpsp' Capital Spacing lookup 3 subtable" dx=5 dy=0 dh=10 dv=0
EndChar

StartChar: Zdotaccent
Encoding: 379 379 191
Width: 616
Flags: MW
HStem: 0 76<158 549 158 549> 624 76<84 549 91 451> 784 95<294 322>
VStem: 266 84<806 857 799.5 863.5>
LayerCount: 2
Fore
SplineSet
266 857 m 2
 266 870 278 879 310 879 c 0
 338 879 350 871 350 857 c 2
 350 806 l 2
 350 793 338 784 306 784 c 0
 278 784 266 792 266 806 c 2
 266 857 l 2
549 700 m 2
 556 700 571 668 571 647 c 0
 571 642 570 638 568 635 c 2
 158 76 l 1
 549 76 l 2
 563 76 569 66 569 42 c 2
 569 34 l 2
 569 10 563 0 549 0 c 2
 62 0 l 2
 52 0 38 33 38 53 c 0
 38 58 39 62 41 65 c 2
 451 624 l 1
 91 624 l 2
 77 624 71 634 71 658 c 2
 71 666 l 2
 71 690 77 700 91 700 c 2
 549 700 l 2
EndSplineSet
Position2: "'cpsp' Capital Spacing lookup 3 subtable" dx=5 dy=0 dh=10 dv=0
EndChar

StartChar: Zdotbelow
Encoding: 7826 7826 192
Width: 616
Flags: MW
HStem: -175 95<306 334> 0 76<158 549 158 549> 624 76<84 549 91 451>
VStem: 278 84<-153 -102 -159.5 -95.5>
LayerCount: 2
Fore
SplineSet
549 700 m 2
 556 700 571 668 571 647 c 0
 571 642 570 638 568 635 c 2
 158 76 l 1
 549 76 l 2
 563 76 569 66 569 42 c 2
 569 34 l 2
 569 10 563 0 549 0 c 2
 62 0 l 2
 52 0 38 33 38 53 c 0
 38 58 39 62 41 65 c 2
 451 624 l 1
 91 624 l 2
 77 624 71 634 71 658 c 2
 71 666 l 2
 71 690 77 700 91 700 c 2
 549 700 l 2
278 -102 m 2
 278 -89 290 -80 322 -80 c 0
 350 -80 362 -88 362 -102 c 2
 362 -153 l 2
 362 -166 350 -175 318 -175 c 0
 290 -175 278 -167 278 -153 c 2
 278 -102 l 2
EndSplineSet
Position2: "'cpsp' Capital Spacing lookup 3 subtable" dx=5 dy=0 dh=10 dv=0
EndChar

StartChar: a
Encoding: 97 97 193
Width: 545
GlyphClass: 2
Flags: MW
HStem: -6 73<196 257.5> -1 21G<411 429.5> 254 72<381 381> 457 72<225.5 312.5>
VStem: 49 90<122.5 201 122.5 228.5> 381 84<136 148 148 254 254 254 326 372>
AnchorPoint: "Anchor-1" 310 0 basechar 0
AnchorPoint: "Anchor-0" 310 500 basechar 0
LayerCount: 2
Fore
SplineSet
381 373 m 2xbc
 381 418 354 457 271 457 c 0
 180 457 125 415 115 415 c 0
 101 415 80 454 80 465 c 0
 80 491 168 529 268 529 c 0
 392 529 465 471 465 372 c 2
 465 148 l 2
 465 66 477 27 477 22 c 0
 477 3 436 -1 423 -1 c 0x7c
 399 -1 394 41 388 69 c 1
 350 27 295 -6 220 -6 c 0
 123 -6 49 41 49 144 c 0
 49 313 228 324 381 326 c 1
 381 373 l 2xbc
381 254 m 1
 277 253 139 253 139 149 c 0
 139 96 168 67 224 67 c 0
 297 67 341 100 381 136 c 1
 381 254 l 1
EndSplineSet
Substitution2: "Single Substitution lookup 21 subtable" ordfeminine
Substitution2: "'aalt' Access All Alternates lookup 0 subtable" ordfeminine
EndChar

StartChar: aacute
Encoding: 225 225 194
Width: 545
Flags: MW
HStem: -6 73<196 257.5> -1 21G<411 429.5> 254 72<381 381> 457 72<225.5 312.5>
VStem: 49 90<122.5 201 122.5 228.5> 381 84<136 148 148 254 254 254 326 372>
LayerCount: 2
Fore
SplineSet
353 732 m 0xbc
 385 732 401 729 401 719 c 0
 401 708 391 699 307 603 c 0
 296 591 277 585 256 585 c 0
 240 585 233 588 233 595 c 0
 233 605 245 626 291 706 c 0
 302 725 321 732 353 732 c 0xbc
381 373 m 2
 381 418 354 457 271 457 c 0
 180 457 125 415 115 415 c 0
 101 415 80 454 80 465 c 0
 80 491 168 529 268 529 c 0
 392 529 465 471 465 372 c 2
 465 148 l 2
 465 66 477 27 477 22 c 0
 477 3 436 -1 423 -1 c 0x7c
 399 -1 394 41 388 69 c 1
 350 27 295 -6 220 -6 c 0
 123 -6 49 41 49 144 c 0
 49 313 228 324 381 326 c 1
 381 373 l 2
381 254 m 1
 277 253 139 253 139 149 c 0
 139 96 168 67 224 67 c 0
 297 67 341 100 381 136 c 1
 381 254 l 1
EndSplineSet
EndChar

StartChar: abreve
Encoding: 259 259 195
Width: 545
Flags: MW
HStem: -6 73<196 257.5> -1 21G<411 429.5> 254 72<381 381> 457 72<225.5 312.5> 585 66<249.5 298.5 249.5 309.5>
VStem: 49 90<122.5 201 122.5 228.5> 381 84<136 148 148 254 254 254 326 372>
LayerCount: 2
Fore
SplineSet
403 715 m 0xbe
 414 715 418 710 418 700 c 0
 418 623 345 585 274 585 c 0
 202 585 129 623 129 700 c 0
 129 710 133 715 144 715 c 0
 161 715 158 706 166 690 c 0
 181 662 225 651 274 651 c 0
 323 651 366 662 381 690 c 0
 389 706 386 715 403 715 c 0xbe
381 373 m 2
 381 418 354 457 271 457 c 0
 180 457 125 415 115 415 c 0
 101 415 80 454 80 465 c 0
 80 491 168 529 268 529 c 0
 392 529 465 471 465 372 c 2
 465 148 l 2
 465 66 477 27 477 22 c 0
 477 3 436 -1 423 -1 c 0x7e
 399 -1 394 41 388 69 c 1
 350 27 295 -6 220 -6 c 0
 123 -6 49 41 49 144 c 0
 49 313 228 324 381 326 c 1
 381 373 l 2
381 254 m 1
 277 253 139 253 139 149 c 0
 139 96 168 67 224 67 c 0
 297 67 341 100 381 136 c 1
 381 254 l 1
EndSplineSet
EndChar

StartChar: abreveacute
Encoding: 7855 7855 196
Width: 545
Flags: MW
HStem: -6 73<196 257.5> -1 21G<411 429.5> 254 72<381 381> 457 72<225.5 312.5> 585 66<249.5 298.5 249.5 309.5>
VStem: 49 90<122.5 201 122.5 228.5> 381 84<136 148 148 254 254 254 326 372>
LayerCount: 2
Fore
SplineSet
381 373 m 2xbe
 381 418 354 457 271 457 c 0
 180 457 125 415 115 415 c 0
 101 415 80 454 80 465 c 0
 80 491 168 529 268 529 c 0
 392 529 465 471 465 372 c 2
 465 148 l 2
 465 66 477 27 477 22 c 0
 477 3 436 -1 423 -1 c 0x7e
 399 -1 394 41 388 69 c 1
 350 27 295 -6 220 -6 c 0
 123 -6 49 41 49 144 c 0
 49 313 228 324 381 326 c 1
 381 373 l 2xbe
381 254 m 1
 277 253 139 253 139 149 c 0
 139 96 168 67 224 67 c 0
 297 67 341 100 381 136 c 1
 381 254 l 1
354 880 m 0
 386 880 402 877 402 867 c 0
 402 856 392 847 308 751 c 0
 297 739 278 733 257 733 c 0
 241 733 234 736 234 743 c 0
 234 753 246 774 292 854 c 0
 303 873 322 880 354 880 c 0
403 715 m 0
 414 715 418 710 418 700 c 0
 418 623 345 585 274 585 c 0
 202 585 129 623 129 700 c 0
 129 710 133 715 144 715 c 0
 161 715 158 706 166 690 c 0
 181 662 225 651 274 651 c 0
 323 651 366 662 381 690 c 0
 389 706 386 715 403 715 c 0
EndSplineSet
EndChar

StartChar: abrevedotbelow
Encoding: 7863 7863 197
Width: 545
Flags: MW
HStem: -175 95<249 277> -6 73<196 257.5> -1 21G<411 429.5> 254 72<381 381> 457 72<225.5 312.5> 585 66<249.5 298.5 249.5 309.5>
VStem: 49 90<122.5 201 122.5 228.5> 221 84<-153 -102 -159.5 -95.5> 381 84<136 148 148 254 254 254 326 372>
LayerCount: 2
Fore
SplineSet
381 373 m 2xdf80
 381 418 354 457 271 457 c 0
 180 457 125 415 115 415 c 0
 101 415 80 454 80 465 c 0
 80 491 168 529 268 529 c 0
 392 529 465 471 465 372 c 2
 465 148 l 2
 465 66 477 27 477 22 c 0
 477 3 436 -1 423 -1 c 0xbf80
 399 -1 394 41 388 69 c 1
 350 27 295 -6 220 -6 c 0
 123 -6 49 41 49 144 c 0
 49 313 228 324 381 326 c 1
 381 373 l 2xdf80
381 254 m 1
 277 253 139 253 139 149 c 0
 139 96 168 67 224 67 c 0
 297 67 341 100 381 136 c 1
 381 254 l 1
403 715 m 0
 414 715 418 710 418 700 c 0
 418 623 345 585 274 585 c 0
 202 585 129 623 129 700 c 0
 129 710 133 715 144 715 c 0
 161 715 158 706 166 690 c 0
 181 662 225 651 274 651 c 0
 323 651 366 662 381 690 c 0
 389 706 386 715 403 715 c 0
221 -102 m 2
 221 -89 233 -80 265 -80 c 0
 293 -80 305 -88 305 -102 c 2
 305 -153 l 2
 305 -166 293 -175 261 -175 c 0
 233 -175 221 -167 221 -153 c 2
 221 -102 l 2
EndSplineSet
EndChar

StartChar: abrevegrave
Encoding: 7857 7857 198
Width: 545
Flags: MW
HStem: -6 73<196 257.5> -1 21G<411 429.5> 254 72<381 381> 457 72<225.5 312.5> 585 66<249.5 298.5 249.5 309.5>
VStem: 49 90<122.5 201 122.5 228.5> 381 84<136 148 148 254 254 254 326 372>
LayerCount: 2
Fore
SplineSet
381 373 m 2xbe
 381 418 354 457 271 457 c 0
 180 457 125 415 115 415 c 0
 101 415 80 454 80 465 c 0
 80 491 168 529 268 529 c 0
 392 529 465 471 465 372 c 2
 465 148 l 2
 465 66 477 27 477 22 c 0
 477 3 436 -1 423 -1 c 0x7e
 399 -1 394 41 388 69 c 1
 350 27 295 -6 220 -6 c 0
 123 -6 49 41 49 144 c 0
 49 313 228 324 381 326 c 1
 381 373 l 2xbe
381 254 m 1
 277 253 139 253 139 149 c 0
 139 96 168 67 224 67 c 0
 297 67 341 100 381 136 c 1
 381 254 l 1
204 880 m 0
 236 880 255 873 266 854 c 0
 312 774 324 753 324 743 c 0
 324 736 317 733 301 733 c 0
 280 733 261 739 250 751 c 0
 166 847 156 856 156 867 c 0
 156 877 172 880 204 880 c 0
403 715 m 0
 414 715 418 710 418 700 c 0
 418 623 345 585 274 585 c 0
 202 585 129 623 129 700 c 0
 129 710 133 715 144 715 c 0
 161 715 158 706 166 690 c 0
 181 662 225 651 274 651 c 0
 323 651 366 662 381 690 c 0
 389 706 386 715 403 715 c 0
EndSplineSet
EndChar

StartChar: abrevehookabove
Encoding: 7859 7859 199
Width: 545
Flags: MW
HStem: -6 73<196 257.5> -1 21G<411 429.5> 254 72<381 381> 457 72<225.5 312.5> 585 66<249.5 298.5 249.5 309.5> 847 51<263.5 283>
VStem: 49 90<122.5 201 122.5 228.5> 310 62<795 829> 381 84<136 148 148 254 254 254 326 372>
LayerCount: 2
Fore
SplineSet
381 373 m 2xbe80
 381 418 354 457 271 457 c 0
 180 457 125 415 115 415 c 0
 101 415 80 454 80 465 c 0
 80 491 168 529 268 529 c 0
 392 529 465 471 465 372 c 2
 465 148 l 2
 465 66 477 27 477 22 c 0
 477 3 436 -1 423 -1 c 0x7e80
 399 -1 394 41 388 69 c 1
 350 27 295 -6 220 -6 c 0
 123 -6 49 41 49 144 c 0
 49 313 228 324 381 326 c 1
 381 373 l 2xbe80
381 254 m 1
 277 253 139 253 139 149 c 0
 139 96 168 67 224 67 c 0
 297 67 341 100 381 136 c 1
 381 254 l 1
310 820 m 0xbf80
 310 838 293 847 273 847 c 0
 242 847 232 834 227 834 c 0
 219 834 203 857 203 867 c 0
 203 880 246 898 281 898 c 0
 315 898 372 882 372 827 c 0
 372 761 293 711 281 711 c 0
 272 711 248 719 248 728 c 0
 248 757 310 770 310 820 c 0xbf80
403 715 m 0
 414 715 418 710 418 700 c 0
 418 623 345 585 274 585 c 0
 202 585 129 623 129 700 c 0
 129 710 133 715 144 715 c 0
 161 715 158 706 166 690 c 0
 181 662 225 651 274 651 c 0
 323 651 366 662 381 690 c 0
 389 706 386 715 403 715 c 0
EndSplineSet
EndChar

StartChar: abrevetilde
Encoding: 7861 7861 200
Width: 545
Flags: MW
HStem: -6 73<196 257.5> -1 21G<411 429.5> 254 72<381 381> 457 72<225.5 312.5> 585 66<249.5 298.5 249.5 309.5> 781 64<324 340.5> 811 64<205.5 222>
VStem: 49 90<122.5 201 122.5 228.5> 381 84<136 148 148 254 254 254 326 372>
LayerCount: 2
Fore
SplineSet
381 373 m 2xbd80
 381 418 354 457 271 457 c 0
 180 457 125 415 115 415 c 0
 101 415 80 454 80 465 c 0
 80 491 168 529 268 529 c 0
 392 529 465 471 465 372 c 2
 465 148 l 2
 465 66 477 27 477 22 c 0
 477 3 436 -1 423 -1 c 0x7d80
 399 -1 394 41 388 69 c 1
 350 27 295 -6 220 -6 c 0
 123 -6 49 41 49 144 c 0
 49 313 228 324 381 326 c 1
 381 373 l 2xbd80
381 254 m 1
 277 253 139 253 139 149 c 0
 139 96 168 67 224 67 c 0
 297 67 341 100 381 136 c 1
 381 254 l 1
386 868 m 0
 391 872 395 873 400 873 c 0
 407 873 413 869 417 864 c 0
 423 856 426 849 426 843 c 0
 426 835 421 828 415 822 c 0
 388 800 359 781 322 781 c 0xbd80
 288 781 271 789 255 797 c 0
 240 805 231 811 213 811 c 0
 193 811 174 800 163 792 c 0
 157 788 151 785 146 785 c 0
 139 785 132 790 126 799 c 0
 122 805 120 811 120 816 c 0
 120 824 124 830 130 835 c 0
 156 855 187 875 224 875 c 0xbb80
 258 875 273 864 288 856 c 0
 301 849 315 845 333 845 c 0
 353 845 370 856 386 868 c 0
403 715 m 0
 414 715 418 710 418 700 c 0
 418 623 345 585 274 585 c 0
 202 585 129 623 129 700 c 0
 129 710 133 715 144 715 c 0
 161 715 158 706 166 690 c 0
 181 662 225 651 274 651 c 0
 323 651 366 662 381 690 c 0
 389 706 386 715 403 715 c 0
EndSplineSet
EndChar

StartChar: acircumflex
Encoding: 226 226 201
Width: 545
Flags: MW
HStem: -6 73<196 257.5> -1 21G<411 429.5> 254 72<381 381> 457 72<225.5 312.5> 576 142<167.5 285 175 285 260 368 260 370>
VStem: 49 90<122.5 201 122.5 228.5> 381 84<136 148 148 254 254 254 326 372>
LayerCount: 2
Fore
SplineSet
285 718 m 2xbe
 305 718 321 711 331 696 c 2
 388 608 l 2
 392 602 394 596 394 591 c 0
 394 582 386 576 370 576 c 2
 368 576 l 2
 355 576 345 580 335 589 c 1
 272 663 l 1
 211 589 l 1
 201 580 191 576 177 576 c 2
 175 576 l 2
 160 576 152 581 152 590 c 0
 152 595 154 601 158 608 c 2
 214 696 l 2
 224 711 240 718 260 718 c 2
 285 718 l 2xbe
381 373 m 2
 381 418 354 457 271 457 c 0
 180 457 125 415 115 415 c 0
 101 415 80 454 80 465 c 0
 80 491 168 529 268 529 c 0
 392 529 465 471 465 372 c 2
 465 148 l 2
 465 66 477 27 477 22 c 0
 477 3 436 -1 423 -1 c 0x7e
 399 -1 394 41 388 69 c 1
 350 27 295 -6 220 -6 c 0
 123 -6 49 41 49 144 c 0
 49 313 228 324 381 326 c 1
 381 373 l 2
381 254 m 1
 277 253 139 253 139 149 c 0
 139 96 168 67 224 67 c 0
 297 67 341 100 381 136 c 1
 381 254 l 1
EndSplineSet
EndChar

StartChar: acircumflexacute
Encoding: 7845 7845 202
Width: 545
Flags: MW
HStem: -6 73<196 257.5> -1 21G<411 429.5> 254 72<381 381> 457 72<225.5 312.5>
VStem: 49 90<122.5 201 122.5 228.5> 381 84<136 148 148 254 254 254 326 372>
LayerCount: 2
Fore
SplineSet
381 373 m 2xbc
 381 418 354 457 271 457 c 0
 180 457 125 415 115 415 c 0
 101 415 80 454 80 465 c 0
 80 491 168 529 268 529 c 0
 392 529 465 471 465 372 c 2
 465 148 l 2
 465 66 477 27 477 22 c 0
 477 3 436 -1 423 -1 c 0x7c
 399 -1 394 41 388 69 c 1
 350 27 295 -6 220 -6 c 0
 123 -6 49 41 49 144 c 0
 49 313 228 324 381 326 c 1
 381 373 l 2xbc
381 254 m 1
 277 253 139 253 139 149 c 0
 139 96 168 67 224 67 c 0
 297 67 341 100 381 136 c 1
 381 254 l 1
494 861 m 0
 526 861 542 858 542 848 c 0
 542 837 532 828 448 732 c 0
 437 720 418 714 397 714 c 0
 381 714 374 717 374 724 c 0
 374 734 386 755 432 835 c 0
 443 854 462 861 494 861 c 0
289 718 m 2
 305 718 317 709 325 696 c 2
 377 608 l 2
 381 602 383 596 383 591 c 0
 383 582 375 576 359 576 c 2
 357 576 l 2
 344 576 330 580 324 589 c 2
 276 663 l 1
 215 589 l 1
 205 580 195 576 181 576 c 2
 179 576 l 2
 164 576 156 581 156 590 c 0
 156 595 158 601 162 608 c 2
 218 696 l 2
 228 711 244 718 264 718 c 2
 289 718 l 2
EndSplineSet
EndChar

StartChar: acircumflexdotbelow
Encoding: 7853 7853 203
Width: 545
Flags: MW
HStem: -175 95<249 277> -6 73<196 257.5> -1 21G<411 429.5> 254 72<381 381> 457 72<225.5 312.5> 576 142<167.5 285 175 285 260 368 260 370>
VStem: 49 90<122.5 201 122.5 228.5> 221 84<-153 -102 -159.5 -95.5> 381 84<136 148 148 254 254 254 326 372>
LayerCount: 2
Fore
SplineSet
381 373 m 2x5b80
 381 418 354 457 271 457 c 0
 180 457 125 415 115 415 c 0
 101 415 80 454 80 465 c 0
 80 491 168 529 268 529 c 0
 392 529 465 471 465 372 c 2
 465 148 l 2
 465 66 477 27 477 22 c 0
 477 3 436 -1 423 -1 c 0x3b80
 399 -1 394 41 388 69 c 1
 350 27 295 -6 220 -6 c 0
 123 -6 49 41 49 144 c 0
 49 313 228 324 381 326 c 1
 381 373 l 2x5b80
381 254 m 1
 277 253 139 253 139 149 c 0
 139 96 168 67 224 67 c 0
 297 67 341 100 381 136 c 1
 381 254 l 1
285 718 m 2xdf80
 305 718 321 711 331 696 c 2
 388 608 l 2
 392 602 394 596 394 591 c 0
 394 582 386 576 370 576 c 2
 368 576 l 2
 355 576 345 580 335 589 c 1
 272 663 l 1
 211 589 l 1
 201 580 191 576 177 576 c 2
 175 576 l 2
 160 576 152 581 152 590 c 0
 152 595 154 601 158 608 c 2
 214 696 l 2
 224 711 240 718 260 718 c 2
 285 718 l 2xdf80
221 -102 m 2
 221 -89 233 -80 265 -80 c 0
 293 -80 305 -88 305 -102 c 2
 305 -153 l 2
 305 -166 293 -175 261 -175 c 0
 233 -175 221 -167 221 -153 c 2
 221 -102 l 2
EndSplineSet
EndChar

StartChar: acircumflexgrave
Encoding: 7847 7847 204
Width: 545
Flags: MW
HStem: -6 73<196 257.5> -1 21G<411 429.5> 254 72<381 381> 457 72<225.5 312.5>
VStem: 49 90<122.5 201 122.5 228.5> 381 84<136 148 148 254 254 254 326 372>
LayerCount: 2
Fore
SplineSet
381 373 m 2xbc
 381 418 354 457 271 457 c 0
 180 457 125 415 115 415 c 0
 101 415 80 454 80 465 c 0
 80 491 168 529 268 529 c 0
 392 529 465 471 465 372 c 2
 465 148 l 2
 465 66 477 27 477 22 c 0
 477 3 436 -1 423 -1 c 0x7c
 399 -1 394 41 388 69 c 1
 350 27 295 -6 220 -6 c 0
 123 -6 49 41 49 144 c 0
 49 313 228 324 381 326 c 1
 381 373 l 2xbc
381 254 m 1
 277 253 139 253 139 149 c 0
 139 96 168 67 224 67 c 0
 297 67 341 100 381 136 c 1
 381 254 l 1
344 861 m 0
 376 861 395 854 406 835 c 0
 452 755 464 734 464 724 c 0
 464 717 457 714 441 714 c 0
 420 714 401 720 390 732 c 0
 306 828 296 837 296 848 c 0
 296 858 312 861 344 861 c 0
289 718 m 2
 305 718 317 709 325 696 c 2
 377 608 l 2
 381 602 383 596 383 591 c 0
 383 582 375 576 359 576 c 2
 357 576 l 2
 344 576 330 580 324 589 c 2
 276 663 l 1
 215 589 l 1
 205 580 195 576 181 576 c 2
 179 576 l 2
 164 576 156 581 156 590 c 0
 156 595 158 601 162 608 c 2
 218 696 l 2
 228 711 244 718 264 718 c 2
 289 718 l 2
EndSplineSet
EndChar

StartChar: acircumflexhookabove
Encoding: 7849 7849 205
Width: 545
Flags: MW
HStem: -6 73<196 257.5> -1 21G<411 429.5> 254 72<381 381> 457 72<225.5 312.5> 828 51<403.5 423>
VStem: 49 90<122.5 201 122.5 228.5> 381 84<136 148 148 254 254 254 326 372> 450 62<776 810>
LayerCount: 2
Fore
SplineSet
381 373 m 2xbe
 381 418 354 457 271 457 c 0
 180 457 125 415 115 415 c 0
 101 415 80 454 80 465 c 0
 80 491 168 529 268 529 c 0
 392 529 465 471 465 372 c 2
 465 148 l 2
 465 66 477 27 477 22 c 0
 477 3 436 -1 423 -1 c 0x7e
 399 -1 394 41 388 69 c 1
 350 27 295 -6 220 -6 c 0
 123 -6 49 41 49 144 c 0
 49 313 228 324 381 326 c 1
 381 373 l 2xbe
381 254 m 1
 277 253 139 253 139 149 c 0
 139 96 168 67 224 67 c 0
 297 67 341 100 381 136 c 1
 381 254 l 1
450 801 m 0xbd
 450 819 433 828 413 828 c 0
 382 828 372 815 367 815 c 0
 359 815 343 838 343 848 c 0
 343 861 386 879 421 879 c 0
 455 879 512 863 512 808 c 0
 512 742 433 692 421 692 c 0
 412 692 388 700 388 709 c 0
 388 738 450 751 450 801 c 0xbd
289 718 m 2
 305 718 317 709 325 696 c 2
 377 608 l 2
 381 602 383 596 383 591 c 0
 383 582 375 576 359 576 c 2
 357 576 l 2
 344 576 330 580 324 589 c 2
 276 663 l 1
 215 589 l 1
 205 580 195 576 181 576 c 2
 179 576 l 2
 164 576 156 581 156 590 c 0
 156 595 158 601 162 608 c 2
 218 696 l 2
 228 711 244 718 264 718 c 2
 289 718 l 2
EndSplineSet
EndChar

